<?xml version="1.0" standalone="no"?>
<!DOCTYPE svg PUBLIC "-//W3C//DTD SVG 1.1//EN" "http://www.w3.org/Graphics/SVG/1.1/DTD/svg11.dtd" >
<svg xmlns="http://www.w3.org/2000/svg" xmlns:xlink="http://www.w3.org/1999/xlink" version="1.1">
<metadata>
Created by FontForge 20170731 at Mon May  3 20:47:04 2021
 By Aleksey,,,
Copyright (c) 2017 by Matthieu Salvaggio. All rights reserved.
</metadata>
<defs>
<font id="ATApoc-Dark" horiz-adv-x="1167" >
  <font-face 
    font-family="AT Apoc Dark"
    font-weight="400"
    font-stretch="normal"
    units-per-em="2048"
    panose-1="0 0 5 0 0 0 0 0 0 0"
    ascent="1638"
    descent="-410"
    x-height="1075"
    cap-height="1556"
    bbox="-1542 -500 2677 2136"
    underline-thickness="102"
    underline-position="-204"
    unicode-range="U+0020-FB04"
  />
<missing-glyph horiz-adv-x="1380" 
d="M125 0v41l154 72v1331l-154 72v40h1130v-40l-153 -72v-1331l153 -72v-41h-1130zM453 252l471 1202h-471v-1202zM477 102h451v1143z" />
    <glyph glyph-name="ff" unicode="ff" horiz-adv-x="1478" 
d="M76 0v31l133 63v889h-131v92h131v92q0 226 101 366t276 140q55 0 105.5 -15t87 -37.5t69 -45t66 -39.5t63.5 -20q101 157 297 157q48 0 90.5 -11t70.5 -25.5t56.5 -39.5t43 -41.5t34.5 -42.5l-129 -315h-64q27 96 27 172q0 77 -28 124.5t-85 47.5q-43 0 -74 -27.5
t-47.5 -76t-24 -103.5t-7.5 -121v-139h260v-92h-260v-889l133 -63v-31h-514v31l133 63v889h-432v-889l133 -63v-31h-514zM457 1075h432v180q0 75 -24 133t-62.5 90t-81 48t-86.5 16q-52 0 -88 -23t-55 -68.5t-27 -102t-8 -134.5v-139z" />
    <glyph glyph-name="fi" unicode="fi" horiz-adv-x="1318" 
d="M1112 94l133 -63v-31h-514v31l133 63v889h-407v-889l133 -63v-31h-514v31l133 63v889h-131v92h131v92q0 228 103.5 367t299.5 139q70 0 124.5 -15t128.5 -51.5t96 -45.5q7 -3 36 -14t39.5 -15.5t32.5 -18t31 -26t17.5 -33.5t8.5 -47q0 -62 -38 -109t-115 -47
q-66 0 -99.5 35t-52.5 92q-11 31 -17.5 48t-21.5 42.5t-30.5 39t-41.5 24t-59 10.5q-194 0 -194 -328v-139h655v-981z" />
    <glyph glyph-name="fl" unicode="fl" horiz-adv-x="1419" 
d="M76 0v31l133 63v889h-131v92h131v92q0 228 101 367t286 139q57 0 106 -15t79 -33t77 -33t100 -15q86 0 234 61h41v-1544l133 -63v-31h-514v31l133 63v1049q0 92 -24.5 164.5t-61.5 115.5t-84.5 71t-89.5 38t-82 10q-107 0 -146.5 -81t-39.5 -247v-139h260v-92h-260v-889
l133 -63v-31h-514z" />
    <glyph glyph-name="ffi" unicode="ffi" horiz-adv-x="1998" 
d="M76 0v31l133 63v889h-131v92h131v92q0 226 101 366t276 140q56 0 106.5 -15.5t87 -38t69 -45t66.5 -39.5t64 -19q109 157 313 157q70 0 124.5 -15.5t128 -51.5t95.5 -45q7 -3 36 -14t40 -16t33 -18t31 -25.5t17.5 -33.5t8.5 -47q0 -62 -38 -109t-115 -47q-66 0 -99.5 35
t-52.5 92q-11 31 -17.5 48t-21.5 42.5t-30.5 39t-41.5 24t-59 10.5q-194 0 -194 -328v-139h655v-981l133 -63v-31h-514v31l133 63v889h-407v-889l133 -63v-31h-514v31l133 63v889h-432v-889l133 -63v-31h-514zM457 1075h432v180q0 75 -24 133t-62.5 90t-81 48t-86.5 16
q-52 0 -88 -23t-55 -68.5t-27 -102t-8 -134.5v-139z" />
    <glyph glyph-name="ffl" unicode="ffl" horiz-adv-x="2099" 
d="M76 0v31l133 63v889h-131v92h131v92q0 226 101 366t276 140q55 0 105.5 -15t87 -37.5t69 -45t66 -39.5t63.5 -20q106 157 299 157q57 0 106 -15t79 -33t77 -33t100 -15q86 0 234 61h41v-1544l133 -63v-31h-514v31l133 63v1049q0 92 -24.5 164.5t-61.5 115.5t-84.5 71
t-89.5 38t-82 10q-107 0 -146.5 -81t-39.5 -247v-139h260v-92h-260v-889l133 -63v-31h-514v31l133 63v889h-432v-889l133 -63v-31h-514zM457 1075h432v180q0 75 -24 133t-62.5 90t-81 48t-86.5 16q-52 0 -88 -23t-55 -68.5t-27 -102t-8 -134.5v-139z" />
    <glyph glyph-name="fh" unicode="fh" horiz-adv-x="2070" 
d="M76 0v31l133 63v889h-131v92h131v92q0 228 101 367t286 139q57 0 106 -15t79 -33t77 -33t100 -15q86 0 234 61h41v-716q47 79 126 132.5t191 53.5q47 0 91 -10.5t85 -34t71.5 -58t48.5 -87t18 -117.5v-707l133 -63v-31h-494v31l113 63v604q0 167 -30 236.5t-105 69.5
q-131 0 -248 -197v-713l133 -63v-31h-514v31l133 63v1049q0 92 -24.5 164.5t-61.5 115.5t-84.5 71t-89.5 38t-82 10q-107 0 -146.5 -81t-39.5 -247v-139h260v-92h-260v-889l133 -63v-31h-514z" />
    <glyph glyph-name="fb" unicode="fb" horiz-adv-x="2009" 
d="M1497 -23q-181 0 -313 152l-156 -129h-43v1143q0 92 -24.5 164.5t-61.5 115.5t-84.5 71t-89.5 38t-82 10q-107 0 -146.5 -81t-39.5 -247v-139h260v-92h-260v-889l133 -63v-31h-514v31l133 63v889h-131v92h131v92q0 228 101 367t286 139q57 0 106 -15t79 -33t77 -33
t100 -15q86 0 234 61h41v-530q316 0 506 -166t190 -448q0 -226 -119.5 -371.5t-312.5 -145.5zM1460 82q90 0 145.5 112.5t55.5 284.5q0 248 -117 392.5t-311 144.5v-842q45 -43 104.5 -67.5t122.5 -24.5z" />
    <glyph glyph-name="fk" unicode="fk" horiz-adv-x="2070" 
d="M1862 74l135 -43v-31h-481v31l77 32l-219 418l-141 -180v-207l133 -63v-31h-514v31l133 63v1049q0 92 -24.5 164.5t-61.5 115.5t-84.5 71t-89.5 38t-82 10q-107 0 -146.5 -81t-39.5 -247v-139h260v-92h-260v-889l133 -63v-31h-514v31l133 63v889h-131v92h131v92
q0 228 101 367t286 139q57 0 106 -15t79 -33t77 -33t100 -15q86 0 234 61h41v-1230l465 585l-150 51v31h400v-31l-189 -67l-225 -291z" />
    <glyph glyph-name="ffh" unicode="ffh" horiz-adv-x="2750" 
d="M2544 94l133 -63v-31h-494v31l113 63v604q0 167 -30 236.5t-105 69.5q-131 0 -248 -197v-713l133 -63v-31h-514v31l133 63v1049q0 92 -24.5 164.5t-61.5 115.5t-84.5 71t-89.5 38t-82 10q-107 0 -146.5 -81t-39.5 -247v-139h260v-92h-260v-889l133 -63v-31h-514v31
l133 63v889h-432v-889l133 -63v-31h-514v31l133 63v889h-131v92h131v92q0 226 101 366t276 140q55 0 105.5 -15t87 -37.5t69 -45t66 -39.5t63.5 -20q106 157 299 157q57 0 106 -15t79 -33t77 -33t100 -15q86 0 234 61h41v-716q47 79 126 132.5t191 53.5q47 0 91 -10.5
t85 -34t71.5 -58t48.5 -87t18 -117.5v-707zM889 1075v180q0 75 -24 133t-62.5 90t-81 48t-86.5 16q-52 0 -88 -23t-55 -68.5t-27 -102t-8 -134.5v-139h432z" />
    <glyph glyph-name="ffk" unicode="ffk" horiz-adv-x="2750" 
d="M76 0v31l133 63v889h-131v92h131v92q0 226 101 366t276 140q55 0 105.5 -15t87 -37.5t69 -45t66 -39.5t63.5 -20q106 157 299 157q57 0 106 -15t79 -33t77 -33t100 -15q86 0 234 61h41v-1230l465 585l-150 51v31h400v-31l-189 -67l-225 -291l328 -612l135 -43v-31h-482
v31l78 32l-219 418l-141 -180v-207l133 -63v-31h-514v31l133 63v1049q0 92 -24.5 164.5t-61.5 115.5t-84.5 71t-89.5 38t-82 10q-107 0 -146.5 -81t-39.5 -247v-139h260v-92h-260v-889l133 -63v-31h-514v31l133 63v889h-432v-889l133 -63v-31h-514zM457 1075h432v180
q0 75 -24 133t-62.5 90t-81 48t-86.5 16q-52 0 -88 -23t-55 -68.5t-27 -102t-8 -134.5v-139z" />
    <glyph glyph-name="st" unicode="st" horiz-adv-x="1718" 
d="M469 -23q-131 0 -236 47t-155 140l78 233h69q-6 -47 -6 -86q0 -72 20.5 -122t58.5 -75.5t80 -35.5t97 -10q124 0 178 45.5t54 113.5q0 30 -11.5 52.5t-28.5 38t-55 31.5t-72 26.5t-98 27.5q-340 95 -340 371q0 128 71.5 213.5t195.5 110.5q0 244 152.5 391t400.5 147
q207 0 332.5 -103.5t125.5 -275.5v-182h271v-92h-271v-737q0 -77 33.5 -125.5t85.5 -48.5q33 0 65 22.5t56 61.5h66q-43 -78 -127.5 -128.5t-174.5 -50.5q-114 0 -181.5 82t-67.5 217v707h-156v61q63 10 110.5 27t90 47t65.5 80.5t23 118.5q0 132 -86.5 200t-249.5 68
q-238 0 -382 -133.5t-144 -347.5q40 4 65 4q105 0 195 -39t145 -106l-6 -27q-23 -96 -72.5 -157.5t-114.5 -61.5q-82 0 -154.5 92t-86.5 207q-56 -13 -91.5 -48.5t-35.5 -93.5q0 -29 9 -53t31 -43.5t42 -33.5t60 -29.5t66 -24t77 -24.5q43 -14 67 -22t58.5 -21t54 -23
t45 -25.5t39 -31t29 -37t23 -45.5t12.5 -54.5t5 -66.5q0 -95 -31 -166t-86.5 -113.5t-126 -63t-155.5 -20.5zM623 752q65 0 65 55q0 66 -76.5 141.5t-167.5 75.5q-22 0 -32 -2q13 -105 71.5 -187.5t139.5 -82.5z" />
    <glyph glyph-name=".notdef" horiz-adv-x="1380" 
d="M125 0v41l154 72v1331l-154 72v40h1130v-40l-153 -72v-1331l153 -72v-41h-1130zM453 252l471 1202h-471v-1202zM477 102h451v1143z" />
    <glyph glyph-name=".null" horiz-adv-x="0" 
 />
    <glyph glyph-name="nonmarkingreturn" horiz-adv-x="682" 
 />
    <glyph glyph-name="space" unicode=" " horiz-adv-x="450" 
 />
    <glyph glyph-name="exclam" unicode="!" horiz-adv-x="499" 
d="M221 385q-9 164 -30 612t-21 496q0 87 18 116t62 29t62 -29t18 -116q0 -48 -21 -496t-30 -612h-58zM250 -23q-59 0 -97 38t-38 96t38 97.5t97 39.5t97 -39.5t38 -97.5t-38 -96t-97 -38z" />
    <glyph glyph-name="quotedbl" unicode="&#x22;" horiz-adv-x="460" 
d="M94 1055q-51 296 -51 420q0 56 15 76t55 20t53.5 -19.5t13.5 -76.5q0 -119 -49 -420h-37zM330 1055q-51 296 -51 420q0 57 14.5 76.5t54.5 19.5t54 -19.5t14 -76.5q0 -119 -49 -420h-37z" />
    <glyph glyph-name="numbersign" unicode="#" horiz-adv-x="1259" 
d="M1165 973h-227l-111 -426h195v-107h-223l-113 -440h-123l113 440h-246l-113 -440h-122l112 440h-213v107h242l110 426h-208v106h235l123 477h123l-123 -477h246l123 477h122l-122 -477h200v-106zM705 547l110 426h-246l-110 -426h246z" />
    <glyph glyph-name="dollar" unicode="$" horiz-adv-x="1208" 
d="M1071 543q0 -143 -103.5 -249t-289.5 -128v-227h-129v221q-143 8 -253.5 59.5t-160.5 138.5l92 299h56q0 -84 4 -137.5t19.5 -110t43.5 -88.5t77.5 -53.5t121.5 -25.5v420q-81 28 -143.5 66t-100.5 77.5t-62 85t-33 85.5t-9 83q0 141 97 226t251 101v191h129v-188
q181 -18 323 -142l-94 -227h-55q0 246 -174 278v-378q63 -20 110 -39t104 -52t93 -70t61 -93.5t25 -122.5zM416 1122q0 -64 32 -99t101 -62v333q-64 -17 -98.5 -61t-34.5 -111zM678 250q168 31 168 188q0 82 -42 121t-126 64v-373z" />
    <glyph glyph-name="percent" unicode="%" horiz-adv-x="1859" 
d="M399 815q-86 0 -155 37.5t-109.5 98t-62 130t-21.5 140.5q0 74 23.5 148t67 136t114.5 101t156 39t155 -38.5t112 -100t64.5 -133t22.5 -142.5q0 -58 -15 -116.5t-45.5 -112.5t-73 -95.5t-103 -66.5t-130.5 -25zM418 883q129 0 129 319q0 377 -154 377q-131 0 -131 -332
q0 -364 156 -364zM305 0l1081 1556h127l-1085 -1556h-123zM1442 -12q-69 0 -128 24.5t-98.5 65.5t-67.5 94t-41 109t-13 112q0 74 23.5 148t66.5 136t114 101t156 39t155 -38.5t112 -100t64.5 -133t22.5 -142.5q0 -73 -24 -145.5t-68.5 -133t-116 -98.5t-157.5 -38zM1460 55
q129 0 129 320q0 377 -153 377q-131 0 -131 -332q0 -365 155 -365z" />
    <glyph glyph-name="ampersand" unicode="&#x26;" horiz-adv-x="1497" 
d="M1434 -53h-41q-165 66 -346 184q-87 -74 -199 -115t-236 -41q-207 0 -345 108.5t-138 272.5q0 67 24.5 125.5t72 107t99.5 86t124 77.5q-93 191 -93 372q0 212 112.5 330.5t311.5 118.5q166 0 262.5 -80t96.5 -203q0 -40 -12 -79t-29 -71.5t-48.5 -67t-57 -59
t-68.5 -54.5t-69.5 -47.5t-74 -43.5t-68 -36.5t-63.5 -32.5q113 -308 389 -568q61 56 97.5 125.5t48 155t-19.5 189t-105 212.5h41q75 -100 110 -205t29 -199t-42 -178t-99 -153q150 -133 336 -231zM772 1493q-63 0 -106.5 -51.5t-62.5 -129t-19 -171.5q0 -145 47 -291
q274 172 274 426q0 217 -133 217zM657 72q76 0 160.5 28t157.5 80q-336 238 -492 508q-96 -116 -96 -301q0 -147 68.5 -231t201.5 -84z" />
    <glyph glyph-name="quotesingle" unicode="'" horiz-adv-x="225" 
d="M94 1055q-51 296 -51 420q0 56 15 76t55 20t53.5 -19.5t13.5 -76.5q0 -119 -49 -420h-37z" />
    <glyph glyph-name="parenleft" unicode="(" horiz-adv-x="667" 
d="M508 -123q-39 32 -86 83.5t-106 138t-105.5 184t-78.5 228t-32 263.5q0 115 31.5 239.5t79.5 226t105 192.5t106 150t86 89h65q-39 -45 -83 -132t-85.5 -203.5t-68.5 -266.5t-27 -295q0 -135 18.5 -263t46 -224t64.5 -180.5t70 -138.5t65 -91h-65z" />
    <glyph glyph-name="parenright" unicode=")" horiz-adv-x="667" 
d="M94 -123q32 37 65 91t70 138.5t64.5 180.5t46 224t18.5 263q0 145 -27 295t-68.5 266.5t-85.5 203.5t-83 132h66q47 -39 112 -124.5t133 -204t115 -272.5t47 -296q0 -133 -32 -263.5t-78.5 -228t-105 -184t-105.5 -138t-86 -83.5h-66z" />
    <glyph glyph-name="asterisk" unicode="*" horiz-adv-x="690" 
d="M489 1362q48 -9 69 -36t1 -60q-22 -34 -53.5 -29.5t-65.5 39.5l-88 100l41 -127q16 -46 3 -77t-52 -31q-38 0 -51 32t2 76l41 123l-86 -94q-35 -37 -66 -41.5t-53 29.5q-21 34 -0.5 60t68.5 34l131 29l-131 28q-47 9 -68.5 36t-1.5 60q21 34 53.5 30t65.5 -42l88 -98
l-41 127q-15 44 -2 76t51 32q39 0 52 -31t-3 -77l-43 -131l92 102q33 38 65.5 42t53.5 -30q18 -33 -2.5 -59t-66.5 -37l-138 -28z" />
    <glyph glyph-name="plus" unicode="+" horiz-adv-x="980" 
d="M852 635v-127h-297v-297h-127v297h-299v127h299v299h127v-299h297z" />
    <glyph glyph-name="comma" unicode="," horiz-adv-x="346" 
d="M37 -336q64 82 91.5 144.5t27.5 121.5q0 35 -14 69.5t-30 57.5t-49 64q0 56 34.5 91.5t84.5 35.5q56 0 89.5 -35.5t33.5 -93.5q0 -89 -64 -211t-178 -244h-26z" />
    <glyph glyph-name="hyphen" unicode="-" horiz-adv-x="722" 
d="M102 506v139h519v-139h-519z" />
    <glyph glyph-name="period" unicode="." horiz-adv-x="344" 
d="M172 -23q-59 0 -97 38t-38 96t38 97.5t97 39.5t97 -39.5t38 -97.5t-38 -96t-97 -38z" />
    <glyph glyph-name="slash" unicode="/" horiz-adv-x="1173" 
d="M74 -244l899 1882h127l-903 -1882h-123z" />
    <glyph glyph-name="zero" unicode="0" horiz-adv-x="1390" 
d="M670 -23q-126 0 -234.5 66t-181 174.5t-113.5 247t-41 283.5q0 155 47 305t126 264.5t193 185t239 70.5q102 0 195.5 -47t163 -126.5t121.5 -182t78.5 -217t26.5 -226.5q0 -150 -48.5 -294.5t-130 -255.5t-197.5 -179t-244 -68zM713 63q142 0 224.5 164.5t82.5 487.5
q0 162 -32 309t-83 246.5t-113.5 158t-123.5 58.5q-140 0 -226 -179t-86 -503q0 -160 32.5 -302t84.5 -236.5t115 -149t125 -54.5z" />
    <glyph glyph-name="one" unicode="1" horiz-adv-x="968" 
d="M270 0v31l154 82v1214l-324 -293h-6v31l316 491h464v-30l-153 -66v-1347l153 -82v-31h-604z" />
    <glyph glyph-name="two" unicode="2" horiz-adv-x="1253" 
d="M94 0v41q35 19 78 47.5t110 83t129 118t127 154.5t113 189t78.5 225t30.5 260q0 173 -51 271t-154 98q-117 0 -200 -119.5t-83 -327.5v-249h-43l-114 413q19 55 43.5 103t65.5 99t92 86t125 58t161 23q92 0 167.5 -24.5t136 -76t94.5 -139t34 -205.5q0 -298 -237 -606
q-155 -200 -406 -409h553l174 204h41q-12 -54 -29 -115t-28 -106.5t-15 -95.5h-993z" />
    <glyph glyph-name="three" unicode="3" horiz-adv-x="1259" 
d="M578 -25q-190 0 -318.5 75t-161.5 194l121 303h43l-18 -258q0 -73 47.5 -129t117.5 -82.5t148 -26.5q85 0 151 35t103.5 92.5t56.5 122.5t19 133q0 140 -75 238t-208 98q-70 0 -147 -29l-11 -4v62q154 77 246 193t92 247q0 100 -52.5 174t-153.5 74q-117 0 -193 -102
t-76 -265v-153h-49l-100 323q75 134 195.5 208.5t275.5 74.5q174 0 301 -86t127 -215q0 -116 -108.5 -229t-301.5 -205q50 8 96 8q187 0 301.5 -106t114.5 -283q0 -213 -163 -347.5t-420 -134.5z" />
    <glyph glyph-name="four" unicode="4" horiz-adv-x="1318" 
d="M561 0v31l174 82v276h-641v62l666 1105h424v-30l-154 -64v-960l195 -72v-41h-195v-276l154 -82v-31h-623zM338 471h336q32 0 46.5 10.5t14.5 40.5v817q-107 -162 -292 -471t-185 -366q0 -31 80 -31z" />
    <glyph glyph-name="five" unicode="5" horiz-adv-x="1538" 
d="M827 -25q-229 0 -431.5 148t-297.5 387h52q91 -198 254 -321t339 -123q185 0 298.5 136t113.5 357q0 185 -79 299.5t-206 114.5q-117 0 -213 -94.5t-137 -249.5h-280l157 835l-147 62v30h999q4 -51 13 -92t27 -105.5t30 -119.5h-41l-174 221h-442l-117 -596q-3 -16 4 -16
q5 0 12 12q106 195 404 195q86 0 171 -36.5t152.5 -100t109.5 -158.5t42 -203q0 -107 -34.5 -201t-93.5 -163t-137 -118.5t-167 -74.5t-181 -25z" />
    <glyph glyph-name="six" unicode="6" horiz-adv-x="1368" 
d="M700 -23q-273 0 -436.5 204t-163.5 548q0 190 53 351t143.5 267.5t208.5 166t249 59.5q73 0 140 -18.5t112 -46t72.5 -50.5t41.5 -41v-332h-61q0 183 -93.5 287.5t-236.5 104.5q-96 0 -169 -49t-117 -135t-65.5 -195.5t-21.5 -239.5q0 -72 6 -145q40 149 150 245.5
t279 96.5q97 0 183 -34.5t152.5 -97.5t105 -160.5t38.5 -215.5q0 -168 -76 -299t-205.5 -201t-288.5 -70zM707 74q128 0 207 125.5t79 324.5q0 202 -81.5 325.5t-202.5 123.5q-89 0 -157.5 -72.5t-101 -178t-32.5 -220.5q0 -177 79.5 -302.5t209.5 -125.5z" />
    <glyph glyph-name="seven" unicode="7" horiz-adv-x="1204" 
d="M162 1556h948v-30l-135 -56l-219 -628l174 -45v-62h-209l-244 -735h-260l244 735h-232v103h267l206 622h-397l-174 -221h-37q11 54 36.5 153.5t31.5 163.5z" />
    <glyph glyph-name="eight" unicode="8" horiz-adv-x="1292" 
d="M633 -23q-243 0 -389 115t-146 309q0 158 96 279.5t248 155.5q-127 29 -207.5 120.5t-80.5 223.5q0 173 135 283t352 110q213 0 345 -105.5t132 -267.5q0 -119 -77 -212.5t-216 -149.5q162 -21 265.5 -134t103.5 -278q0 -202 -155 -325.5t-406 -123.5zM639 877
q96 0 152.5 78t56.5 208q0 144 -66 234t-168 90q-94 0 -149 -79.5t-55 -211.5q0 -142 64 -230.5t165 -88.5zM655 63q125 0 197 94t72 251q0 169 -81.5 273.5t-211.5 104.5q-124 0 -200.5 -96.5t-76.5 -253.5q0 -166 84 -269.5t217 -103.5z" />
    <glyph glyph-name="nine" unicode="9" horiz-adv-x="1368" 
d="M600 -23q-127 0 -246 44.5t-166 111.5v332h62q0 -174 107.5 -282.5t269.5 -108.5q104 0 181 48.5t121 135.5t64.5 195t20.5 239q0 72 -6 146q-40 -149 -149.5 -245.5t-278.5 -96.5q-97 0 -183.5 34.5t-152.5 97.5t-105 160.5t-39 215.5q0 168 76 299t205.5 200.5
t288.5 69.5q273 0 436.5 -203.5t163.5 -550.5q0 -191 -52.5 -350.5t-143.5 -266.5t-213 -166t-261 -59zM662 578q89 0 157.5 73t100.5 178t32 220t-34 211.5t-100.5 156.5t-153.5 60q-128 0 -207.5 -126t-79.5 -325q0 -202 81.5 -325t203.5 -123z" />
    <glyph glyph-name="colon" unicode=":" horiz-adv-x="344" 
d="M172 758q-60 0 -97.5 38t-37.5 95q0 58 38 97.5t97 39.5t97 -39.5t38 -97.5q0 -57 -37.5 -95t-97.5 -38zM172 -23q-59 0 -97 38t-38 96t38 97.5t97 39.5t97 -39.5t38 -97.5t-38 -96t-97 -38z" />
    <glyph glyph-name="semicolon" unicode=";" horiz-adv-x="323" 
d="M193 758q-60 0 -98 38t-38 95q0 58 38.5 97.5t97.5 39.5t97 -39.5t38 -97.5q0 -57 -38 -95t-97 -38zM37 -336q64 82 91.5 144.5t27.5 121.5q0 35 -14 69.5t-30 57.5t-49 64q0 56 34.5 91.5t84.5 35.5q56 0 89.5 -35.5t33.5 -93.5q0 -89 -64 -211t-178 -244h-26z" />
    <glyph glyph-name="less" unicode="&#x3c;" horiz-adv-x="1101" 
d="M973 86l-844 459v61l844 457v-148l-637 -340l637 -342v-147z" />
    <glyph glyph-name="equal" unicode="=" horiz-adv-x="980" 
d="M129 696v127h723v-127h-723zM129 328v127h723v-127h-723z" />
    <glyph glyph-name="greater" unicode="&#x3e;" horiz-adv-x="1101" 
d="M129 86v147l637 342l-637 340v148l844 -457v-61z" />
    <glyph glyph-name="question" unicode="?" horiz-adv-x="1071" 
d="M391 348q-12 68 -12 125q0 111 31 179.5t129 205.5q93 130 136.5 226.5t43.5 224.5q0 145 -55.5 209.5t-137.5 64.5q-95 0 -165 -80t-92.5 -212t12.5 -302h-52l-114 414q40 115 150.5 190.5t283.5 75.5q59 0 111.5 -9t107.5 -35t94.5 -66.5t64.5 -109t25 -157.5
q0 -188 -129 -360q-45 -61 -105.5 -119.5t-102.5 -97t-81.5 -88.5t-60 -118.5t-20.5 -160.5h-62zM432 -23q-59 0 -97 38t-38 96t38 97.5t97 39.5t97 -39.5t38 -97.5t-38 -96t-97 -38z" />
    <glyph glyph-name="at" unicode="@" horiz-adv-x="1722" 
d="M817 -164q-139 0 -263.5 51.5t-218.5 144.5t-149 232t-55 305q0 218 92.5 390t263 269t390.5 97q323 0 518.5 -203t195.5 -542q0 -236 -93 -382.5t-245 -146.5q-74 0 -139 35.5t-94 95.5q-39 -46 -104 -74t-136 -28q-146 0 -236.5 114t-90.5 300q0 243 155 391.5
t410 148.5h158v-678q0 -92 26 -147t76 -55q73 0 121.5 117t48.5 288q0 302 -155 475.5t-414 173.5q-132 0 -243 -47.5t-188.5 -131t-121 -202t-43.5 -256.5q0 -149 50 -275t134 -209.5t195 -130t233 -46.5q148 0 291 70v-52q-186 -92 -369 -92zM831 195q45 0 96.5 15.5
t73.5 39.5v713q-166 0 -268 -128.5t-102 -332.5q0 -143 52 -225t148 -82z" />
    <glyph glyph-name="A" unicode="A" horiz-adv-x="1824" 
d="M98 0v31l154 82l493 1179l-120 281h323l631 -1458l147 -84v-31h-604v31l142 59l-183 432h-563l-182 -436l162 -55v-31h-400zM559 625h479l-241 569z" />
    <glyph glyph-name="B" unicode="B" horiz-adv-x="1507" 
d="M100 0v31l154 82v1347l-154 66v30h664q247 0 406 -109.5t159 -279.5q0 -76 -32 -142t-85.5 -111.5t-112.5 -77t-124 -50.5q84 -14 159 -45.5t136.5 -78t98 -113t36.5 -143.5q0 -86 -36.5 -158t-108.5 -128t-190 -88t-271 -32h-699zM551 829h160q148 0 239.5 82.5
t91.5 257.5q0 83 -23 140t-68 88t-101.5 44t-134.5 13h-101q-38 0 -50.5 -20.5t-12.5 -75.5v-529zM705 104h22q93 0 162.5 17t111 44.5t67.5 69t35 84.5t9 97q0 107 -55.5 178t-148 102t-218.5 31h-139v-502q0 -73 29.5 -97t124.5 -24z" />
    <glyph glyph-name="C" unicode="C" horiz-adv-x="1773" 
d="M918 -23q-156 0 -302 53.5t-260 150.5t-183 245.5t-69 325.5q0 235 117 423.5t318 293t446 104.5q93 0 176.5 -16.5t137 -38.5t96.5 -49t62 -44.5t26 -27.5v-455h-62q0 555 -454 555q-49 0 -94 -6t-99.5 -25t-100 -49t-89.5 -82t-74.5 -121t-49 -169t-18.5 -222
q4 -170 32 -301.5t75 -219.5t115 -144t146.5 -80.5t174.5 -24.5q458 0 637 563h51q-40 -140 -105.5 -254.5t-158 -201.5t-218 -135t-273.5 -48z" />
    <glyph glyph-name="D" unicode="D" horiz-adv-x="1740" 
d="M100 0v31l154 82v1347l-154 66v30h707q186 0 340.5 -50t268.5 -144.5t177.5 -241.5t63.5 -332q0 -134 -33 -251.5t-104 -216.5t-174.5 -170t-250.5 -110.5t-327 -39.5h-668zM684 61h66q167 0 297.5 93t203 259.5t72.5 379.5q0 322 -165.5 512t-448.5 190h-95
q-38 0 -50.5 -20.5t-12.5 -75.5v-1217q0 -73 26 -97t107 -24z" />
    <glyph glyph-name="E" unicode="E" horiz-adv-x="1347" 
d="M100 0v31l154 82v1347l-154 66v30h1055q5 -49 17 -101t29 -114t26 -102h-41l-174 221h-400q-39 0 -50 -22.5t-11 -69.5v-500h297l72 174h61v-448h-61l-72 174h-297v-563q0 -49 12 -70.5t49 -21.5h420l174 204h41q-12 -53 -29 -115t-27.5 -107t-14.5 -95h-1076z" />
    <glyph glyph-name="F" unicode="F" horiz-adv-x="1327" 
d="M100 0v31l154 82v1347l-154 66v30h1055q5 -49 17 -101t29 -114t26 -102h-41l-174 221h-400q-39 0 -50 -22.5t-11 -69.5v-500h297l72 174h61v-448h-61l-72 174h-297v-645l174 -92v-31h-625z" />
    <glyph glyph-name="G" unicode="G" horiz-adv-x="1681" 
d="M889 -23q-125 0 -244 35t-220 103.5t-177.5 162t-120 217.5t-43.5 263q0 175 69 328t185.5 259t275 167t334.5 61q87 0 169.5 -15t140 -37t103.5 -47.5t70 -45t31 -31.5v-455h-41q-4 269 -131 412t-358 143q-81 0 -150 -17t-137 -63.5t-116 -120t-77.5 -194.5t-29.5 -279
q0 -227 57 -399.5t171 -271.5t270 -99q165 0 280 101t115 249q0 128 -99 206t-298 93v41h651v-743h-43l-82 434q-47 -225 -189.5 -341t-365.5 -116z" />
    <glyph glyph-name="H" unicode="H" horiz-adv-x="1736" 
d="M1636 1526l-153 -66v-1347l153 -82v-31h-604v31l154 82v655h-635v-655l154 -82v-31h-605v31l154 82v1347l-154 66v30h605v-30l-154 -66v-590h635v590l-154 66v30h604v-30z" />
    <glyph glyph-name="I" unicode="I" horiz-adv-x="804" 
d="M100 0v31l154 82v1347l-154 66v30h605v-30l-154 -66v-1347l154 -82v-31h-605z" />
    <glyph glyph-name="J" unicode="J" horiz-adv-x="1191" 
d="M516 -23q-137 0 -231.5 45t-184.5 144l211 416h37q-33 -111 -46 -168t-13 -117q0 -122 50.5 -181t133.5 -59q40 0 68.5 15.5t53 56t36.5 120.5t12 200v1011l-154 66v30h605v-30l-154 -66v-1046q0 -74 -11 -134.5t-40 -118.5t-75.5 -97.5t-122 -63t-175.5 -23.5z" />
    <glyph glyph-name="K" unicode="K" horiz-adv-x="1597" 
d="M100 0v31l154 82v1347l-154 66v30h605v-30l-154 -66v-667l543 692l-152 41v30h399v-30l-170 -45l-403 -529l606 -874l146 -47v-31h-605v31l156 43l-473 657l-47 -61v-557l154 -82v-31h-605z" />
    <glyph glyph-name="L" unicode="L" horiz-adv-x="1224" 
d="M100 0v31l154 82v1347l-154 66v30h605v-30l-154 -66v-1255q0 -49 12 -70.5t49 -21.5h379l174 204h41q-12 -53 -29 -115t-27.5 -107t-14.5 -95h-1035z" />
    <glyph glyph-name="M" unicode="M" horiz-adv-x="1984" 
d="M100 0v31l154 82v1347l-154 66v30h453l448 -1179l455 1179h428v-30l-153 -66v-1347l153 -82v-31h-604v31l154 82v1159l-482 -1272h-123l-481 1272v-1159l152 -82v-31h-400z" />
    <glyph glyph-name="N" unicode="N" horiz-adv-x="1527" 
d="M100 0v31l154 82v1347l-154 66v30h269l813 -1001v905l-154 66v30h399v-30l-153 -66v-1460h-72l-854 1042v-929l152 -82v-31h-400z" />
    <glyph glyph-name="O" unicode="O" horiz-adv-x="1644" 
d="M795 -23q-143 0 -273.5 59.5t-227 162.5t-153.5 251t-57 316q0 177 62.5 330t166.5 256t239 162t279 59q146 0 279.5 -59.5t233 -162t158.5 -249t59 -311.5q0 -172 -64.5 -325.5t-171 -259.5t-245.5 -167.5t-285 -61.5zM877 53q176 0 253.5 161t77.5 474
q0 397 -111.5 603t-312.5 206q-57 0 -108.5 -22t-98.5 -72.5t-81 -125.5t-54 -187t-20 -250q0 -152 24 -281t66.5 -221t100 -157t124.5 -96.5t140 -31.5z" />
    <glyph glyph-name="P" unicode="P" horiz-adv-x="1431" 
d="M100 0v31l154 82v1347l-154 66v30h695q97 0 190 -25.5t171 -72.5t125.5 -124.5t47.5 -172.5q0 -99 -52 -182.5t-138.5 -137.5t-197 -84t-228.5 -30h-162v-614l154 -82v-31h-605zM551 829h131q168 0 264 82.5t96 241.5q0 71 -21 125t-54.5 86.5t-82 53.5t-97 28.5
t-105.5 7.5h-68q-38 0 -50.5 -20.5t-12.5 -75.5v-529z" />
    <glyph glyph-name="Q" unicode="Q" horiz-adv-x="1710" 
d="M1540 -23h31q-114 -278 -348 -278q-67 0 -132.5 23.5t-120.5 56.5t-111.5 66.5t-129 57t-151.5 23.5q-235 0 -342 -196h-41q39 87 133.5 171.5t218.5 123.5q-206 84 -334.5 282.5t-128.5 458.5q0 177 62.5 330t166.5 256t239 162t279 59q146 0 279.5 -59.5t233 -162
t158.5 -249t59 -311.5q0 -148 -47.5 -283t-129 -236.5t-190 -172.5t-231.5 -101q55 -21 142.5 -64t149.5 -66.5t111 -23.5q110 0 174 133zM784 1497q-57 0 -108.5 -22t-98.5 -72.5t-81 -125.5t-54 -187t-20 -250q0 -152 24 -281t66.5 -221t100 -157t124.5 -96.5t140 -31.5
q176 0 253.5 161t77.5 474q0 397 -111.5 603t-312.5 206z" />
    <glyph glyph-name="R" unicode="R" horiz-adv-x="1652" 
d="M1350 113l204 -82v-31h-645v31l146 59l-391 637h-113v-614l154 -82v-31h-605v31l154 82v1347l-154 66v30h695q97 0 190 -25.5t171 -72.5t125.5 -124.5t47.5 -172.5q0 -146 -105 -250t-274 -151zM551 1358v-529h131q168 0 264 82.5t96 241.5q0 71 -21 125t-54.5 86.5
t-82 53.5t-97 28.5t-105.5 7.5h-68q-38 0 -50.5 -20.5t-12.5 -75.5z" />
    <glyph glyph-name="S" unicode="S" horiz-adv-x="1333" 
d="M674 -23q-322 0 -574 240l154 399h61l-12 -135q-4 -50 -4 -73q0 -94 27.5 -163t78 -108.5t113 -58.5t139.5 -19q392 0 392 244q0 43 -10 75.5t-40.5 59.5t-57 44.5t-89.5 39t-107 34.5t-139 38q-218 59 -328 193.5t-110 322.5q0 115 41 205.5t111.5 145.5t159.5 83.5
t190 28.5q84 0 169 -18.5t149 -46.5t108.5 -54t68.5 -47l-118 -383h-62l6 98q10 182 -80.5 281.5t-259.5 99.5q-135 0 -222 -62t-87 -171q0 -52 23 -95t57.5 -71t87 -52t100 -39.5t108.5 -32.5q13 -3 19 -5q48 -14 76 -22.5t72 -23t70.5 -27t63.5 -31.5t60 -39t50 -46.5
t43.5 -57t31 -67t21 -81t6.5 -95.5q0 -125 -42 -223t-117 -159.5t-176 -93.5t-222 -32z" />
    <glyph glyph-name="T" unicode="T" horiz-adv-x="1521" 
d="M459 0v31l153 82v1276q0 41 -13 56t-48 15h-246l-153 -221h-52q12 54 29 115t28 106.5t15 95.5h1178q4 -50 14.5 -95t27.5 -107t29 -115h-51l-153 221h-246q-35 0 -48.5 -15t-13.5 -56v-1276l154 -82v-31h-604z" />
    <glyph glyph-name="U" unicode="U" horiz-adv-x="1630" 
d="M827 -23q-134 0 -235 30t-165 82t-104 131t-55.5 167.5t-15.5 200.5v872l-154 66v30h604v-30l-153 -66v-729q0 -93 2.5 -163t10 -143t21 -125t35.5 -99.5t52.5 -76.5t73.5 -46t98 -17q157 0 252 49t143.5 165.5t48.5 312.5v872l-153 66v30h399v-30l-154 -66v-872
q0 -146 -27 -254t-89 -190.5t-170.5 -124.5t-264.5 -42z" />
    <glyph glyph-name="V" unicode="V" horiz-adv-x="1824" 
d="M856 -16l-610 1458l-148 84v30h604v-30l-141 -60l447 -1104l481 1108l-162 56v30h399v-30l-153 -82l-514 -1180l121 -280h-324z" />
    <glyph glyph-name="W" unicode="W" horiz-adv-x="2326" 
d="M758 0l-490 1432l-170 94v30h625v-30l-127 -66l319 -930l293 1026h195l352 -1026l270 951l-196 65v31h399v-31l-125 -67l-436 -1479h-70l-413 1208l-357 -1208h-69z" />
    <glyph glyph-name="X" unicode="X" horiz-adv-x="1683" 
d="M156 0v31l149 55l410 643l-463 731l-152 66v30h584v-30l-143 -47l340 -527l327 518l-161 56v30h399v-30l-160 -72l-364 -567l518 -801l145 -55v-31h-604v31l143 55l-364 571l-359 -571l164 -55v-31h-409z" />
    <glyph glyph-name="Y" unicode="Y" horiz-adv-x="1644" 
d="M539 0v31l153 82v462l-424 885l-170 66v30h625v-30l-143 -47l370 -817l359 806l-183 58v30h420v-30l-160 -72l-397 -866v-475l154 -82v-31h-604z" />
    <glyph glyph-name="Z" unicode="Z" horiz-adv-x="1245" 
d="M111 0l-11 72l639 1388h-403l-174 -231h-41q12 58 39 160.5t33 166.5h860l10 -55l-631 -1388h498l174 204h41q-12 -54 -29 -115t-28 -106.5t-15 -95.5h-962z" />
    <glyph glyph-name="bracketleft" unicode="[" horiz-adv-x="565" 
d="M100 -123v1794h371v-51q-53 -5 -86 -10t-59 -12.5t-39 -15.5t-21 -23t-10 -30t-2 -42v-1426q0 -27 2 -42t10 -30t21 -23t39 -15.5t59 -12.5t86 -10v-51h-371z" />
    <glyph glyph-name="backslash" unicode="\" horiz-adv-x="1173" 
d="M1100 -244h-123l-903 1882h127z" />
    <glyph glyph-name="bracketright" unicode="]" horiz-adv-x="565" 
d="M94 -123v51q53 5 86 10t59 12.5t39 15.5t21 23t10 30t2 42v1426q0 27 -2 42t-10 30t-21 23t-39 15.5t-59 12.5t-86 10v51h371v-1794h-371z" />
    <glyph glyph-name="asciicircum" unicode="^" horiz-adv-x="768" 
d="M86 891q141 372 188 464.5t99 92.5q28 0 49.5 -19.5t52 -75t77.5 -161.5t119 -274q7 -18 11 -27h-41q-61 75 -93 116.5t-82.5 118t-92.5 156.5q-38 -80 -86 -158.5t-74 -115t-86 -117.5h-41z" />
    <glyph glyph-name="underscore" unicode="_" horiz-adv-x="1173" 
d="M143 -246v140h887v-140h-887z" />
    <glyph glyph-name="grave" unicode="`" horiz-adv-x="1228" 
d="M403 1178q-162 109 -260 199t-98 130q0 25 20 40.5t54 15.5q55 0 140.5 -106t170.5 -279h-27z" />
    <glyph glyph-name="a" unicode="a" horiz-adv-x="1097" 
d="M338 -23q-114 0 -187 74.5t-73 194.5q0 65 24.5 124t62 102t91.5 81t104.5 63t109.5 47t97.5 32.5t77.5 19.5v61q0 113 -40.5 173.5t-151.5 60.5q-89 0 -151 -41t-62 -129q0 -54 26 -113h-71l-103 213q44 60 163.5 114t268.5 54q170 0 269.5 -85t99.5 -271v-588l131 -41
v-62l-338 -61h-41v213q-9 -30 -31.5 -67t-59.5 -76.5t-94 -66t-122 -26.5zM449 98q46 0 83 29t59.5 75t34.5 81.5t19 70.5v289q-38 -13 -56 -19.5t-57.5 -24t-61 -33t-51.5 -43t-45.5 -57.5t-27.5 -72.5t-12 -92.5q0 -38 5.5 -72t18 -64.5t36 -48.5t55.5 -18z" />
    <glyph glyph-name="b" unicode="b" horiz-adv-x="1144" 
d="M369 1108q316 0 506 -166t190 -448q0 -226 -119.5 -371.5t-312.5 -145.5q-182 0 -314 152l-155 -129h-43v1501l-131 66v30l338 41h41v-530zM596 82q91 0 151 113.5t60 283.5q0 247 -121.5 392t-316.5 145v-842q45 -43 104.5 -67.5t122.5 -24.5z" />
    <glyph glyph-name="c" unicode="c" horiz-adv-x="1150" 
d="M610 -23q-231 0 -380.5 160t-149.5 414q0 251 150 404t395 153q120 0 215 -43.5t153 -116.5l-141 -350h-51q39 107 39 197q0 107 -55 168t-150 61q-140 0 -220.5 -128t-80.5 -341q0 -224 87 -359t232 -135q111 0 213.5 82t159.5 217h51q-58 -176 -177 -279.5t-290 -103.5
z" />
    <glyph glyph-name="d" unicode="d" horiz-adv-x="1124" 
d="M981 1638h41v-1638h-248q-312 0 -503 164t-191 432q0 230 115.5 371t304.5 141q144 0 274 -111v504l-131 66v30zM336 604q0 -239 120.5 -384.5t317.5 -147.5v841q-98 91 -225 91q-95 0 -154 -110t-59 -290z" />
    <glyph glyph-name="e" unicode="e" 
d="M588 -23q-224 0 -366 156.5t-142 407.5q0 257 139 412t369 155q202 0 326 -110.5t124 -321.5v-80h-696v-31q0 -227 94 -365.5t248 -138.5q116 0 215 80.5t158 218.5h51q-57 -170 -196.5 -276.5t-323.5 -106.5zM342 674h436q0 154 -56.5 248t-150.5 94q-103 0 -166 -94
t-63 -248z" />
    <glyph glyph-name="f" unicode="f" horiz-adv-x="798" 
d="M76 0v31l133 63v889h-131v92h131v92q0 228 100.5 367t284.5 139q48 0 90.5 -11t70.5 -25.5t56.5 -39.5t43 -41.5t34.5 -42.5l-129 -315h-64q27 96 27 172q0 77 -28 124.5t-85 47.5q-43 0 -74 -27.5t-47.5 -76t-24 -103.5t-7.5 -121v-139h260v-92h-260v-889l133 -63v-31
h-514z" />
    <glyph glyph-name="g" unicode="g" horiz-adv-x="1230" 
d="M817 1075l340 -41v-30l-133 -66v-836q0 -132 -45.5 -233.5t-127 -165t-189 -95.5t-236.5 -32l-258 252l43 37q105 -76 166.5 -107.5t130.5 -31.5q36 0 70 6.5t70.5 24.5t64 47t45 78t18.5 112q-81 -19 -149 -19q-153 0 -277.5 76.5t-196 213.5t-71.5 306q0 233 120 385
t300 152q134 0 274 -162v129h41zM350 571q0 -112 15.5 -204t48.5 -167t91.5 -117t137.5 -42q65 0 133 25v778q-121 160 -225 160q-90 0 -145.5 -120.5t-55.5 -312.5z" />
    <glyph glyph-name="h" unicode="h" horiz-adv-x="1292" 
d="M74 0v31l133 63v1407l-133 66v30l340 41h41v-716q47 79 126 132.5t191 53.5q60 0 113.5 -17t99.5 -52t73 -96.5t27 -141.5v-707l134 -63v-31h-494v31l113 63v604q0 172 -30.5 239t-111.5 67q-67 0 -130.5 -58t-110.5 -139v-713l112 -63v-31h-493z" />
    <glyph glyph-name="i" unicode="i" horiz-adv-x="663" 
d="M317 1251q-67 0 -110 45t-43 113q0 69 43 114.5t110 45.5t110.5 -45.5t43.5 -114.5q0 -68 -43.5 -113t-110.5 -45zM76 0v31l133 63v844l-133 66v30l340 41h41v-981l133 -63v-31h-514z" />
    <glyph glyph-name="j" unicode="j" horiz-adv-x="555" 
d="M328 1251q-69 0 -111.5 43.5t-42.5 114.5q0 72 42.5 116t111.5 44t111 -44t42 -116q0 -71 -42 -114.5t-111 -43.5zM68 -424l-199 254l41 37q68 -68 129.5 -107t93.5 -39q37 0 61.5 46.5t24.5 123.5v1047l-133 66v30l340 41h41v-788q0 -228 -57 -396q-52 -150 -140 -232.5
t-202 -82.5z" />
    <glyph glyph-name="k" unicode="k" horiz-adv-x="1271" 
d="M53 0v31l133 63v1407l-133 66v30l340 41h41v-1230l465 585l-149 51v31h399v-31l-188 -67l-226 -291l328 -612l135 -43v-31h-481v31l78 32l-220 418l-141 -180v-207l133 -63v-31h-514z" />
    <glyph glyph-name="l" unicode="l" horiz-adv-x="620" 
d="M53 0v31l133 63v1407l-133 66v30l340 41h41v-1544l133 -63v-31h-514z" />
    <glyph glyph-name="m" unicode="m" horiz-adv-x="1886" 
d="M1679 94l133 -63v-31h-493v31l113 63v604q0 172 -26.5 239t-90.5 67q-69 0 -135 -60.5t-123 -165.5v-684l133 -63v-31h-494v31l113 63v604q0 172 -26.5 239t-90.5 67q-68 0 -131.5 -55t-103.5 -134v-721l112 -63v-31h-493v31l133 63v844l-133 66v30l340 41h41v-153
q44 75 125.5 130.5t181.5 55.5t182.5 -58.5t104.5 -175.5q143 234 335 234q53 0 103 -17t93.5 -52t70 -96.5t26.5 -141.5v-707z" />
    <glyph glyph-name="n" unicode="n" horiz-adv-x="1294" 
d="M76 0v31l133 63v844l-133 66v30l340 41h41v-153q47 79 126 132.5t191 53.5q60 0 113.5 -17t99.5 -52t73 -96.5t27 -141.5v-707l134 -63v-31h-494v31l113 63v604q0 172 -31 239t-113 67q-71 0 -133.5 -53t-105.5 -136v-721l112 -63v-31h-493z" />
    <glyph glyph-name="o" unicode="o" horiz-adv-x="1245" 
d="M625 -23q-112 0 -206 37.5t-155.5 98t-104 138t-61 155.5t-18.5 153q0 61 13 123t39.5 124t71.5 116t104 96t141.5 66t179.5 24q116 0 210 -35t153.5 -90.5t99.5 -128.5t56.5 -144.5t16.5 -142.5q0 -72 -17 -148.5t-57.5 -157t-100.5 -142.5t-154.5 -102t-210.5 -40z
M653 61q67 0 123.5 66.5t88.5 176.5t32 237q0 128 -32.5 236t-99 177.5t-155.5 69.5q-122 0 -197 -123t-75 -307q0 -132 38 -253t112 -200.5t165 -79.5z" />
    <glyph glyph-name="p" unicode="p" horiz-adv-x="1230" 
d="M74 -410v31l133 64v1253l-133 66v30q240 42 351 58t181 16q114 0 212.5 -39t172.5 -111.5t116 -184.5t42 -249q0 -156 -51.5 -282.5t-146 -200.5t-214.5 -74q-149 0 -282 107v-389l133 -64v-31h-514zM666 72q99 0 162 121t63 299q0 146 -44.5 267.5t-120 190t-163.5 68.5
q-33 0 -108 -14v-842q39 -38 101.5 -64t109.5 -26z" />
    <glyph glyph-name="q" unicode="q" horiz-adv-x="1230" 
d="M643 -410v31l133 64v309q-81 -19 -149 -19q-113 0 -215 50.5t-174 133.5t-114 191t-42 221q0 233 120 385t300 152q134 0 274 -162v129h41l340 -41v-30l-133 -66v-1253l133 -64v-31h-514zM643 41q65 0 133 25v778q-121 160 -225 160q-91 0 -151 -121.5t-60 -311.5
q0 -76 10 -149t33.5 -143t58 -122t86.5 -84t115 -32z" />
    <glyph glyph-name="r" unicode="r" horiz-adv-x="946" 
d="M76 0v31l133 61v846l-133 66v30l360 41h21v-223h2q16 37 27.5 61t36.5 65t49.5 66t62 44.5t78.5 19.5q27 0 51.5 -8.5t40 -20t30.5 -29t22 -29t15 -27t9 -17.5l-119 -354h-41q12 136 12 172q0 66 -17.5 97.5t-58.5 31.5q-106 0 -200 -207v-623l133 -63v-31h-514z" />
    <glyph glyph-name="s" unicode="s" horiz-adv-x="946" 
d="M469 -23q-131 0 -236 47t-155 140l78 233h69q-6 -47 -6 -86q0 -72 20.5 -122t58.5 -75.5t80 -35.5t97 -10q125 0 178.5 45.5t53.5 117.5q0 62 -62.5 100t-202.5 72q-38 9 -75.5 23t-87.5 44.5t-87 69t-63.5 100.5t-26.5 136q0 152 99.5 242t265.5 90q108 0 198.5 -39
t145.5 -106l-66 -246h-51q0 150 -70 228.5t-180 78.5q-78 0 -136 -37.5t-58 -112.5q0 -29 9 -53t31 -43.5t42 -33.5t60 -29.5t66 -24t77 -24.5q43 -14 67 -22t58.5 -21t54 -23t45 -25.5t39 -31t29 -37t23 -45.5t12.5 -54.5t5 -66.5q0 -95 -31 -166t-86.5 -113.5t-126 -63
t-155.5 -20.5z" />
    <glyph glyph-name="t" unicode="t" horiz-adv-x="772" 
d="M436 -23q-112 0 -180 82t-68 217v707h-155v61q120 18 216 125t103 254h82v-348h271v-92h-271v-737q0 -78 33.5 -126t87.5 -48q31 0 63.5 23t55.5 61h65q-44 -80 -127.5 -129.5t-175.5 -49.5z" />
    <glyph glyph-name="u" unicode="u" horiz-adv-x="1251" 
d="M500 -33q-62 0 -113 17t-92.5 52t-64.5 95.5t-23 142.5v664l-133 66v30l340 41h41v-760q0 -81 9.5 -133t27.5 -74.5t34.5 -29t40.5 -6.5q77 0 127.5 50t102.5 179v637l-133 66v30l340 41h40v-938l134 -65v-31l-340 -41h-41v174q-87 -207 -297 -207z" />
    <glyph glyph-name="v" unicode="v" horiz-adv-x="1359" 
d="M623 0l-394 985l-155 59v31h542v-31l-135 -51l285 -723l266 736l-145 38v31h399v-31l-176 -45l-365 -999h-122z" />
    <glyph glyph-name="w" unicode="w" horiz-adv-x="1908" 
d="M549 0l-316 983l-159 61v31h542v-31l-116 -45l233 -680l195 756h227l252 -756l176 687l-147 38v31h399v-31l-176 -43l-273 -1001h-163l-277 860l-233 -860h-164z" />
    <glyph glyph-name="x" unicode="x" horiz-adv-x="1306" 
d="M96 0v31l146 49h2l291 412l-322 499l-139 53v31h542v-31l-120 -45l192 -297l213 297l-160 45v31h379v-31l-143 -49l-250 -352l363 -557l143 -55v-31h-543v31l115 43l-230 356l-258 -354l158 -45v-31h-379z" />
    <glyph glyph-name="y" unicode="y" horiz-adv-x="1355" 
d="M330 -422l-256 252l41 37q53 -38 85.5 -59.5t76.5 -40.5t79 -19q89 0 171.5 90t82.5 182l-387 979l-149 45v31h542v-31l-139 -45l289 -729l266 736l-145 38v31h399v-31l-176 -45l-309 -858q-34 -92 -83 -186t-110.5 -181t-135 -141.5t-142.5 -54.5z" />
    <glyph glyph-name="z" unicode="z" horiz-adv-x="999" 
d="M862 317h62q-12 -54 -29 -115t-28 -106.5t-15 -95.5h-768l-10 41l491 952h-241l-154 -245h-61q11 55 38 159t33 168h686l11 -41l-492 -952h324z" />
    <glyph glyph-name="braceleft" unicode="{" horiz-adv-x="647" 
d="M489 -123q-164 0 -237.5 72t-73.5 215v360q0 84 -22 124t-56 40h-6v172h6q34 0 56 40t22 124v360q0 143 73.5 215t237.5 72h58v-51h-45q-50 0 -85.5 -28t-53 -75t-25.5 -97t-8 -107v-289q0 -110 -24 -166t-85 -74v-20q61 -15 85 -70.5t24 -169.5v-288q0 -57 8 -107
t25.5 -97.5t53 -75.5t85.5 -28h45v-51h-58z" />
    <glyph glyph-name="bar" unicode="|" horiz-adv-x="854" 
d="M125 -410v62l154 72v1761l-154 92v61h604v-61l-154 -92v-1761l154 -72v-62h-604z" />
    <glyph glyph-name="braceright" unicode="}" horiz-adv-x="641" 
d="M94 -123v51h45q50 0 85.5 28t53 75.5t25.5 97.5t8 107v288q0 114 24 169.5t85 70.5v20q-61 18 -85 74t-24 166v289q0 57 -8 107t-25.5 97t-53 75t-85.5 28h-45v51h58q164 0 237.5 -72t73.5 -215v-360q0 -84 22 -124t56 -40h6v-172h-6q-34 0 -56 -40t-22 -124v-360
q0 -143 -73.5 -215t-237.5 -72h-58z" />
    <glyph glyph-name="asciitilde" unicode="~" horiz-adv-x="1011" 
d="M664 444q-55 0 -105.5 23t-82.5 50t-72 50t-76 23q-20 0 -41.5 -7t-43 -21.5t-36.5 -43t-17 -67.5h-61q2 128 58.5 212.5t158.5 84.5q48 0 96.5 -23t82 -50t78.5 -50t89 -23q53 0 89.5 31.5t39.5 107.5h62q-5 -138 -57.5 -217.5t-161.5 -79.5z" />
    <glyph glyph-name="exclamdown" unicode="&#xa1;" horiz-adv-x="499" 
d="M250 1638q60 0 97.5 -38t37.5 -95q0 -58 -38 -97.5t-97 -39.5t-97 39.5t-38 97.5q0 57 37.5 95t97.5 38zM221 1231h58q9 -164 30 -612t21 -496q0 -87 -18 -116.5t-62 -29.5t-62 29.5t-18 116.5q0 48 21 496t30 612z" />
    <glyph glyph-name="cent" unicode="&#xa2;" horiz-adv-x="1277" 
d="M1143 637q-49 -155 -159 -257.5t-245 -121.5v-258h-133v258q-213 23 -340 167.5t-127 365.5q0 216 126.5 359.5t340.5 172.5v315h133v-307q105 -6 198 -49.5t142 -110.5l-141 -350h-51q37 104 37 189q0 111 -62 174t-176 63q-140 0 -224.5 -111t-84.5 -294
q0 -226 93 -365t243 -139q114 0 218 82t161 217h51z" />
    <glyph glyph-name="sterling" unicode="&#xa3;" horiz-adv-x="1150" 
d="M1016 317h41q-12 -54 -29 -115t-28 -106.5t-15 -95.5h-993v61q187 33 281 140t94 268q0 100 -35 219h-289v127h242q-32 87 -50 142t-36.5 140.5t-18.5 151.5q0 145 81.5 234.5t246.5 89.5q80 0 148.5 -20t111 -50.5t63 -50t31.5 -35.5v-352h-61q0 113 -20 195.5
t-56 128.5t-80 67t-98 21q-77 0 -106 -45.5t-29 -149.5q0 -107 25.5 -201t92.5 -266h338v-127h-293q29 -110 29 -192q0 -129 -55 -227t-162 -148v-10l455 2z" />
    <glyph glyph-name="currency" unicode="&#xa4;" horiz-adv-x="1261" 
d="M1087 772q0 -185 -110 -301l149 -178l-96 -86l-158 188q-94 -49 -221 -49q-141 0 -252 62l-168 -201l-96 86l166 196q-94 108 -94 269q0 183 119 299l-191 225l98 84l199 -236q102 48 227 48q107 0 183 -33l186 221l98 -84l-172 -203q133 -114 133 -307zM678 430
q72 0 117 86t45 227q0 158 -55 254.5t-146 96.5q-88 0 -141.5 -83t-53.5 -218q0 -163 65 -263t169 -100z" />
    <glyph glyph-name="yen" unicode="&#xa5;" horiz-adv-x="1527" 
d="M993 1556h400v-30l-162 -72l-311 -733h258v-127h-281v-119h281v-127h-281v-235l154 -72v-41h-557v41l153 72v235h-295v127h295v119h-295v127h264l-329 739l-152 66v30h537v-30l-137 -47l323 -758l307 747l-172 58v30z" />
    <glyph glyph-name="brokenbar" unicode="&#xa6;" horiz-adv-x="866" 
d="M131 778v62l154 71v574l-154 92v61h604v-61l-153 -92v-574l153 -71v-62h-604zM131 -410v62l154 72v573l-154 92v62h604v-62l-153 -92v-573l153 -72v-62h-604z" />
    <glyph glyph-name="section" unicode="&#xa7;" horiz-adv-x="1046" 
d="M516 -23q-131 0 -236 47t-155 140l78 233h69q-6 -47 -6 -86q0 -72 20.5 -122t58.5 -75.5t80 -35.5t97 -10q125 0 178.5 45.5t53.5 117.5q0 62 -62.5 100t-202.5 72q-38 9 -75.5 23t-87.5 44.5t-87 69t-63 100.5t-26 136q0 147 92 236q-92 89 -92 231q0 152 99 242t265 90
q108 0 198.5 -39t145.5 -106l-65 -246h-52q0 150 -69.5 228.5t-179.5 78.5q-78 0 -136.5 -37.5t-58.5 -112.5q0 -29 9 -53t31 -43.5t42 -33.5t60 -29.5t66 -24t77 -24.5q43 -14 67 -22t58.5 -21t54 -23t45 -25.5t39 -31t29 -37t23 -45.5t12.5 -54.5t5 -66.5
q0 -167 -100 -264q100 -71 100 -203q0 -95 -31 -166t-86.5 -113.5t-126 -63t-155.5 -20.5zM717 596q37 40 37 102q0 129 -265 193q-102 24 -167 61q-25 -31 -25 -78q0 -57 40.5 -102t98 -72.5t146.5 -54.5q90 -28 135 -49z" />
    <glyph glyph-name="dieresis" unicode="&#xa8;" horiz-adv-x="1228" 
d="M211 1219q-61 0 -99 37.5t-38 95.5q0 59 38 99t99 40q59 0 97 -40t38 -99q0 -58 -38 -95.5t-97 -37.5zM602 1219q-61 0 -99 37.5t-38 95.5q0 59 38 99t99 40q59 0 97 -40t38 -99q0 -58 -37.5 -95.5t-97.5 -37.5z" />
    <glyph glyph-name="copyright" unicode="&#xa9;" horiz-adv-x="1845" 
d="M924 -61q-171 0 -325.5 66t-266 177.5t-177 265.5t-65.5 324t65.5 324t177 265.5t266 177t325.5 65.5q170 0 324 -65.5t265 -177t176.5 -265.5t65.5 -324q0 -227 -111 -418.5t-302 -303t-418 -111.5zM924 70q142 0 267 55.5t213 149.5t138.5 223.5t50.5 273.5
q0 143 -50.5 272.5t-138.5 223.5t-213 149.5t-267 55.5q-143 0 -268.5 -55.5t-213.5 -149.5t-139 -223.5t-51 -272.5q0 -193 86 -353.5t240.5 -254.5t345.5 -94zM938 295q-212 0 -341.5 129t-129.5 340q0 218 134.5 351.5t354.5 133.5q102 0 195.5 -43.5t144.5 -115.5
l-120 -351h-52q65 183 13 294.5t-201 111.5q-123 0 -197.5 -93t-74.5 -247q0 -176 81 -291t211 -115q110 0 215.5 79.5t167.5 199.5h41q-53 -172 -174 -277.5t-268 -105.5z" />
    <glyph glyph-name="ordfeminine" unicode="&#xaa;" horiz-adv-x="780" 
d="M682 829l106 -12v-37l-200 -49h-45v195q-39 -100 -113.5 -156.5t-161.5 -56.5q-93 0 -153 58.5t-60 148.5q0 132 134.5 229.5t353.5 130.5v43q0 170 -183 170q-67 0 -113 -37.5t-46 -130.5q0 -50 10 -94h-61l-80 209q44 62 126 98.5t177 36.5q146 0 227.5 -74t81.5 -219
v-453zM334 821q58 0 116 53t93 132v202q-131 -8 -215 -78.5t-84 -185.5q0 -60 24 -91.5t66 -31.5z" />
    <glyph glyph-name="guillemotleft" unicode="&#xab;" horiz-adv-x="987" 
d="M496 145l-402 361v53l402 359h61q-34 -48 -134.5 -180.5t-146.5 -205.5q46 -73 147 -206.5t134 -180.5h-61zM829 145l-401 361v53l401 359h62q-34 -48 -134.5 -180.5t-146.5 -205.5q46 -73 147 -206.5t134 -180.5h-62z" />
    <glyph glyph-name="logicalnot" unicode="&#xac;" horiz-adv-x="1001" 
d="M745 233v310h-616v127h743v-437h-127z" />
    <glyph glyph-name="uni00AD" unicode="&#xad;" horiz-adv-x="722" 
d="M102 506v139h519v-139h-519z" />
    <glyph glyph-name="registered" unicode="&#xae;" horiz-adv-x="1316" 
d="M659 506q-144 0 -265.5 70.5t-192 192t-70.5 265.5q0 218 154.5 372.5t373.5 154.5q143 0 264.5 -70.5t192 -192t70.5 -264.5q0 -144 -70.5 -265.5t-192 -192t-264.5 -70.5zM659 596q180 0 308.5 128.5t128.5 309.5q0 180 -128.5 308t-308.5 128q-181 0 -309.5 -128
t-128.5 -308q0 -182 128.5 -310t309.5 -128zM408 743v27l59 31v477l-59 45v29h292q75 0 121.5 -41.5t46.5 -108.5q0 -75 -39 -120.5t-102 -45.5l109 -231l67 -35v-27h-209v27l37 18l-100 248h-58v-235l45 -31v-27h-210zM573 1110h68q55 0 89 25.5t34 66.5q0 37 -34 59.5
t-89 22.5h-43q-11 0 -18 -10t-7 -27v-137z" />
    <glyph glyph-name="macron" unicode="&#xaf;" horiz-adv-x="1228" 
d="M102 1335v119h580v-119h-580z" />
    <glyph glyph-name="degree" unicode="&#xb0;" horiz-adv-x="653" 
d="M328 1124q-79 0 -136 57.5t-57 135.5t57 134t136 56q77 0 133.5 -56t56.5 -134t-56.5 -135.5t-133.5 -57.5zM328 1212q41 0 71.5 31t30.5 74q0 42 -30 72t-72 30q-44 0 -74.5 -29.5t-30.5 -72.5t30.5 -74t74.5 -31z" />
    <glyph glyph-name="plusminus" unicode="&#xb1;" horiz-adv-x="980" 
d="M555 635h297v-127h-297v-297h-127v297h-299v127h299v299h127v-299zM129 0v127h723v-127h-723z" />
    <glyph glyph-name="uni00B2" unicode="&#xb2;" horiz-adv-x="718" 
d="M47 827v41q158 69 267.5 219t109.5 312q0 85 -32 133.5t-91 48.5q-65 0 -112.5 -59.5t-47.5 -159.5v-123h-37l-45 215q32 79 105 135t180 56q32 0 63.5 -5t68 -21t63.5 -41.5t45 -70t18 -102.5q0 -148 -104 -279q-41 -51 -96.5 -98t-114 -86.5t-60.5 -40.5h334l92 125h33
q-11 -37 -25.5 -81t-20.5 -67t-9 -51h-584z" />
    <glyph glyph-name="uni00B3" unicode="&#xb3;" horiz-adv-x="696" 
d="M426 1260q103 0 163 -50t60 -137q0 -117 -93 -187.5t-247 -70.5q-98 0 -170 35.5t-92 93.5l43 168h33v-92q0 -64 54.5 -110t139.5 -46q78 0 126.5 57t48.5 150q0 68 -31.5 109t-83.5 41q-35 0 -144 -37v41l37 16q74 33 119 94.5t45 132.5q0 56 -32.5 89.5t-86.5 33.5
q-69 0 -113 -52.5t-44 -125.5v-84h-23l-65 170q43 66 113.5 106t142.5 40q120 0 193 -45t73 -119q0 -58 -64.5 -121.5t-167.5 -106.5q40 7 66 7z" />
    <glyph glyph-name="acute" unicode="&#xb4;" horiz-adv-x="1228" 
d="M45 1178q88 179 171.5 282t145.5 103q26 0 47 -15.5t21 -36.5q0 -44 -97 -133t-261 -200h-27z" />
    <glyph glyph-name="uni00B5" unicode="&#xb5;" horiz-adv-x="1251" 
d="M74 -389v31l133 63v1233l-133 66v30l340 41h41v-760q0 -81 9.5 -133t27.5 -74.5t34.5 -29t40.5 -6.5q77 0 127.5 50t102.5 179v637l-133 66v30l340 41h40v-938l134 -65v-31l-340 -41h-41v174q-87 -207 -297 -207q-31 0 -45 2v-264l133 -63v-31h-514z" />
    <glyph glyph-name="paragraph" unicode="&#xb6;" horiz-adv-x="1767" 
d="M569 0v31l154 82v614h-80q-143 0 -258.5 50.5t-185.5 150.5t-70 233q0 128 70.5 219t184.5 133.5t259 42.5h999v-30l-153 -66v-1347l153 -82v-31h-1073zM1020 113h172v1347h-172v-1347z" />
    <glyph glyph-name="periodcentered" unicode="&#xb7;" horiz-adv-x="450" 
d="M264 428q-60 0 -97.5 38t-37.5 95q0 58 38 97.5t97 39.5t97 -39.5t38 -97.5q0 -57 -37.5 -95t-97.5 -38z" />
    <glyph glyph-name="cedilla" unicode="&#xb8;" horiz-adv-x="1228" 
d="M195 -418q-58 0 -119 35v31q52 -21 96 -21q113 0 113 88q0 43 -39 75t-111 32v39l94 166h56l-82 -144q79 0 127.5 -38.5t48.5 -94.5q0 -63 -48.5 -115.5t-135.5 -52.5z" />
    <glyph glyph-name="uni00B9" unicode="&#xb9;" horiz-adv-x="526" 
d="M96 827v21l109 41v649l-158 -164v41l150 221h262v-30l-88 -19v-698l108 -41v-21h-383z" />
    <glyph glyph-name="ordmasculine" unicode="&#xba;" horiz-adv-x="946" 
d="M477 713q-92 0 -173 41t-133.5 105t-83 138.5t-30.5 143.5q0 58 18 118t54 116.5t86 101t119.5 71.5t148.5 27q74 0 140 -26.5t113.5 -70.5t82.5 -99.5t52.5 -113.5t17.5 -112q0 -55 -17.5 -115t-53 -118t-83.5 -104t-115.5 -74.5t-142.5 -28.5zM498 805q93 0 140.5 94
t47.5 229q0 66 -11.5 126t-36 113t-68.5 84.5t-103 31.5q-47 0 -84.5 -17.5t-61.5 -46.5t-40 -70t-22.5 -85t-6.5 -95q0 -64 14.5 -126t43 -116.5t77.5 -88t111 -33.5z" />
    <glyph glyph-name="guillemotright" unicode="&#xbb;" horiz-adv-x="987" 
d="M96 145q33 47 134 180.5t147 206.5q-46 73 -146.5 205.5t-134.5 180.5h62l401 -359v-53l-401 -361h-62zM430 145q33 47 134 180.5t147 206.5q-46 73 -146.5 205.5t-134.5 180.5h62l401 -359v-53l-401 -361h-62z" />
    <glyph glyph-name="onequarter" unicode="&#xbc;" horiz-adv-x="1605" 
d="M96 827v21l109 41v649l-158 -164v41l150 221h262v-30l-88 -19v-698l108 -41v-21h-383zM178 0l1082 1556h126l-1085 -1556h-123zM1174 0v20l108 41v142h-360v30l350 576h264v-31l-88 -18v-469l111 -58v-30h-111v-142l108 -41v-20h-382zM1026 264h225q17 0 24 5t7 22v399z
" />
    <glyph glyph-name="onehalf" unicode="&#xbd;" horiz-adv-x="1675" 
d="M96 827v21l109 41v649l-158 -164v41l150 221h262v-30l-88 -19v-698l108 -41v-21h-383zM178 0l1082 1556h126l-1085 -1556h-123zM1004 0v41q158 69 267 218.5t109 311.5q0 85 -32 134t-91 49q-65 0 -112 -59.5t-47 -159.5v-123h-37l-45 215q32 79 104.5 134.5t179.5 55.5
q32 0 63.5 -5t68 -21t63.5 -41t45.5 -69.5t18.5 -102.5q0 -146 -105 -279q-41 -51 -96.5 -98t-114 -86.5t-59.5 -40.5h334l92 125h32q-11 -37 -25.5 -81t-20.5 -67t-9 -51h-583z" />
    <glyph glyph-name="threequarters" unicode="&#xbe;" horiz-adv-x="1714" 
d="M649 1073q0 -117 -93 -187.5t-247 -70.5q-98 0 -170 35.5t-92 93.5l43 168h33v-92q0 -64 54.5 -110t139.5 -46q78 0 126.5 57t48.5 150q0 68 -31.5 109t-83.5 41q-35 0 -144 -37v41l37 16q74 33 119 94.5t45 132.5q0 56 -32.5 89.5t-86.5 33.5q-69 0 -113 -52.5
t-44 -125.5v-84h-23l-65 170q43 66 113.5 106t142.5 40q120 0 193 -45t73 -119q0 -58 -64.5 -121.5t-167.5 -106.5q40 7 66 7q103 0 163 -50t60 -137zM1368 1556h127l-1085 -1556h-123zM1667 203h-111v-142l109 -41v-20h-383v20l109 41v142h-361v30l350 576h265v-31l-89 -18
v-469l111 -58v-30zM1391 291v399l-256 -426h225q17 0 24 5t7 22z" />
    <glyph glyph-name="questiondown" unicode="&#xbf;" horiz-adv-x="1071" 
d="M639 1669q59 0 97 -37.5t38 -95.5t-38 -97.5t-97 -39.5t-97 39.5t-38 97.5t38 95.5t97 37.5zM680 1298q12 -67 12 -124q0 -59 -7 -102t-30.5 -91t-47 -84t-75.5 -109q-93 -130 -136.5 -226t-43.5 -224q0 -145 55.5 -210t137.5 -65q95 0 165 80t93 212t-12 302h51
l114 -413q-40 -115 -150.5 -191t-283.5 -76q-59 0 -111.5 9t-107.5 35t-94.5 66.5t-64.5 109t-25 157.5q0 189 129 361q45 61 105.5 119.5t102.5 97t81.5 88t60 118t20.5 160.5h62z" />
    <glyph glyph-name="Agrave" unicode="&#xc0;" horiz-adv-x="1824" 
d="M864 1659q-161 109 -259.5 199.5t-98.5 130.5q0 25 20 40t54 15q55 0 140.5 -106t170.5 -279h-27zM98 0v31l154 82l493 1179l-120 281h323l631 -1458l147 -84v-31h-604v31l142 59l-183 432h-563l-182 -436l162 -55v-31h-400zM559 625h479l-241 569z" />
    <glyph glyph-name="Aacute" unicode="&#xc1;" horiz-adv-x="1824" 
d="M721 1659q88 179 171.5 282t145.5 103q26 0 47 -15t21 -36q0 -44 -97 -134t-261 -200h-27zM98 0v31l154 82l493 1179l-120 281h323l631 -1458l147 -84v-31h-604v31l142 59l-183 432h-563l-182 -436l162 -55v-31h-400zM559 625h479l-241 569z" />
    <glyph glyph-name="Acircumflex" unicode="&#xc2;" horiz-adv-x="1824" 
d="M573 1659q14 27 38 76q100 199 137 254t83 55q47 0 84 -56t137 -258q22 -46 35 -71h-36l-220 239l-221 -239h-37zM98 0v31l154 82l493 1179l-120 281h323l631 -1458l147 -84v-31h-604v31l142 59l-183 432h-563l-182 -436l162 -55v-31h-400zM559 625h479l-241 569z" />
    <glyph glyph-name="Atilde" unicode="&#xc3;" horiz-adv-x="1824" 
d="M530 1731q11 100 58 157.5t129 57.5q34 0 68.5 -16t57.5 -34.5t53 -34.5t56 -16q41 0 67 21.5t42 79.5h47q-11 -101 -58 -158t-130 -57q-44 0 -85.5 25t-78.5 50t-70 25q-41 0 -66.5 -21t-41.5 -79h-48zM98 0v31l154 82l493 1179l-120 281h323l631 -1458l147 -84v-31
h-604v31l142 59l-183 432h-563l-182 -436l162 -55v-31h-400zM559 625h479l-241 569z" />
    <glyph glyph-name="Adieresis" unicode="&#xc4;" horiz-adv-x="1824" 
d="M616 1700q-61 0 -99 37.5t-38 95.5q0 59 38 99t99 40q59 0 97.5 -40t38.5 -99q0 -57 -38 -95t-98 -38zM1008 1700q-61 0 -99.5 37.5t-38.5 95.5q0 59 38.5 99t99.5 40q59 0 97 -40t38 -99q0 -57 -37.5 -95t-97.5 -38zM98 0v31l154 82l493 1179l-120 281h323l631 -1458
l147 -84v-31h-604v31l142 59l-183 432h-563l-182 -436l162 -55v-31h-400zM559 625h479l-241 569z" />
    <glyph glyph-name="Aring" unicode="&#xc5;" horiz-adv-x="1824" 
d="M819 1659q-78 0 -134 56.5t-56 133.5t56 133t134 56q75 0 132 -56.5t57 -132.5t-57 -133t-132 -57zM819 1739q43 0 76 33t33 77q0 45 -33 77t-76 32q-45 0 -77.5 -32t-32.5 -77t32.5 -77.5t77.5 -32.5zM98 0v31l154 82l493 1179l-120 281h323l631 -1458l147 -84v-31h-604
v31l142 59l-183 432h-563l-182 -436l162 -55v-31h-400zM559 625h479l-241 569z" />
    <glyph glyph-name="AE" unicode="&#xc6;" horiz-adv-x="2064" 
d="M98 0v31l166 82l719 1368l-104 45v30h993q5 -49 17 -101t29 -114t26 -102h-41l-174 221h-338q-39 0 -50.5 -22.5t-11.5 -69.5v-500h236l71 174h62v-448h-62l-71 174h-236v-563q0 -49 12.5 -70.5t49.5 -21.5h358l174 204h41q-12 -54 -29 -115t-28 -106.5t-15 -95.5h-1013
v31l153 82v491h-409l-269 -518l174 -55v-31h-430zM676 707h356v690z" />
    <glyph glyph-name="Ccedilla" unicode="&#xc7;" horiz-adv-x="1773" 
d="M1673 616q-51 -178 -141 -313t-232 -222.5t-321 -100.5l-55 -97q79 0 127.5 -38.5t48.5 -94.5q0 -63 -49 -115.5t-136 -52.5q-57 0 -118 35v31q53 -21 96 -21q113 0 113 88q0 43 -39 75t-111 32v39l66 116h-4q-156 0 -302 53.5t-260 150.5t-183 245.5t-69 325.5
q0 235 117 423.5t318 293t446 104.5q93 0 176.5 -16.5t137 -38.5t96.5 -49t62 -44.5t26 -27.5v-455h-62q0 555 -454 555q-49 0 -94 -6t-99.5 -25t-100 -49t-89.5 -82t-74.5 -121t-49 -169t-18.5 -222q4 -170 32 -301.5t75 -219.5t115 -144t146.5 -80.5t174.5 -24.5
q458 0 637 563h51z" />
    <glyph glyph-name="Egrave" unicode="&#xc8;" horiz-adv-x="1347" 
d="M748 1710q-162 109 -260.5 199.5t-98.5 130.5q0 25 20 40t54 15q55 0 140.5 -106t170.5 -279h-26zM100 0v31l154 82v1347l-154 66v30h1055q5 -49 17 -101t29 -114t26 -102h-41l-174 221h-400q-39 0 -50 -22.5t-11 -69.5v-500h297l72 174h61v-448h-61l-72 174h-297v-563
q0 -49 12 -70.5t49 -21.5h420l174 204h41q-12 -53 -29 -115t-27.5 -107t-14.5 -95h-1076z" />
    <glyph glyph-name="Eacute" unicode="&#xc9;" horiz-adv-x="1347" 
d="M532 1659q88 178 172 281.5t146 103.5q26 0 47 -15t21 -36q0 -44 -97.5 -133.5t-261.5 -200.5h-27zM100 0v31l154 82v1347l-154 66v30h1055q5 -49 17 -101t29 -114t26 -102h-41l-174 221h-400q-39 0 -50 -22.5t-11 -69.5v-500h297l72 174h61v-448h-61l-72 174h-297v-563
q0 -49 12 -70.5t49 -21.5h420l174 204h41q-12 -53 -29 -115t-27.5 -107t-14.5 -95h-1076z" />
    <glyph glyph-name="Ecircumflex" unicode="&#xca;" horiz-adv-x="1347" 
d="M446 1659q12 24 33 67q109 216 142 263q42 54 84 55q47 0 84 -56t137 -258q22 -46 35 -71h-37l-219 239l-222 -239h-37zM100 0v31l154 82v1347l-154 66v30h1055q5 -49 17 -101t29 -114t26 -102h-41l-174 221h-400q-39 0 -50 -22.5t-11 -69.5v-500h297l72 174h61v-448h-61
l-72 174h-297v-563q0 -49 12 -70.5t49 -21.5h420l174 204h41q-12 -53 -29 -115t-27.5 -107t-14.5 -95h-1076z" />
    <glyph glyph-name="Edieresis" unicode="&#xcb;" horiz-adv-x="1347" 
d="M469 1700q-61 0 -99 37.5t-38 95.5q0 59 38 99t99 40q59 0 97 -40t38 -99q0 -57 -38 -95t-97 -38zM860 1700q-61 0 -99 37.5t-38 95.5q0 59 38 99t99 40q59 0 97 -40t38 -99q0 -57 -37.5 -95t-97.5 -38zM100 0v31l154 82v1347l-154 66v30h1055q5 -49 17 -101t29 -114
t26 -102h-41l-174 221h-400q-39 0 -50 -22.5t-11 -69.5v-500h297l72 174h61v-448h-61l-72 174h-297v-563q0 -49 12 -70.5t49 -21.5h420l174 204h41q-12 -53 -29 -115t-27.5 -107t-14.5 -95h-1076z" />
    <glyph glyph-name="Igrave" unicode="&#xcc;" horiz-adv-x="804" 
d="M467 1659q-161 109 -259.5 199.5t-98.5 130.5q0 25 19.5 40t53.5 15q56 0 141.5 -106t170.5 -279h-27zM100 0v31l154 82v1347l-154 66v30h605v-30l-154 -66v-1347l154 -82v-31h-605z" />
    <glyph glyph-name="Iacute" unicode="&#xcd;" horiz-adv-x="804" 
d="M297 1659q88 179 171.5 282t145.5 103q26 0 47 -15t21 -36q0 -44 -97 -134t-261 -200h-27zM100 0v31l154 82v1347l-154 66v30h605v-30l-154 -66v-1347l154 -82v-31h-605z" />
    <glyph glyph-name="Icircumflex" unicode="&#xce;" horiz-adv-x="804" 
d="M145 1659q14 27 38 76q100 199 137 254t83 55q47 0 84 -56t137 -258q22 -46 35 -71h-36l-220 239l-221 -239h-37zM100 0v31l154 82v1347l-154 66v30h605v-30l-154 -66v-1347l154 -82v-31h-605z" />
    <glyph glyph-name="Idieresis" unicode="&#xcf;" horiz-adv-x="804" 
d="M209 1700q-61 0 -99 37.5t-38 95.5q0 59 38 99t99 40q59 0 97 -40t38 -99q0 -57 -38 -95t-97 -38zM600 1700q-61 0 -99 37.5t-38 95.5q0 59 38 99t99 40q59 0 97 -40t38 -99q0 -57 -37.5 -95t-97.5 -38zM100 0v31l154 82v1347l-154 66v30h605v-30l-154 -66v-1347l154 -82
v-31h-605z" />
    <glyph glyph-name="Eth" unicode="&#xd0;" horiz-adv-x="1710" 
d="M776 1556q186 0 340.5 -50t268.5 -144.5t177.5 -241.5t63.5 -332q0 -134 -33 -251.5t-104 -216.5t-174.5 -170t-250.5 -110.5t-327 -39.5h-667v31l153 82v606h-168v119h168v622l-153 66v30h706zM719 61q167 0 297.5 93t203 259.5t72.5 379.5q0 322 -165.5 512t-448.5 190
h-94q-38 0 -51 -20.5t-13 -75.5v-561h176v-119h-176v-537q0 -73 26 -97t107 -24h66z" />
    <glyph glyph-name="Ntilde" unicode="&#xd1;" horiz-adv-x="1527" 
d="M475 1731q11 100 58 157.5t129 57.5q34 0 68.5 -16t57.5 -34.5t53 -34.5t56 -16q41 0 67 21.5t42 79.5h47q-11 -101 -58.5 -158t-130.5 -57q-44 0 -85.5 25t-78 50t-69.5 25q-42 0 -67.5 -21t-41.5 -79h-47zM100 0v31l154 82v1347l-154 66v30h269l813 -1001v905l-154 66
v30h399v-30l-153 -66v-1460h-72l-854 1042v-929l152 -82v-31h-400z" />
    <glyph glyph-name="Ograve" unicode="&#xd2;" horiz-adv-x="1644" 
d="M887 1659q-162 109 -260.5 199.5t-98.5 130.5q0 25 20 40t54 15q55 0 140.5 -106t170.5 -279h-26zM795 -23q-143 0 -273.5 59.5t-227 162.5t-153.5 251t-57 316q0 177 62.5 330t166.5 256t239 162t279 59q146 0 279.5 -59.5t233 -162t158.5 -249t59 -311.5
q0 -172 -64.5 -325.5t-171 -259.5t-245.5 -167.5t-285 -61.5zM877 53q176 0 253.5 161t77.5 474q0 397 -111.5 603t-312.5 206q-57 0 -108.5 -22t-98.5 -72.5t-81 -125.5t-54 -187t-20 -250q0 -152 24 -281t66.5 -221t100 -157t124.5 -96.5t140 -31.5z" />
    <glyph glyph-name="Oacute" unicode="&#xd3;" horiz-adv-x="1644" 
d="M754 1659q88 179 171.5 282t145.5 103q26 0 47 -15t21 -36q0 -44 -97.5 -133.5t-261.5 -200.5h-26zM795 -23q-143 0 -273.5 59.5t-227 162.5t-153.5 251t-57 316q0 177 62.5 330t166.5 256t239 162t279 59q146 0 279.5 -59.5t233 -162t158.5 -249t59 -311.5
q0 -172 -64.5 -325.5t-171 -259.5t-245.5 -167.5t-285 -61.5zM877 53q176 0 253.5 161t77.5 474q0 397 -111.5 603t-312.5 206q-57 0 -108.5 -22t-98.5 -72.5t-81 -125.5t-54 -187t-20 -250q0 -152 24 -281t66.5 -221t100 -157t124.5 -96.5t140 -31.5z" />
    <glyph glyph-name="Ocircumflex" unicode="&#xd4;" horiz-adv-x="1644" 
d="M565 1659q14 27 38 76q100 199 137 254t83 55q47 0 84 -56t137 -258q22 -46 35 -71h-37l-219 239l-221 -239h-37zM795 -23q-143 0 -273.5 59.5t-227 162.5t-153.5 251t-57 316q0 177 62.5 330t166.5 256t239 162t279 59q146 0 279.5 -59.5t233 -162t158.5 -249t59 -311.5
q0 -172 -64.5 -325.5t-171 -259.5t-245.5 -167.5t-285 -61.5zM877 53q176 0 253.5 161t77.5 474q0 397 -111.5 603t-312.5 206q-57 0 -108.5 -22t-98.5 -72.5t-81 -125.5t-54 -187t-20 -250q0 -152 24 -281t66.5 -221t100 -157t124.5 -96.5t140 -31.5z" />
    <glyph glyph-name="Otilde" unicode="&#xd5;" horiz-adv-x="1644" 
d="M535 1731q11 101 57.5 158t128.5 57q34 0 68.5 -16t57.5 -34.5t53 -34.5t56 -16q41 0 67 21.5t42 79.5h47q-11 -101 -58 -158t-130 -57q-44 0 -85.5 25t-78.5 50t-70 25q-41 0 -66.5 -21t-41.5 -79h-47zM795 -23q-143 0 -273.5 59.5t-227 162.5t-153.5 251t-57 316
q0 177 62.5 330t166.5 256t239 162t279 59q146 0 279.5 -59.5t233 -162t158.5 -249t59 -311.5q0 -172 -64.5 -325.5t-171 -259.5t-245.5 -167.5t-285 -61.5zM877 53q176 0 253.5 161t77.5 474q0 397 -111.5 603t-312.5 206q-57 0 -108.5 -22t-98.5 -72.5t-81 -125.5
t-54 -187t-20 -250q0 -152 24 -281t66.5 -221t100 -157t124.5 -96.5t140 -31.5z" />
    <glyph glyph-name="Odieresis" unicode="&#xd6;" horiz-adv-x="1644" 
d="M629 1700q-61 0 -99 37.5t-38 95.5q0 59 38 99t99 40q59 0 97 -40t38 -99q0 -57 -38 -95t-97 -38zM1020 1700q-61 0 -99 37.5t-38 95.5q0 59 38 99t99 40q59 0 97 -40t38 -99q0 -57 -37.5 -95t-97.5 -38zM795 -23q-143 0 -273.5 59.5t-227 162.5t-153.5 251t-57 316
q0 177 62.5 330t166.5 256t239 162t279 59q146 0 279.5 -59.5t233 -162t158.5 -249t59 -311.5q0 -172 -64.5 -325.5t-171 -259.5t-245.5 -167.5t-285 -61.5zM877 53q176 0 253.5 161t77.5 474q0 397 -111.5 603t-312.5 206q-57 0 -108.5 -22t-98.5 -72.5t-81 -125.5
t-54 -187t-20 -250q0 -152 24 -281t66.5 -221t100 -157t124.5 -96.5t140 -31.5z" />
    <glyph glyph-name="multiply" unicode="&#xd7;" horiz-adv-x="860" 
d="M731 803l-209 -209l209 -211l-90 -90l-209 211l-213 -213l-90 90l213 213l-213 211l90 90l213 -211l209 209z" />
    <glyph glyph-name="Oslash" unicode="&#xd8;" horiz-adv-x="1644" 
d="M1323 1372q112 -107 175 -257t63 -324q0 -172 -64.5 -325.5t-171 -259.5t-245.5 -167.5t-285 -61.5q-206 0 -375 115l-82 -115h-156l137 197q-110 107 -172.5 260t-62.5 332q0 177 62.5 330t166.5 256t239 162t279 59q212 0 392 -119l71 102h158zM422 840q0 -252 63 -432
l617 874q-111 215 -318 215q-57 0 -108.5 -22t-98.5 -72.5t-81 -125.5t-54 -187t-20 -250zM877 53q176 0 253.5 161t77.5 474q0 264 -51 451l-610 -867q62 -107 147.5 -163t182.5 -56z" />
    <glyph glyph-name="Ugrave" unicode="&#xd9;" horiz-adv-x="1630" 
d="M909 1659q-161 109 -259.5 199.5t-98.5 130.5q0 25 20 40t54 15q55 0 140.5 -106t170.5 -279h-27zM827 -23q-134 0 -235 30t-165 82t-104 131t-55.5 167.5t-15.5 200.5v872l-154 66v30h604v-30l-153 -66v-729q0 -93 2.5 -163t10 -143t21 -125t35.5 -99.5t52.5 -76.5
t73.5 -46t98 -17q157 0 252 49t143.5 165.5t48.5 312.5v872l-153 66v30h399v-30l-154 -66v-872q0 -146 -27 -254t-89 -190.5t-170.5 -124.5t-264.5 -42z" />
    <glyph glyph-name="Uacute" unicode="&#xda;" horiz-adv-x="1630" 
d="M805 1659q88 179 171.5 282t145.5 103q26 0 47 -15t21 -36q0 -44 -97.5 -133.5t-261.5 -200.5h-26zM827 -23q-134 0 -235 30t-165 82t-104 131t-55.5 167.5t-15.5 200.5v872l-154 66v30h604v-30l-153 -66v-729q0 -93 2.5 -163t10 -143t21 -125t35.5 -99.5t52.5 -76.5
t73.5 -46t98 -17q157 0 252 49t143.5 165.5t48.5 312.5v872l-153 66v30h399v-30l-154 -66v-872q0 -146 -27 -254t-89 -190.5t-170.5 -124.5t-264.5 -42z" />
    <glyph glyph-name="Ucircumflex" unicode="&#xdb;" horiz-adv-x="1630" 
d="M608 1659q14 27 38 76q100 199 137 254t83 55q47 0 84 -56t137 -258q22 -46 35 -71h-37l-219 239l-221 -239h-37zM827 -23q-134 0 -235 30t-165 82t-104 131t-55.5 167.5t-15.5 200.5v872l-154 66v30h604v-30l-153 -66v-729q0 -93 2.5 -163t10 -143t21 -125t35.5 -99.5
t52.5 -76.5t73.5 -46t98 -17q157 0 252 49t143.5 165.5t48.5 312.5v872l-153 66v30h399v-30l-154 -66v-872q0 -146 -27 -254t-89 -190.5t-170.5 -124.5t-264.5 -42z" />
    <glyph glyph-name="Udieresis" unicode="&#xdc;" horiz-adv-x="1630" 
d="M653 1690q-61 0 -99 37.5t-38 95.5q0 59 38 99t99 40q59 0 97 -40t38 -99q0 -57 -38 -95t-97 -38zM1044 1690q-61 0 -99 37.5t-38 95.5q0 59 38 99t99 40q59 0 97.5 -40t38.5 -99q0 -57 -38 -95t-98 -38zM827 -23q-134 0 -235 30t-165 82t-104 131t-55.5 167.5
t-15.5 200.5v872l-154 66v30h604v-30l-153 -66v-729q0 -93 2.5 -163t10 -143t21 -125t35.5 -99.5t52.5 -76.5t73.5 -46t98 -17q157 0 252 49t143.5 165.5t48.5 312.5v872l-153 66v30h399v-30l-154 -66v-872q0 -146 -27 -254t-89 -190.5t-170.5 -124.5t-264.5 -42z" />
    <glyph glyph-name="Yacute" unicode="&#xdd;" horiz-adv-x="1644" 
d="M778 1710q88 178 172 281.5t146 103.5q26 0 46.5 -15t20.5 -36q0 -44 -97 -134t-261 -200h-27zM539 0v31l153 82v462l-424 885l-170 66v30h625v-30l-143 -47l370 -817l359 806l-183 58v30h420v-30l-160 -72l-397 -866v-475l154 -82v-31h-604z" />
    <glyph glyph-name="Thorn" unicode="&#xde;" horiz-adv-x="1427" 
d="M100 0v31l154 82v1347l-154 66v30h605v-30l-154 -66v-211h219q155 0 278.5 -42.5t200 -134t76.5 -218.5q0 -133 -76 -233t-201 -150.5t-278 -50.5h-219v-307l154 -82v-31h-605zM551 522h106q148 0 232.5 37t116.5 105t32 182q0 71 -19 124.5t-50.5 87t-79 54t-98 28
t-113.5 7.5h-68q-59 0 -59 -43v-582z" />
    <glyph glyph-name="germandbls" unicode="&#xdf;" horiz-adv-x="1415" 
d="M958 -23q-112 0 -205 47.5t-145 139.5l78 233h70q-6 -49 -6 -90q0 -61 14.5 -106.5t35.5 -70t52 -39.5t56.5 -19t56.5 -4q106 0 158.5 48t52.5 120q0 28 -8 50.5t-27 40.5t-38 30.5t-54.5 25.5t-62.5 20.5t-75 20.5q-278 70 -278 334q0 77 25 141t60.5 108t70.5 85
t60 92.5t25 109.5q0 59 -23.5 107.5t-60.5 78.5t-78.5 46t-80.5 16q-174 0 -174 -328v-1214h-381v31l133 63v1073q0 230 100.5 368t294.5 138q155 0 250.5 -90t95.5 -256q0 -68 -17.5 -124t-42.5 -93t-50 -69.5t-42.5 -69t-17.5 -76.5q0 -32 9.5 -58.5t31 -48t41.5 -36.5
t56 -31t58.5 -24.5t63.5 -22.5q43 -15 66.5 -23.5t60 -25t56.5 -32t45 -40.5t38 -53.5t22 -68t9 -87.5q0 -95 -32 -168t-86.5 -115t-120.5 -63t-140 -21z" />
    <glyph glyph-name="agrave" unicode="&#xe0;" horiz-adv-x="1097" 
d="M604 1178q-162 109 -260 199t-98 130q0 25 20 40.5t53 15.5q56 0 141.5 -106t170.5 -279h-27zM338 -23q-114 0 -187 74.5t-73 194.5q0 65 24.5 124t62 102t91.5 81t104.5 63t109.5 47t97.5 32.5t77.5 19.5v61q0 113 -40.5 173.5t-151.5 60.5q-89 0 -151 -41t-62 -129
q0 -54 26 -113h-71l-103 213q44 60 163.5 114t268.5 54q170 0 269.5 -85t99.5 -271v-588l131 -41v-62l-338 -61h-41v213q-9 -30 -31.5 -67t-59.5 -76.5t-94 -66t-122 -26.5zM449 98q46 0 83 29t59.5 75t34.5 81.5t19 70.5v289q-38 -13 -56 -19.5t-57.5 -24t-61 -33
t-51.5 -43t-45.5 -57.5t-27.5 -72.5t-12 -92.5q0 -38 5.5 -72t18 -64.5t36 -48.5t55.5 -18z" />
    <glyph glyph-name="aacute" unicode="&#xe1;" horiz-adv-x="1097" 
d="M391 1178q88 178 172 281.5t146 103.5q26 0 46.5 -15.5t20.5 -36.5q0 -44 -97 -133t-261 -200h-27zM338 -23q-114 0 -187 74.5t-73 194.5q0 65 24.5 124t62 102t91.5 81t104.5 63t109.5 47t97.5 32.5t77.5 19.5v61q0 113 -40.5 173.5t-151.5 60.5q-89 0 -151 -41
t-62 -129q0 -54 26 -113h-71l-103 213q44 60 163.5 114t268.5 54q170 0 269.5 -85t99.5 -271v-588l131 -41v-62l-338 -61h-41v213q-9 -30 -31.5 -67t-59.5 -76.5t-94 -66t-122 -26.5zM449 98q46 0 83 29t59.5 75t34.5 81.5t19 70.5v289q-38 -13 -56 -19.5t-57.5 -24t-61 -33
t-51.5 -43t-45.5 -57.5t-27.5 -72.5t-12 -92.5q0 -38 5.5 -72t18 -64.5t36 -48.5t55.5 -18z" />
    <glyph glyph-name="acircumflex" unicode="&#xe2;" horiz-adv-x="1097" 
d="M231 1178q14 27 38 76q100 199 137 254t83 55q47 0 84 -56t137 -258q22 -46 35 -71h-36l-220 239l-221 -239h-37zM338 -23q-114 0 -187 74.5t-73 194.5q0 65 24.5 124t62 102t91.5 81t104.5 63t109.5 47t97.5 32.5t77.5 19.5v61q0 113 -40.5 173.5t-151.5 60.5
q-89 0 -151 -41t-62 -129q0 -54 26 -113h-71l-103 213q44 60 163.5 114t268.5 54q170 0 269.5 -85t99.5 -271v-588l131 -41v-62l-338 -61h-41v213q-9 -30 -31.5 -67t-59.5 -76.5t-94 -66t-122 -26.5zM449 98q46 0 83 29t59.5 75t34.5 81.5t19 70.5v289q-38 -13 -56 -19.5
t-57.5 -24t-61 -33t-51.5 -43t-45.5 -57.5t-27.5 -72.5t-12 -92.5q0 -38 5.5 -72t18 -64.5t36 -48.5t55.5 -18z" />
    <glyph glyph-name="atilde" unicode="&#xe3;" horiz-adv-x="1097" 
d="M203 1249q11 101 57.5 158t128.5 57q43 0 85 -25t80 -50t71 -25q41 0 66.5 21t41.5 79h47q-11 -101 -58 -158t-130 -57q-35 0 -69 16t-57 34.5t-52.5 34.5t-55.5 16q-41 0 -66.5 -21.5t-41.5 -79.5h-47zM338 -23q-114 0 -187 74.5t-73 194.5q0 65 24.5 124t62 102
t91.5 81t104.5 63t109.5 47t97.5 32.5t77.5 19.5v61q0 113 -40.5 173.5t-151.5 60.5q-89 0 -151 -41t-62 -129q0 -54 26 -113h-71l-103 213q44 60 163.5 114t268.5 54q170 0 269.5 -85t99.5 -271v-588l131 -41v-62l-338 -61h-41v213q-9 -30 -31.5 -67t-59.5 -76.5t-94 -66
t-122 -26.5zM449 98q46 0 83 29t59.5 75t34.5 81.5t19 70.5v289q-38 -13 -56 -19.5t-57.5 -24t-61 -33t-51.5 -43t-45.5 -57.5t-27.5 -72.5t-12 -92.5q0 -38 5.5 -72t18 -64.5t36 -48.5t55.5 -18z" />
    <glyph glyph-name="adieresis" unicode="&#xe4;" horiz-adv-x="1097" 
d="M322 1219q-61 0 -99.5 37.5t-38.5 95.5q0 59 38.5 99t99.5 40q59 0 97 -40t38 -99q0 -58 -37.5 -95.5t-97.5 -37.5zM713 1219q-61 0 -99.5 37.5t-38.5 95.5q0 59 38.5 99t99.5 40q59 0 97 -40t38 -99q0 -58 -38 -95.5t-97 -37.5zM338 -23q-114 0 -187 74.5t-73 194.5
q0 65 24.5 124t62 102t91.5 81t104.5 63t109.5 47t97.5 32.5t77.5 19.5v61q0 113 -40.5 173.5t-151.5 60.5q-89 0 -151 -41t-62 -129q0 -54 26 -113h-71l-103 213q44 60 163.5 114t268.5 54q170 0 269.5 -85t99.5 -271v-588l131 -41v-62l-338 -61h-41v213q-9 -30 -31.5 -67
t-59.5 -76.5t-94 -66t-122 -26.5zM449 98q46 0 83 29t59.5 75t34.5 81.5t19 70.5v289q-38 -13 -56 -19.5t-57.5 -24t-61 -33t-51.5 -43t-45.5 -57.5t-27.5 -72.5t-12 -92.5q0 -38 5.5 -72t18 -64.5t36 -48.5t55.5 -18z" />
    <glyph glyph-name="aring" unicode="&#xe5;" horiz-adv-x="1097" 
d="M510 1184q-78 0 -134.5 56.5t-56.5 133.5t56.5 133t134.5 56q75 0 131.5 -56.5t56.5 -132.5t-56.5 -133t-131.5 -57zM510 1264q43 0 75.5 33t32.5 77q0 45 -32.5 77t-75.5 32q-46 0 -78.5 -32.5t-32.5 -76.5t32.5 -77t78.5 -33zM338 -23q-114 0 -187 74.5t-73 194.5
q0 65 24.5 124t62 102t91.5 81t104.5 63t109.5 47t97.5 32.5t77.5 19.5v61q0 113 -40.5 173.5t-151.5 60.5q-89 0 -151 -41t-62 -129q0 -54 26 -113h-71l-103 213q44 60 163.5 114t268.5 54q170 0 269.5 -85t99.5 -271v-588l131 -41v-62l-338 -61h-41v213q-9 -30 -31.5 -67
t-59.5 -76.5t-94 -66t-122 -26.5zM449 98q46 0 83 29t59.5 75t34.5 81.5t19 70.5v289q-38 -13 -56 -19.5t-57.5 -24t-61 -33t-51.5 -43t-45.5 -57.5t-27.5 -72.5t-12 -92.5q0 -38 5.5 -72t18 -64.5t36 -48.5t55.5 -18z" />
    <glyph glyph-name="ae" unicode="&#xe6;" horiz-adv-x="1732" 
d="M344 -23q-120 0 -193 74t-73 195q0 65 24.5 124t62 102t91.5 81t104.5 63t109.5 47t97.5 32.5t77.5 19.5v61q0 113 -40.5 173.5t-151.5 60.5q-89 0 -151 -41t-62 -129q0 -54 26 -113h-71l-103 213q39 55 160.5 111.5t255.5 56.5q184 0 293 -137q137 137 352 137
q132 0 232 -46.5t159.5 -145.5t59.5 -240v-80h-697v-31q0 -227 94 -365.5t248 -138.5q116 0 215 80.5t158 218.5h51q-57 -170 -196.5 -276.5t-323.5 -106.5q-150 0 -267 73.5t-179 203.5q-29 -78 -73.5 -135t-95 -86.5t-98 -42.5t-96.5 -13zM907 674h436q0 154 -56.5 248
t-149.5 94q-103 0 -166.5 -94t-63.5 -248zM453 98q44 0 80.5 29.5t58.5 74.5t34.5 81t18.5 67v293q-56 -18 -95.5 -35t-83 -45.5t-70.5 -62.5t-44.5 -86t-17.5 -117q0 -36 5.5 -68.5t18 -63.5t37 -49t58.5 -18z" />
    <glyph glyph-name="ccedilla" unicode="&#xe7;" horiz-adv-x="1150" 
d="M610 -23h-6l-53 -94q79 0 127.5 -38.5t48.5 -94.5q0 -63 -48.5 -115.5t-135.5 -52.5q-58 0 -119 35v31q52 -21 96 -21q113 0 113 88q0 43 -39 75t-111 32v39l68 119q-208 22 -339.5 178.5t-131.5 392.5q0 251 150 404t395 153q120 0 215 -43.5t153 -116.5l-141 -350h-51
q39 107 39 197q0 107 -55 168t-150 61q-140 0 -220.5 -128t-80.5 -341q0 -224 87 -359t232 -135q111 0 213.5 82t159.5 217h51q-58 -176 -177 -279.5t-290 -103.5z" />
    <glyph glyph-name="egrave" unicode="&#xe8;" 
d="M643 1178q-162 109 -260 199t-98 130q0 25 20 40.5t53 15.5q56 0 141.5 -106t170.5 -279h-27zM588 -23q-224 0 -366 156.5t-142 407.5q0 257 139 412t369 155q202 0 326 -110.5t124 -321.5v-80h-696v-31q0 -227 94 -365.5t248 -138.5q116 0 215 80.5t158 218.5h51
q-57 -170 -196.5 -276.5t-323.5 -106.5zM342 674h436q0 154 -56.5 248t-150.5 94q-103 0 -166 -94t-63 -248z" />
    <glyph glyph-name="eacute" unicode="&#xe9;" 
d="M442 1178q88 178 172 281.5t146 103.5q26 0 46.5 -15.5t20.5 -36.5q0 -44 -97 -133t-261 -200h-27zM588 -23q-224 0 -366 156.5t-142 407.5q0 257 139 412t369 155q202 0 326 -110.5t124 -321.5v-80h-696v-31q0 -227 94 -365.5t248 -138.5q116 0 215 80.5t158 218.5h51
q-57 -170 -196.5 -276.5t-323.5 -106.5zM342 674h436q0 154 -56.5 248t-150.5 94q-103 0 -166 -94t-63 -248z" />
    <glyph glyph-name="ecircumflex" unicode="&#xea;" 
d="M342 1178q14 27 38 76q100 199 137 254t83 55q47 0 84 -56t137 -258q22 -46 35 -71h-37l-219 239l-221 -239h-37zM588 -23q-224 0 -366 156.5t-142 407.5q0 257 139 412t369 155q202 0 326 -110.5t124 -321.5v-80h-696v-31q0 -227 94 -365.5t248 -138.5q116 0 215 80.5
t158 218.5h51q-57 -170 -196.5 -276.5t-323.5 -106.5zM342 674h436q0 154 -56.5 248t-150.5 94q-103 0 -166 -94t-63 -248z" />
    <glyph glyph-name="edieresis" unicode="&#xeb;" 
d="M397 1219q-61 0 -99 37.5t-38 95.5q0 59 38 99t99 40q59 0 97 -40t38 -99q0 -58 -38 -95.5t-97 -37.5zM788 1219q-61 0 -99 37.5t-38 95.5q0 59 38 99t99 40q59 0 97.5 -40t38.5 -99q0 -57 -38 -95t-98 -38zM588 -23q-224 0 -366 156.5t-142 407.5q0 257 139 412t369 155
q202 0 326 -110.5t124 -321.5v-80h-696v-31q0 -227 94 -365.5t248 -138.5q116 0 215 80.5t158 218.5h51q-57 -170 -196.5 -276.5t-323.5 -106.5zM342 674h436q0 154 -56.5 248t-150.5 94q-103 0 -166 -94t-63 -248z" />
    <glyph glyph-name="igrave" unicode="&#xec;" horiz-adv-x="663" 
d="M426 1178q-162 109 -260 199t-98 130q0 25 20 40.5t53 15.5q56 0 141.5 -106t170.5 -279h-27zM76 0v31l133 63v844l-133 66v30l340 41h41v-981l133 -63v-31h-514z" />
    <glyph glyph-name="iacute" unicode="&#xed;" horiz-adv-x="663" 
d="M139 1178q88 178 172 281.5t146 103.5q26 0 46.5 -15.5t20.5 -36.5q0 -44 -97 -133t-261 -200h-27zM76 0v31l133 63v844l-133 66v30l340 41h41v-981l133 -63v-31h-514z" />
    <glyph glyph-name="icircumflex" unicode="&#xee;" horiz-adv-x="552" 
d="M-6 1178q14 27 38 76q100 199 137 254t83 55q47 0 84 -56t137 -258q22 -46 35 -71h-37l-219 239l-221 -239h-37zM20 0v31l134 63v844l-134 66v30l340 41h41v-981l134 -63v-31h-515z" />
    <glyph glyph-name="idieresis" unicode="&#xef;" horiz-adv-x="663" 
d="M137 1219q-61 0 -99 37.5t-38 95.5q0 59 38 99t99 40q59 0 97 -40t38 -99q0 -58 -38 -95.5t-97 -37.5zM528 1219q-61 0 -99 37.5t-38 95.5q0 59 38 99t99 40q59 0 97.5 -40t38.5 -99q0 -57 -38 -95t-98 -38zM76 0v31l133 63v844l-133 66v30l340 41h41v-981l133 -63v-31
h-514z" />
    <glyph glyph-name="eth" unicode="&#xf0;" horiz-adv-x="1247" 
d="M868 1380q146 -169 221.5 -346.5t75.5 -386.5q0 -306 -151 -488t-400 -182q-239 0 -386.5 163t-147.5 419q0 250 142 399.5t362 149.5q188 0 262 -96h10q-126 169 -213 274l-186 -78l-54 129l142 60q-118 129 -264 241h321q108 -93 162 -149l166 70l55 -129zM625 61
q80 0 142 62.5t96 171.5t34 246q0 218 -83 350.5t-216 132.5q-122 0 -191 -113t-69 -323q0 -150 35.5 -269.5t101.5 -188.5t150 -69z" />
    <glyph glyph-name="ntilde" unicode="&#xf1;" horiz-adv-x="1294" 
d="M399 1249q11 100 58 157.5t129 57.5q43 0 85 -25t79.5 -50t70.5 -25q42 0 67.5 21t41.5 79h47q-11 -101 -58.5 -158t-130.5 -57q-44 0 -85.5 25.5t-78 50.5t-69.5 25q-41 0 -67 -21.5t-42 -79.5h-47zM76 0v31l133 63v844l-133 66v30l340 41h41v-153q47 79 126 132.5
t191 53.5q60 0 113.5 -17t99.5 -52t73 -96.5t27 -141.5v-707l134 -63v-31h-494v31l113 63v604q0 172 -31 239t-113 67q-71 0 -133.5 -53t-105.5 -136v-721l112 -63v-31h-493z" />
    <glyph glyph-name="ograve" unicode="&#xf2;" horiz-adv-x="1245" 
d="M727 1178q-162 109 -260 199t-98 130q0 25 20 40.5t53 15.5q56 0 141.5 -106t170.5 -279h-27zM625 -23q-112 0 -206 37.5t-155.5 98t-104 138t-61 155.5t-18.5 153q0 61 13 123t39.5 124t71.5 116t104 96t141.5 66t179.5 24q116 0 210 -35t153.5 -90.5t99.5 -128.5
t56.5 -144.5t16.5 -142.5q0 -72 -17 -148.5t-57.5 -157t-100.5 -142.5t-154.5 -102t-210.5 -40zM653 61q67 0 123.5 66.5t88.5 176.5t32 237q0 128 -32.5 236t-99 177.5t-155.5 69.5q-122 0 -197 -123t-75 -307q0 -132 38 -253t112 -200.5t165 -79.5z" />
    <glyph glyph-name="oacute" unicode="&#xf3;" horiz-adv-x="1245" 
d="M569 1178q88 178 172 281.5t146 103.5q26 0 46.5 -15.5t20.5 -36.5q0 -44 -97 -133t-261 -200h-27zM625 -23q-112 0 -206 37.5t-155.5 98t-104 138t-61 155.5t-18.5 153q0 61 13 123t39.5 124t71.5 116t104 96t141.5 66t179.5 24q116 0 210 -35t153.5 -90.5t99.5 -128.5
t56.5 -144.5t16.5 -142.5q0 -72 -17 -148.5t-57.5 -157t-100.5 -142.5t-154.5 -102t-210.5 -40zM653 61q67 0 123.5 66.5t88.5 176.5t32 237q0 128 -32.5 236t-99 177.5t-155.5 69.5q-122 0 -197 -123t-75 -307q0 -132 38 -253t112 -200.5t165 -79.5z" />
    <glyph glyph-name="ocircumflex" unicode="&#xf4;" horiz-adv-x="1245" 
d="M365 1178q14 27 38 76q100 199 137 254t83 55q47 0 84 -56t137 -258q22 -46 35 -71h-37l-219 239l-222 -239h-36zM625 -23q-112 0 -206 37.5t-155.5 98t-104 138t-61 155.5t-18.5 153q0 61 13 123t39.5 124t71.5 116t104 96t141.5 66t179.5 24q116 0 210 -35t153.5 -90.5
t99.5 -128.5t56.5 -144.5t16.5 -142.5q0 -72 -17 -148.5t-57.5 -157t-100.5 -142.5t-154.5 -102t-210.5 -40zM653 61q67 0 123.5 66.5t88.5 176.5t32 237q0 128 -32.5 236t-99 177.5t-155.5 69.5q-122 0 -197 -123t-75 -307q0 -132 38 -253t112 -200.5t165 -79.5z" />
    <glyph glyph-name="otilde" unicode="&#xf5;" horiz-adv-x="1245" 
d="M334 1249q11 101 57.5 158t128.5 57q43 0 85 -25t80 -50t71 -25q41 0 66.5 21t41.5 79h47q-11 -101 -58 -158t-130 -57q-35 0 -69 16t-57 34.5t-52.5 34.5t-55.5 16q-41 0 -66.5 -21.5t-41.5 -79.5h-47zM625 -23q-112 0 -206 37.5t-155.5 98t-104 138t-61 155.5
t-18.5 153q0 61 13 123t39.5 124t71.5 116t104 96t141.5 66t179.5 24q116 0 210 -35t153.5 -90.5t99.5 -128.5t56.5 -144.5t16.5 -142.5q0 -72 -17 -148.5t-57.5 -157t-100.5 -142.5t-154.5 -102t-210.5 -40zM653 61q67 0 123.5 66.5t88.5 176.5t32 237q0 128 -32.5 236
t-99 177.5t-155.5 69.5q-122 0 -197 -123t-75 -307q0 -132 38 -253t112 -200.5t165 -79.5z" />
    <glyph glyph-name="odieresis" unicode="&#xf6;" horiz-adv-x="1245" 
d="M428 1219q-61 0 -99 37.5t-38 95.5q0 59 38 99t99 40q59 0 97 -40t38 -99q0 -58 -37.5 -95.5t-97.5 -37.5zM819 1219q-61 0 -99 37.5t-38 95.5q0 59 38 99t99 40q59 0 97 -40t38 -99q0 -58 -38 -95.5t-97 -37.5zM625 -23q-112 0 -206 37.5t-155.5 98t-104 138t-61 155.5
t-18.5 153q0 61 13 123t39.5 124t71.5 116t104 96t141.5 66t179.5 24q116 0 210 -35t153.5 -90.5t99.5 -128.5t56.5 -144.5t16.5 -142.5q0 -72 -17 -148.5t-57.5 -157t-100.5 -142.5t-154.5 -102t-210.5 -40zM653 61q67 0 123.5 66.5t88.5 176.5t32 237q0 128 -32.5 236
t-99 177.5t-155.5 69.5q-122 0 -197 -123t-75 -307q0 -132 38 -253t112 -200.5t165 -79.5z" />
    <glyph glyph-name="divide" unicode="&#xf7;" horiz-adv-x="980" 
d="M492 762q-60 0 -98 38t-38 95q0 58 38.5 97.5t97.5 39.5t97 -39.5t38 -97.5q0 -57 -37.5 -95t-97.5 -38zM129 553v127h723v-127h-723zM492 197q-60 0 -98 38t-38 95q0 58 38.5 97.5t97.5 39.5t97 -39.5t38 -97.5t-37.5 -95.5t-97.5 -37.5z" />
    <glyph glyph-name="oslash" unicode="&#xf8;" horiz-adv-x="1245" 
d="M1006 969q81 -78 120 -186.5t39 -215.5q0 -72 -17 -148.5t-57.5 -157t-100.5 -142.5t-154.5 -102t-210.5 -40q-148 0 -271 68l-49 -70h-155l104 148q-86 86 -130 204.5t-44 231.5q0 61 13 123t39.5 124t71.5 116t104 96t141.5 66t179.5 24q154 0 272 -64l45 64h158z
M338 594q0 -153 49 -281l418 594q-76 117 -195 117q-122 0 -197 -123t-75 -307zM653 61q67 0 123.5 66.5t88.5 176.5t32 237q0 121 -31 229l-413 -586q86 -123 200 -123z" />
    <glyph glyph-name="ugrave" unicode="&#xf9;" horiz-adv-x="1251" 
d="M659 1178q-162 109 -260 199t-98 130q0 25 20 40.5t54 15.5q55 0 140.5 -106t170.5 -279h-27zM500 -33q-62 0 -113 17t-92.5 52t-64.5 95.5t-23 142.5v664l-133 66v30l340 41h41v-760q0 -81 9.5 -133t27.5 -74.5t34.5 -29t40.5 -6.5q77 0 127.5 50t102.5 179v637l-133 66
v30l340 41h40v-938l134 -65v-31l-340 -41h-41v174q-87 -207 -297 -207z" />
    <glyph glyph-name="uacute" unicode="&#xfa;" horiz-adv-x="1251" 
d="M524 1178q88 178 172 281.5t146 103.5q26 0 46.5 -15.5t20.5 -36.5q0 -44 -97 -133t-261 -200h-27zM500 -33q-62 0 -113 17t-92.5 52t-64.5 95.5t-23 142.5v664l-133 66v30l340 41h41v-760q0 -81 9.5 -133t27.5 -74.5t34.5 -29t40.5 -6.5q77 0 127.5 50t102.5 179v637
l-133 66v30l340 41h40v-938l134 -65v-31l-340 -41h-41v174q-87 -207 -297 -207z" />
    <glyph glyph-name="ucircumflex" unicode="&#xfb;" horiz-adv-x="1251" 
d="M369 1178q14 27 38 76q100 199 137 254t83 55q47 0 84 -56t137 -258q22 -46 35 -71h-37l-219 239l-221 -239h-37zM500 -33q-62 0 -113 17t-92.5 52t-64.5 95.5t-23 142.5v664l-133 66v30l340 41h41v-760q0 -81 9.5 -133t27.5 -74.5t34.5 -29t40.5 -6.5q77 0 127.5 50
t102.5 179v637l-133 66v30l340 41h40v-938l134 -65v-31l-340 -41h-41v174q-87 -207 -297 -207z" />
    <glyph glyph-name="udieresis" unicode="&#xfc;" horiz-adv-x="1251" 
d="M420 1219q-61 0 -99 37.5t-38 95.5q0 59 38 99t99 40q59 0 97 -40t38 -99q0 -58 -37.5 -95.5t-97.5 -37.5zM811 1219q-61 0 -99 37.5t-38 95.5q0 59 38 99t99 40q59 0 97 -40t38 -99q0 -58 -38 -95.5t-97 -37.5zM500 -33q-62 0 -113 17t-92.5 52t-64.5 95.5t-23 142.5
v664l-133 66v30l340 41h41v-760q0 -81 9.5 -133t27.5 -74.5t34.5 -29t40.5 -6.5q77 0 127.5 50t102.5 179v637l-133 66v30l340 41h40v-938l134 -65v-31l-340 -41h-41v174q-87 -207 -297 -207z" />
    <glyph glyph-name="yacute" unicode="&#xfd;" horiz-adv-x="1355" 
d="M662 1178q88 179 171.5 282t145.5 103q26 0 47 -15.5t21 -36.5q0 -43 -97 -132.5t-262 -200.5h-26zM330 -422l-256 252l41 37q53 -38 85.5 -59.5t76.5 -40.5t79 -19q89 0 171.5 90t82.5 182l-387 979l-149 45v31h542v-31l-139 -45l289 -729l266 736l-145 38v31h399v-31
l-176 -45l-309 -858q-34 -92 -83 -186t-110.5 -181t-135 -141.5t-142.5 -54.5z" />
    <glyph glyph-name="thorn" unicode="&#xfe;" horiz-adv-x="1126" 
d="M-31 -410v31l133 64v1816l-131 66v30l338 41h41v-530q316 0 506.5 -166t190.5 -448q0 -226 -120 -371.5t-313 -145.5q-146 0 -264 103v-395l133 -64v-31h-514zM578 82q91 0 150.5 113t59.5 284q0 247 -121.5 392t-316.5 145v-842q44 -43 104.5 -67.5t123.5 -24.5z" />
    <glyph glyph-name="ydieresis" unicode="&#xff;" horiz-adv-x="1355" 
d="M518 1219q-61 0 -99 37.5t-38 95.5q0 59 38 99t99 40q59 0 97 -40t38 -99q0 -58 -37.5 -95.5t-97.5 -37.5zM909 1219q-61 0 -99 37.5t-38 95.5q0 59 38 99t99 40q59 0 97 -40t38 -99q0 -58 -38 -95.5t-97 -37.5zM330 -422l-256 252l41 37q53 -38 85.5 -59.5t76.5 -40.5
t79 -19q89 0 171.5 90t82.5 182l-387 979l-149 45v31h542v-31l-139 -45l289 -729l266 736l-145 38v31h399v-31l-176 -45l-309 -858q-34 -92 -83 -186t-110.5 -181t-135 -141.5t-142.5 -54.5z" />
    <glyph glyph-name="Amacron" unicode="&#x100;" horiz-adv-x="1824" 
d="M541 1817v118h579v-118h-579zM98 0v31l154 82l493 1179l-120 281h323l631 -1458l147 -84v-31h-604v31l142 59l-183 432h-563l-182 -436l162 -55v-31h-400zM559 625h479l-241 569z" />
    <glyph glyph-name="amacron" unicode="&#x101;" horiz-adv-x="1097" 
d="M238 1335v119h579v-119h-579zM338 -23q-114 0 -187 74.5t-73 194.5q0 65 24.5 124t62 102t91.5 81t104.5 63t109.5 47t97.5 32.5t77.5 19.5v61q0 113 -40.5 173.5t-151.5 60.5q-89 0 -151 -41t-62 -129q0 -54 26 -113h-71l-103 213q44 60 163.5 114t268.5 54
q170 0 269.5 -85t99.5 -271v-588l131 -41v-62l-338 -61h-41v213q-9 -30 -31.5 -67t-59.5 -76.5t-94 -66t-122 -26.5zM449 98q46 0 83 29t59.5 75t34.5 81.5t19 70.5v289q-38 -13 -56 -19.5t-57.5 -24t-61 -33t-51.5 -43t-45.5 -57.5t-27.5 -72.5t-12 -92.5q0 -38 5.5 -72
t18 -64.5t36 -48.5t55.5 -18z" />
    <glyph glyph-name="Abreve" unicode="&#x102;" horiz-adv-x="1824" 
d="M831 1659q-52 0 -99.5 23.5t-88 68.5t-64.5 121t-24 172h31q5 -110 71.5 -184t173.5 -74t174 74.5t72 183.5h31q0 -96 -24.5 -172t-64.5 -121t-88 -68.5t-100 -23.5zM98 0v31l154 82l493 1179l-120 281h323l631 -1458l147 -84v-31h-604v31l142 59l-183 432h-563
l-182 -436l162 -55v-31h-400zM559 625h479l-241 569z" />
    <glyph glyph-name="abreve" unicode="&#x103;" horiz-adv-x="1097" 
d="M518 1178q-52 0 -99.5 23.5t-88 68.5t-64.5 121t-24 172h30q5 -109 72 -183.5t174 -74.5t174 74.5t72 183.5h31q0 -96 -24.5 -172t-64.5 -121t-88 -68.5t-100 -23.5zM338 -23q-114 0 -187 74.5t-73 194.5q0 65 24.5 124t62 102t91.5 81t104.5 63t109.5 47t97.5 32.5
t77.5 19.5v61q0 113 -40.5 173.5t-151.5 60.5q-89 0 -151 -41t-62 -129q0 -54 26 -113h-71l-103 213q44 60 163.5 114t268.5 54q170 0 269.5 -85t99.5 -271v-588l131 -41v-62l-338 -61h-41v213q-9 -30 -31.5 -67t-59.5 -76.5t-94 -66t-122 -26.5zM449 98q46 0 83 29t59.5 75
t34.5 81.5t19 70.5v289q-38 -13 -56 -19.5t-57.5 -24t-61 -33t-51.5 -43t-45.5 -57.5t-27.5 -72.5t-12 -92.5q0 -38 5.5 -72t18 -64.5t36 -48.5t55.5 -18z" />
    <glyph glyph-name="Aogonek" unicode="&#x104;" horiz-adv-x="1824" 
d="M1556 0q-141 -129 -141 -246q0 -54 25 -79t59 -25q50 0 92 57h51q-80 -131 -200 -131q-66 0 -112 38t-46 103q0 36 18.5 75.5t39 67t57 61.5t51.5 46t43 33h-371v31l142 59l-183 432h-563l-182 -436l162 -55v-31h-400v31l154 82l493 1179l-120 281h323l631 -1458l147 -84
v-31h-170zM559 625h479l-241 569z" />
    <glyph glyph-name="aogonek" unicode="&#x105;" horiz-adv-x="1097" 
d="M711 4q-146 -139 -146 -250q0 -54 25 -79t59 -25q50 0 92 57h52q-80 -131 -201 -131q-66 0 -112 38t-46 103q0 19 5 38.5t12 36.5t19.5 36t23 33.5t28 32l28 28t28.5 26t25.5 22t24 19t17.5 13.5v211q-9 -30 -31.5 -67t-59.5 -76.5t-94 -66t-122 -26.5q-114 0 -187 74.5
t-73 194.5q0 65 24.5 124t62 102t91.5 81t104.5 63t109.5 47t97.5 32.5t77.5 19.5v61q0 113 -40.5 173.5t-151.5 60.5q-89 0 -151 -41t-62 -129q0 -54 26 -113h-71l-103 213q44 60 163.5 114t268.5 54q170 0 269.5 -85t99.5 -271v-588l131 -41v-62zM449 98q46 0 83 29
t59.5 75t34.5 81.5t19 70.5v289q-38 -13 -56 -19.5t-57.5 -24t-61 -33t-51.5 -43t-45.5 -57.5t-27.5 -72.5t-12 -92.5q0 -38 5.5 -72t18 -64.5t36 -48.5t55.5 -18z" />
    <glyph glyph-name="Cacute" unicode="&#x106;" horiz-adv-x="1773" 
d="M745 1659q88 178 172 281.5t146 103.5q26 0 46.5 -15t20.5 -36q0 -44 -97 -134t-261 -200h-27zM918 -23q-156 0 -302 53.5t-260 150.5t-183 245.5t-69 325.5q0 235 117 423.5t318 293t446 104.5q93 0 176.5 -16.5t137 -38.5t96.5 -49t62 -44.5t26 -27.5v-455h-62
q0 555 -454 555q-49 0 -94 -6t-99.5 -25t-100 -49t-89.5 -82t-74.5 -121t-49 -169t-18.5 -222q4 -170 32 -301.5t75 -219.5t115 -144t146.5 -80.5t174.5 -24.5q458 0 637 563h51q-40 -140 -105.5 -254.5t-158 -201.5t-218 -135t-273.5 -48z" />
    <glyph glyph-name="cacute" unicode="&#x107;" horiz-adv-x="1150" 
d="M471 1178q88 179 171.5 282t145.5 103q26 0 47 -15.5t21 -36.5q0 -44 -97 -133t-261 -200h-27zM610 -23q-231 0 -380.5 160t-149.5 414q0 251 150 404t395 153q120 0 215 -43.5t153 -116.5l-141 -350h-51q39 107 39 197q0 107 -55 168t-150 61q-140 0 -220.5 -128
t-80.5 -341q0 -224 87 -359t232 -135q111 0 213.5 82t159.5 217h51q-58 -176 -177 -279.5t-290 -103.5z" />
    <glyph glyph-name="Cdotaccent" unicode="&#x10a;" horiz-adv-x="1773" 
d="M897 1696q-65 0 -107 42t-42 105t42 106.5t107 43.5t106 -43.5t41 -106.5q0 -64 -41 -105.5t-106 -41.5zM918 -23q-156 0 -302 53.5t-260 150.5t-183 245.5t-69 325.5q0 235 117 423.5t318 293t446 104.5q93 0 176.5 -16.5t137 -38.5t96.5 -49t62 -44.5t26 -27.5v-455
h-62q0 555 -454 555q-49 0 -94 -6t-99.5 -25t-100 -49t-89.5 -82t-74.5 -121t-49 -169t-18.5 -222q4 -170 32 -301.5t75 -219.5t115 -144t146.5 -80.5t174.5 -24.5q458 0 637 563h51q-40 -140 -105.5 -254.5t-158 -201.5t-218 -135t-273.5 -48z" />
    <glyph glyph-name="cdotaccent" unicode="&#x10b;" horiz-adv-x="1150" 
d="M586 1214q-66 0 -108 42t-42 106q0 62 42.5 105.5t107.5 43.5t106 -43t41 -106q0 -64 -41 -106t-106 -42zM610 -23q-231 0 -380.5 160t-149.5 414q0 251 150 404t395 153q120 0 215 -43.5t153 -116.5l-141 -350h-51q39 107 39 197q0 107 -55 168t-150 61
q-140 0 -220.5 -128t-80.5 -341q0 -224 87 -359t232 -135q111 0 213.5 82t159.5 217h51q-58 -176 -177 -279.5t-290 -103.5z" />
    <glyph glyph-name="Ccaron" unicode="&#x10c;" horiz-adv-x="1773" 
d="M639 2044h37l221 -240l219 240h37q-127 -257 -154 -302q-43 -70 -81 -80q-10 -3 -21 -3q-46 0 -83.5 55t-136.5 254q-24 49 -38 76zM918 -23q-156 0 -302 53.5t-260 150.5t-183 245.5t-69 325.5q0 235 117 423.5t318 293t446 104.5q93 0 176.5 -16.5t137 -38.5t96.5 -49
t62 -44.5t26 -27.5v-455h-62q0 555 -454 555q-49 0 -94 -6t-99.5 -25t-100 -49t-89.5 -82t-74.5 -121t-49 -169t-18.5 -222q4 -170 32 -301.5t75 -219.5t115 -144t146.5 -80.5t174.5 -24.5q458 0 637 563h51q-40 -140 -105.5 -254.5t-158 -201.5t-218 -135t-273.5 -48z" />
    <glyph glyph-name="ccaron" unicode="&#x10d;" horiz-adv-x="1150" 
d="M348 1563h37l221 -240l219 240h37q-127 -257 -154 -302q-43 -70 -81 -80q-10 -3 -21 -3q-46 0 -83.5 55t-136.5 254q-24 49 -38 76zM610 -23q-231 0 -380.5 160t-149.5 414q0 251 150 404t395 153q120 0 215 -43.5t153 -116.5l-141 -350h-51q39 107 39 197q0 107 -55 168
t-150 61q-140 0 -220.5 -128t-80.5 -341q0 -224 87 -359t232 -135q111 0 213.5 82t159.5 217h51q-58 -176 -177 -279.5t-290 -103.5z" />
    <glyph glyph-name="Dcaron" unicode="&#x10e;" horiz-adv-x="1740" 
d="M571 2044h37l221 -240l220 240h36q-127 -257 -154 -302q-43 -70 -81 -80q-10 -3 -21 -3q-46 0 -83.5 55t-136.5 254q-24 49 -38 76zM100 0v31l154 82v1347l-154 66v30h707q186 0 340.5 -50t268.5 -144.5t177.5 -241.5t63.5 -332q0 -134 -33 -251.5t-104 -216.5
t-174.5 -170t-250.5 -110.5t-327 -39.5h-668zM684 61h66q167 0 297.5 93t203 259.5t72.5 379.5q0 322 -165.5 512t-448.5 190h-95q-38 0 -50.5 -20.5t-12.5 -75.5v-1217q0 -73 26 -97t107 -24z" />
    <glyph glyph-name="dcaron" unicode="&#x10f;" horiz-adv-x="1286" 
d="M1282 1642q48 0 77.5 -30.5t29.5 -89.5q0 -82 -51.5 -193.5t-141.5 -191.5h-41q42 42 67 100t25 111q0 49 -22 98.5t-56 79.5q0 54 31 85t82 31zM643 1597l338 41h41v-1638h-248q-312 0 -503 164t-191 432q0 230 115.5 371t304.5 141q144 0 274 -111v504l-131 66v30z
M336 604q0 -239 120.5 -384.5t317.5 -147.5v841q-98 91 -225 91q-95 0 -154 -110t-59 -290z" />
    <glyph glyph-name="Dcroat" unicode="&#x110;" horiz-adv-x="1710" 
d="M745 1556q186 0 340.5 -50t268.5 -144.5t177.5 -241.5t63.5 -332q0 -169 -53.5 -310t-160 -249t-279 -168.5t-395.5 -60.5h-668v31l154 82v606h-168v119h168v622l-154 66v30h706zM688 61q167 0 298 93t203.5 259.5t72.5 379.5q0 322 -165.5 512t-449.5 190h-94
q-38 0 -51 -20.5t-13 -75.5v-561h177v-119h-177v-537q0 -73 26.5 -97t107.5 -24h65z" />
    <glyph glyph-name="dcroat" unicode="&#x111;" horiz-adv-x="1134" 
d="M1147 1360v-119h-125v-1241h-248q-312 0 -503 164t-191 432q0 230 115.5 371t304.5 141q144 0 274 -111v244h-268v119h268v141l-131 66v30l338 41h41v-278h125zM336 604q0 -239 120.5 -384.5t317.5 -147.5v841q-98 91 -225 91q-95 0 -154 -110t-59 -290z" />
    <glyph glyph-name="Emacron" unicode="&#x112;" horiz-adv-x="1347" 
d="M414 1817v118h579v-118h-579zM100 0v31l154 82v1347l-154 66v30h1055q5 -49 17 -101t29 -114t26 -102h-41l-174 221h-400q-39 0 -50 -22.5t-11 -69.5v-500h297l72 174h61v-448h-61l-72 174h-297v-563q0 -49 12 -70.5t49 -21.5h420l174 204h41q-12 -53 -29 -115
t-27.5 -107t-14.5 -95h-1076z" />
    <glyph glyph-name="emacron" unicode="&#x113;" 
d="M289 1335v119h579v-119h-579zM588 -23q-224 0 -366 156.5t-142 407.5q0 257 139 412t369 155q202 0 326 -110.5t124 -321.5v-80h-696v-31q0 -227 94 -365.5t248 -138.5q116 0 215 80.5t158 218.5h51q-57 -170 -196.5 -276.5t-323.5 -106.5zM342 674h436q0 154 -56.5 248
t-150.5 94q-103 0 -166 -94t-63 -248z" />
    <glyph glyph-name="Edotaccent" unicode="&#x116;" horiz-adv-x="1347" 
d="M705 1696q-66 0 -108 42t-42 105t42.5 106.5t107.5 43.5t106 -43.5t41 -106.5q0 -64 -41 -105.5t-106 -41.5zM100 0v31l154 82v1347l-154 66v30h1055q5 -49 17 -101t29 -114t26 -102h-41l-174 221h-400q-39 0 -50 -22.5t-11 -69.5v-500h297l72 174h61v-448h-61l-72 174
h-297v-563q0 -49 12 -70.5t49 -21.5h420l174 204h41q-12 -53 -29 -115t-27.5 -107t-14.5 -95h-1076z" />
    <glyph glyph-name="edotaccent" unicode="&#x117;" 
d="M612 1214q-65 0 -107 42t-42 106q0 63 42 106t107 43t106.5 -43t41.5 -106q0 -64 -41.5 -106t-106.5 -42zM588 -23q-224 0 -366 156.5t-142 407.5q0 257 139 412t369 155q202 0 326 -110.5t124 -321.5v-80h-696v-31q0 -227 94 -365.5t248 -138.5q116 0 215 80.5
t158 218.5h51q-57 -170 -196.5 -276.5t-323.5 -106.5zM342 674h436q0 154 -56.5 248t-150.5 94q-103 0 -166 -94t-63 -248z" />
    <glyph glyph-name="Eogonek" unicode="&#x118;" horiz-adv-x="1347" 
d="M1083 0q-141 -129 -141 -246q0 -54 25 -79t59 -25q50 0 92 57h51q-80 -131 -200 -131q-66 0 -112 38t-46 103q0 36 18.5 75.5t39 67t57 61.5t51.5 46t43 33h-920v31l154 82v1347l-154 66v30h1055q5 -49 17 -101t29 -114t26 -102h-41l-174 221h-400q-39 0 -50 -22.5
t-11 -69.5v-500h297l72 174h61v-448h-61l-72 174h-297v-563q0 -49 12 -70.5t49 -21.5h420l174 204h41q-12 -53 -29 -115t-27.5 -107t-14.5 -95h-93z" />
    <glyph glyph-name="eogonek" unicode="&#x119;" 
d="M662 -18q-123 -118 -123 -228q0 -54 25 -79t59 -25q50 0 92 57h51q-80 -131 -201 -131q-66 0 -111.5 38t-45.5 103q0 121 180 260q-224 0 -366 156.5t-142 407.5q0 257 139 412t369 155q202 0 326 -110.5t124 -321.5v-80h-696v-31q0 -227 94 -365.5t248 -138.5
q116 0 215 80.5t158 218.5h51q-50 -152 -168.5 -254.5t-277.5 -123.5zM571 1016q-103 0 -166 -94t-63 -248h436q0 154 -56.5 248t-150.5 94z" />
    <glyph glyph-name="Ecaron" unicode="&#x11a;" horiz-adv-x="1347" 
d="M446 2044h37l222 -240l219 240h37q-127 -257 -154 -302q-43 -70 -81 -80q-10 -3 -21 -3q-47 0 -86 58t-140 260l-11 22t-10 21t-12 24zM100 0v31l154 82v1347l-154 66v30h1055q5 -49 17 -101t29 -114t26 -102h-41l-174 221h-400q-39 0 -50 -22.5t-11 -69.5v-500h297
l72 174h61v-448h-61l-72 174h-297v-563q0 -49 12 -70.5t49 -21.5h420l174 204h41q-12 -53 -29 -115t-27.5 -107t-14.5 -95h-1076z" />
    <glyph glyph-name="ecaron" unicode="&#x11b;" 
d="M322 1563h36l222 -240l219 240h37q-127 -257 -154 -302q-43 -70 -81 -80q-10 -3 -21 -3q-46 0 -83.5 55t-136.5 254q-24 49 -38 76zM588 -23q-224 0 -366 156.5t-142 407.5q0 257 139 412t369 155q202 0 326 -110.5t124 -321.5v-80h-696v-31q0 -227 94 -365.5t248 -138.5
q116 0 215 80.5t158 218.5h51q-57 -170 -196.5 -276.5t-323.5 -106.5zM342 674h436q0 154 -56.5 248t-150.5 94q-103 0 -166 -94t-63 -248z" />
    <glyph glyph-name="Gbreve" unicode="&#x11e;" horiz-adv-x="1681" 
d="M883 1659q-52 0 -100 23.5t-88 68.5t-64.5 121t-24.5 172h31q5 -109 72 -183.5t174 -74.5t173.5 74t71.5 184h31q0 -96 -24 -172t-64.5 -121t-88 -68.5t-99.5 -23.5zM889 -23q-125 0 -244 35t-220 103.5t-177.5 162t-120 217.5t-43.5 263q0 175 69 328t185.5 259t275 167
t334.5 61q87 0 169.5 -15t140 -37t103.5 -47.5t70 -45t31 -31.5v-455h-41q-4 269 -131 412t-358 143q-81 0 -150 -17t-137 -63.5t-116 -120t-77.5 -194.5t-29.5 -279q0 -227 57 -399.5t171 -271.5t270 -99q165 0 280 101t115 249q0 128 -99 206t-298 93v41h651v-743h-43
l-82 434q-47 -225 -189.5 -341t-365.5 -116z" />
    <glyph glyph-name="gbreve" unicode="&#x11f;" horiz-adv-x="1230" 
d="M616 1178q-52 0 -99.5 23.5t-88 68.5t-64.5 121t-24 172h31q5 -110 71.5 -184t173.5 -74t174 74.5t72 183.5h31q0 -96 -24.5 -172t-64.5 -121t-88 -68.5t-100 -23.5zM817 1075l340 -41v-30l-133 -66v-836q0 -132 -45.5 -233.5t-127 -165t-189 -95.5t-236.5 -32l-258 252
l43 37q105 -76 166.5 -107.5t130.5 -31.5q36 0 70 6.5t70.5 24.5t64 47t45 78t18.5 112q-81 -19 -149 -19q-153 0 -277.5 76.5t-196 213.5t-71.5 306q0 233 120 385t300 152q134 0 274 -162v129h41zM350 571q0 -112 15.5 -204t48.5 -167t91.5 -117t137.5 -42q65 0 133 25
v778q-121 160 -225 160q-90 0 -145.5 -120.5t-55.5 -312.5z" />
    <glyph glyph-name="Gdotaccent" unicode="&#x120;" horiz-adv-x="1681" 
d="M885 1696q-66 0 -108 42t-42 105t42.5 106.5t107.5 43.5t106 -43.5t41 -106.5q0 -64 -41 -105.5t-106 -41.5zM889 -23q-125 0 -244 35t-220 103.5t-177.5 162t-120 217.5t-43.5 263q0 175 69 328t185.5 259t275 167t334.5 61q87 0 169.5 -15t140 -37t103.5 -47.5t70 -45
t31 -31.5v-455h-41q-4 269 -131 412t-358 143q-81 0 -150 -17t-137 -63.5t-116 -120t-77.5 -194.5t-29.5 -279q0 -227 57 -399.5t171 -271.5t270 -99q165 0 280 101t115 249q0 128 -99 206t-298 93v41h651v-743h-43l-82 434q-47 -225 -189.5 -341t-365.5 -116z" />
    <glyph glyph-name="gdotaccent" unicode="&#x121;" horiz-adv-x="1230" 
d="M616 1214q-65 0 -107 42t-42 106q0 63 42 106t107 43t106.5 -43t41.5 -106q0 -64 -41.5 -106t-106.5 -42zM817 1075l340 -41v-30l-133 -66v-836q0 -132 -45.5 -233.5t-127 -165t-189 -95.5t-236.5 -32l-258 252l43 37q105 -76 166.5 -107.5t130.5 -31.5q36 0 70 6.5
t70.5 24.5t64 47t45 78t18.5 112q-81 -19 -149 -19q-153 0 -277.5 76.5t-196 213.5t-71.5 306q0 233 120 385t300 152q134 0 274 -162v129h41zM350 571q0 -112 15.5 -204t48.5 -167t91.5 -117t137.5 -42q65 0 133 25v778q-121 160 -225 160q-90 0 -145.5 -120.5
t-55.5 -312.5z" />
    <glyph glyph-name="Gcommaaccent" unicode="&#x122;" horiz-adv-x="1681" 
d="M889 -23q-125 0 -244 35t-220 103.5t-177.5 162t-120 217.5t-43.5 263q0 175 69 328t185.5 259t275 167t334.5 61q87 0 169.5 -15t140 -37t103.5 -47.5t70 -45t31 -31.5v-455h-41q-4 269 -131 412t-358 143q-81 0 -150 -17t-137 -63.5t-116 -120t-77.5 -194.5t-29.5 -279
q0 -227 57 -399.5t171 -271.5t270 -99q165 0 280 101t115 249q0 128 -99 206t-298 93v41h651v-743h-43l-82 434q-47 -225 -189.5 -341t-365.5 -116zM870 -102q56 0 89.5 -32.5t33.5 -86.5q0 -66 -42 -142.5t-111 -136.5h-33q33 41 53.5 90t20.5 88q0 23 -15 42t-33.5 30
t-33.5 31t-15 45q0 33 23.5 52.5t62.5 19.5z" />
    <glyph glyph-name="gcommaaccent" unicode="&#x123;" horiz-adv-x="1230" 
d="M612 1200q-56 0 -89.5 32.5t-33.5 86.5q0 66 42.5 142t111.5 136h33q-33 -41 -53.5 -90t-20.5 -88q0 -23 15 -41.5t33 -29.5t33 -31t15 -45q0 -33 -23.5 -52.5t-62.5 -19.5zM817 1075l340 -41v-30l-133 -66v-836q0 -132 -45.5 -233.5t-127 -165t-189 -95.5t-236.5 -32
l-258 252l43 37q105 -76 166.5 -107.5t130.5 -31.5q36 0 70 6.5t70.5 24.5t64 47t45 78t18.5 112q-81 -19 -149 -19q-153 0 -277.5 76.5t-196 213.5t-71.5 306q0 233 120 385t300 152q134 0 274 -162v129h41zM350 571q0 -112 15.5 -204t48.5 -167t91.5 -117t137.5 -42
q65 0 133 25v778q-121 160 -225 160q-90 0 -145.5 -120.5t-55.5 -312.5z" />
    <glyph glyph-name="Hbar" unicode="&#x126;" horiz-adv-x="1736" 
d="M1636 1526l-153 -66v-239h137v-119h-137v-989l153 -82v-31h-604v31l154 82v655h-635v-655l154 -82v-31h-605v31l154 82v989h-135v119h135v239l-154 66v30h605v-30l-154 -66v-239h635v239l-154 66v30h604v-30zM1186 870v232h-635v-232h635z" />
    <glyph glyph-name="hbar" unicode="&#x127;" horiz-adv-x="1294" 
d="M1087 94l134 -63v-31h-494v31l113 63v604q0 172 -30.5 239t-111.5 67q-67 0 -130.5 -58t-110.5 -139v-713l112 -63v-31h-493v31l133 63v1131h-139v118h139v158l-133 66v30l340 41h41v-295h254v-118h-254v-303q47 79 126 132.5t191 53.5q60 0 113.5 -17t99.5 -52t73 -96.5
t27 -141.5v-707z" />
    <glyph glyph-name="Imacron" unicode="&#x12a;" horiz-adv-x="804" 
d="M115 1817v118h579v-118h-579zM100 0v31l154 82v1347l-154 66v30h605v-30l-154 -66v-1347l154 -82v-31h-605z" />
    <glyph glyph-name="imacron" unicode="&#x12b;" horiz-adv-x="663" 
d="M20 1335v119h580v-119h-580zM76 0v31l133 63v844l-133 66v30l340 41h41v-981l133 -63v-31h-514z" />
    <glyph glyph-name="Iogonek" unicode="&#x12e;" horiz-adv-x="804" 
d="M705 1526l-154 -66v-1347l154 -82v-31h-263q-141 -129 -141 -246q0 -54 25 -79t59 -25q50 0 92 57h51q-80 -131 -200 -131q-66 0 -112 38t-46 103q0 36 18.5 75.5t39 67t57 61.5t51.5 46t43 33h-279v31l154 82v1347l-154 66v30h605v-30z" />
    <glyph glyph-name="iogonek" unicode="&#x12f;" horiz-adv-x="638" 
d="M317 1251q-67 0 -110 45t-43 113q0 69 43 114.5t110 45.5t110.5 -45.5t43.5 -114.5q0 -68 -43.5 -113t-110.5 -45zM375 0q-142 -130 -142 -246q0 -54 25 -79t59 -25q51 0 93 57h51q-80 -131 -201 -131q-66 0 -112 38t-46 103q0 36 18.5 75.5t39 67t57 61.5t51.5 46t43 33
h-235v31l133 63v844l-133 66v30l340 41h41v-981l133 -63v-31h-215z" />
    <glyph glyph-name="Idotaccent" unicode="&#x130;" horiz-adv-x="804" 
d="M403 1696q-65 0 -107 42t-42 105t42 106.5t107 43.5t106.5 -43.5t41.5 -106.5q0 -64 -41.5 -105.5t-106.5 -41.5zM100 0v31l154 82v1347l-154 66v30h605v-30l-154 -66v-1347l154 -82v-31h-605z" />
    <glyph glyph-name="dotlessi" unicode="&#x131;" horiz-adv-x="663" 
d="M76 0v31l133 63v844l-133 66v30l340 41h41v-981l133 -63v-31h-514z" />
    <glyph glyph-name="Kcommaaccent" unicode="&#x136;" horiz-adv-x="1597" 
d="M100 0v31l154 82v1347l-154 66v30h605v-30l-154 -66v-667l543 692l-152 41v30h399v-30l-170 -45l-403 -529l606 -874l146 -47v-31h-605v31l156 43l-473 657l-47 -61v-557l154 -82v-31h-605zM760 -102q56 0 89.5 -32.5t33.5 -86.5q0 -66 -42.5 -142.5t-111.5 -136.5h-33
q33 41 53.5 90t20.5 88q0 23 -15 42t-33 30t-33 31t-15 45q0 33 23.5 52.5t62.5 19.5z" />
    <glyph glyph-name="kcommaaccent" unicode="&#x137;" horiz-adv-x="1271" 
d="M53 0v31l133 63v1407l-133 66v30l340 41h41v-1230l465 585l-149 51v31h399v-31l-188 -67l-226 -291l328 -612l135 -43v-31h-481v31l78 32l-220 418l-141 -180v-207l133 -63v-31h-514zM598 -102q56 0 89.5 -32.5t33.5 -86.5q0 -66 -42.5 -142.5t-111.5 -136.5h-32
q33 41 53 90t20 88q0 23 -15 42t-33 30t-33 31t-15 45q0 33 23.5 52.5t62.5 19.5z" />
    <glyph glyph-name="Lacute" unicode="&#x139;" horiz-adv-x="1224" 
d="M369 1659q88 179 171.5 282t145.5 103q26 0 47 -15t21 -36q0 -44 -97.5 -133.5t-261.5 -200.5h-26zM100 0v31l154 82v1347l-154 66v30h605v-30l-154 -66v-1255q0 -49 12 -70.5t49 -21.5h379l174 204h41q-12 -53 -29 -115t-27.5 -107t-14.5 -95h-1035z" />
    <glyph glyph-name="lacute" unicode="&#x13a;" horiz-adv-x="602" 
d="M137 1751q88 178 172 281.5t146 103.5q26 0 46.5 -15t20.5 -36q0 -44 -97 -134t-261 -200h-27zM53 0v31l133 63v1407l-133 66v30l340 41h41v-1544l133 -63v-31h-514z" />
    <glyph glyph-name="Lcommaaccent" unicode="&#x13b;" horiz-adv-x="1224" 
d="M100 0v31l154 82v1347l-154 66v30h605v-30l-154 -66v-1255q0 -49 12 -70.5t49 -21.5h379l174 204h41q-12 -53 -29 -115t-27.5 -107t-14.5 -95h-1035zM584 -102q56 0 89.5 -32.5t33.5 -86.5q0 -66 -42.5 -142.5t-111.5 -136.5h-33q33 41 53.5 90t20.5 88q0 23 -15 42
t-33 30t-33 31t-15 45q0 33 23.5 52.5t62.5 19.5z" />
    <glyph glyph-name="lcommaaccent" unicode="&#x13c;" horiz-adv-x="620" 
d="M53 0v31l133 63v1407l-133 66v30l340 41h41v-1544l133 -63v-31h-514zM268 -102q56 0 89.5 -32.5t33.5 -86.5q0 -66 -42 -142.5t-111 -136.5h-33q33 41 53.5 90t20.5 88q0 23 -15 42t-33.5 30t-33.5 31t-15 45q0 33 23.5 52.5t62.5 19.5z" />
    <glyph glyph-name="Lcaron" unicode="&#x13d;" horiz-adv-x="1224" 
d="M836 1075q42 42 67 100t25 111q0 49 -22 98.5t-56 79.5q0 54 31 85.5t82 31.5q48 0 77 -31t29 -90q0 -82 -51 -193.5t-141 -191.5h-41zM100 0v31l154 82v1347l-154 66v30h605v-30l-154 -66v-1255q0 -49 12 -70.5t49 -21.5h379l174 204h41q-12 -53 -29 -115t-27.5 -107
t-14.5 -95h-1035z" />
    <glyph glyph-name="lcaron" unicode="&#x13e;" horiz-adv-x="620" 
d="M510 1135q42 42 67 100t25 111q0 49 -22 98.5t-56 79.5q0 54 31 85t82 31q48 0 77 -30.5t29 -89.5q0 -82 -51 -193.5t-141 -191.5h-41zM53 0v31l133 63v1407l-133 66v30l340 41h41v-1544l133 -63v-31h-514z" />
    <glyph glyph-name="Lslash" unicode="&#x141;" horiz-adv-x="1224" 
d="M1165 317h41q-12 -53 -29 -115t-27.5 -107t-14.5 -95h-1035v31l154 82v641l-184 -80v160l184 79v547l-154 66v30h605v-30l-154 -66v-418l199 86v-161l-199 -86v-676q0 -49 12 -70.5t49 -21.5h379z" />
    <glyph glyph-name="lslash" unicode="&#x142;" horiz-adv-x="706" 
d="M98 0v31l133 63v813l-184 -76v119l184 76v475l-133 66v30l340 41h41v-508l168 70v-119l-168 -69v-918l133 -63v-31h-514z" />
    <glyph glyph-name="Nacute" unicode="&#x143;" horiz-adv-x="1527" 
d="M633 1659q88 179 171.5 282t145.5 103q26 0 47 -15t21 -36q0 -44 -97.5 -133.5t-261.5 -200.5h-26zM100 0v31l154 82v1347l-154 66v30h269l813 -1001v905l-154 66v30h399v-30l-153 -66v-1460h-72l-854 1042v-929l152 -82v-31h-400z" />
    <glyph glyph-name="nacute" unicode="&#x144;" horiz-adv-x="1294" 
d="M618 1178q88 178 172 281.5t146 103.5q26 0 47 -15.5t21 -36.5q0 -43 -97 -132.5t-262 -200.5h-27zM76 0v31l133 63v844l-133 66v30l340 41h41v-153q47 79 126 132.5t191 53.5q60 0 113.5 -17t99.5 -52t73 -96.5t27 -141.5v-707l134 -63v-31h-494v31l113 63v604
q0 172 -31 239t-113 67q-71 0 -133.5 -53t-105.5 -136v-721l112 -63v-31h-493z" />
    <glyph glyph-name="Ncommaaccent" unicode="&#x145;" horiz-adv-x="1527" 
d="M100 0v31l154 82v1347l-154 66v30h269l813 -1001v905l-154 66v30h399v-30l-153 -66v-1460h-72l-854 1042v-929l152 -82v-31h-400zM823 -102q56 0 89.5 -32.5t33.5 -86.5q0 -66 -42 -142.5t-111 -136.5h-33q33 41 53.5 90t20.5 88q0 23 -15 42t-33.5 30t-33.5 31t-15 45
q0 33 23.5 52.5t62.5 19.5z" />
    <glyph glyph-name="ncommaaccent" unicode="&#x146;" horiz-adv-x="1294" 
d="M76 0v31l133 63v844l-133 66v30l340 41h41v-153q47 79 126 132.5t191 53.5q60 0 113.5 -17t99.5 -52t73 -96.5t27 -141.5v-707l134 -63v-31h-494v31l113 63v604q0 172 -31 239t-113 67q-71 0 -133.5 -53t-105.5 -136v-721l112 -63v-31h-493zM629 -102q56 0 89.5 -32.5
t33.5 -86.5q0 -66 -42.5 -142.5t-111.5 -136.5h-33q33 41 53.5 90t20.5 88q0 23 -15 42t-33 30t-33 31t-15 45q0 33 23.5 52.5t62.5 19.5z" />
    <glyph glyph-name="Ncaron" unicode="&#x147;" horiz-adv-x="1527" 
d="M496 2044h36l222 -240l219 240h37q-127 -257 -154 -302q-43 -70 -81 -80q-10 -3 -21 -3q-46 0 -83.5 55t-136.5 254q-24 49 -38 76zM100 0v31l154 82v1347l-154 66v30h269l813 -1001v905l-154 66v30h399v-30l-153 -66v-1460h-72l-854 1042v-929l152 -82v-31h-400z" />
    <glyph glyph-name="ncaron" unicode="&#x148;" horiz-adv-x="1294" 
d="M410 1563h36l222 -240l219 240h37q-127 -257 -154 -302q-43 -70 -81 -80q-10 -3 -21 -3q-46 0 -83.5 55t-136.5 254q-24 49 -38 76zM76 0v31l133 63v844l-133 66v30l340 41h41v-153q47 79 126 132.5t191 53.5q60 0 113.5 -17t99.5 -52t73 -96.5t27 -141.5v-707l134 -63
v-31h-494v31l113 63v604q0 172 -31 239t-113 67q-71 0 -133.5 -53t-105.5 -136v-721l112 -63v-31h-493z" />
    <glyph glyph-name="Eng" unicode="&#x14a;" horiz-adv-x="1527" 
d="M1028 1556h399v-30l-153 -66v-1460q-1 -91 -20.5 -163t-65.5 -133t-131.5 -94.5t-206.5 -33.5q-137 0 -232 44.5t-184 143.5l211 416h37q-34 -111 -46.5 -168t-12.5 -116q0 -122 50.5 -181t133.5 -59q40 0 68.5 15.5t53 56t36.5 120t12 199.5v227l-629 768v-929l152 -82
v-31h-400v31l154 82v1347l-154 66v30h269l813 -1001v905l-154 66v30z" />
    <glyph glyph-name="eng" unicode="&#x14b;" horiz-adv-x="1161" 
d="M688 -424l-199 254l41 37q68 -68 130 -107t94 -39q37 0 61.5 46.5t24.5 123.5v807q0 172 -31 239t-113 67q-71 0 -133.5 -53t-105.5 -136v-721l112 -63v-31h-493v31l133 63v844l-133 66v30l340 41h41v-153q47 79 126 132.5t191 53.5q60 0 113.5 -17t99.5 -52t73 -96.5
t27 -141.5v-514q0 -228 -57 -396q-52 -150 -140 -232.5t-202 -82.5z" />
    <glyph glyph-name="Omacron" unicode="&#x14c;" horiz-adv-x="1644" 
d="M532 1817v118h580v-118h-580zM795 -23q-143 0 -273.5 59.5t-227 162.5t-153.5 251t-57 316q0 177 62.5 330t166.5 256t239 162t279 59q146 0 279.5 -59.5t233 -162t158.5 -249t59 -311.5q0 -172 -64.5 -325.5t-171 -259.5t-245.5 -167.5t-285 -61.5zM877 53
q176 0 253.5 161t77.5 474q0 397 -111.5 603t-312.5 206q-57 0 -108.5 -22t-98.5 -72.5t-81 -125.5t-54 -187t-20 -250q0 -152 24 -281t66.5 -221t100 -157t124.5 -96.5t140 -31.5z" />
    <glyph glyph-name="omacron" unicode="&#x14d;" horiz-adv-x="1245" 
d="M332 1335v119h579v-119h-579zM625 -23q-112 0 -206 37.5t-155.5 98t-104 138t-61 155.5t-18.5 153q0 61 13 123t39.5 124t71.5 116t104 96t141.5 66t179.5 24q116 0 210 -35t153.5 -90.5t99.5 -128.5t56.5 -144.5t16.5 -142.5q0 -72 -17 -148.5t-57.5 -157t-100.5 -142.5
t-154.5 -102t-210.5 -40zM653 61q67 0 123.5 66.5t88.5 176.5t32 237q0 128 -32.5 236t-99 177.5t-155.5 69.5q-122 0 -197 -123t-75 -307q0 -132 38 -253t112 -200.5t165 -79.5z" />
    <glyph glyph-name="Ohungarumlaut" unicode="&#x150;" horiz-adv-x="1644" 
d="M569 1659q88 178 172 281.5t146 103.5q26 0 46.5 -15t20.5 -36q0 -44 -97 -134t-261 -200h-27zM877 1659q88 179 171.5 282t145.5 103q26 0 47 -15t21 -36q0 -44 -97.5 -133.5t-261.5 -200.5h-26zM795 -23q-143 0 -273.5 59.5t-227 162.5t-153.5 251t-57 316
q0 177 62.5 330t166.5 256t239 162t279 59q146 0 279.5 -59.5t233 -162t158.5 -249t59 -311.5q0 -172 -64.5 -325.5t-171 -259.5t-245.5 -167.5t-285 -61.5zM877 53q176 0 253.5 161t77.5 474q0 397 -111.5 603t-312.5 206q-57 0 -108.5 -22t-98.5 -72.5t-81 -125.5
t-54 -187t-20 -250q0 -152 24 -281t66.5 -221t100 -157t124.5 -96.5t140 -31.5z" />
    <glyph glyph-name="ohungarumlaut" unicode="&#x151;" horiz-adv-x="1245" 
d="M307 1229q88 178 172 281.5t146 103.5q26 0 46.5 -15t20.5 -36q0 -44 -97 -134t-261 -200h-27zM614 1229q88 178 172 281.5t146 103.5q26 0 46.5 -15t20.5 -36q0 -44 -97 -134t-261 -200h-27zM625 -23q-112 0 -206 37.5t-155.5 98t-104 138t-61 155.5t-18.5 153
q0 61 13 123t39.5 124t71.5 116t104 96t141.5 66t179.5 24q116 0 210 -35t153.5 -90.5t99.5 -128.5t56.5 -144.5t16.5 -142.5q0 -72 -17 -148.5t-57.5 -157t-100.5 -142.5t-154.5 -102t-210.5 -40zM653 61q67 0 123.5 66.5t88.5 176.5t32 237q0 128 -32.5 236t-99 177.5
t-155.5 69.5q-122 0 -197 -123t-75 -307q0 -132 38 -253t112 -200.5t165 -79.5z" />
    <glyph glyph-name="OE" unicode="&#x152;" horiz-adv-x="2187" 
d="M795 -23q-143 0 -273.5 59.5t-227 162.5t-153.5 251t-57 316q0 177 62.5 330t166.5 256t239 162t279 59q170 0 324 -80v63h840q5 -49 17 -100.5t28.5 -114.5t25.5 -102h-41l-174 221h-338q-39 0 -50 -22.5t-11 -69.5v-500h236l71 174h62v-448h-62l-71 174h-236v-563
q0 -49 12 -70.5t49 -21.5h359l174 204h41q-12 -54 -29 -115t-28 -106.5t-15 -95.5h-860v76q-171 -99 -360 -99zM877 53q199 0 278 219v873q-51 174 -145.5 263t-225.5 89q-57 0 -108.5 -22t-98.5 -72.5t-81 -125.5t-54 -187t-20 -250q0 -152 24 -281t66.5 -221t100 -157
t124.5 -96.5t140 -31.5z" />
    <glyph glyph-name="oe" unicode="&#x153;" horiz-adv-x="1990" 
d="M625 -23q-112 0 -206 37.5t-155.5 98t-104 138t-61 155.5t-18.5 153q0 61 13 123t39.5 124t71.5 116t104 96t141.5 66t179.5 24q258 0 403 -166q67 79 164 122.5t215 43.5q132 0 232 -46.5t159.5 -145.5t59.5 -240v-80h-697v-31q0 -227 94 -365.5t248 -138.5
q116 0 215 80.5t158 218.5h51q-57 -170 -196.5 -276.5t-323.5 -106.5q-118 0 -218.5 47.5t-168.5 133.5q-150 -181 -399 -181zM653 61q67 0 123.5 66.5t88.5 176.5t32 237q0 128 -32.5 236t-99 177.5t-155.5 69.5q-122 0 -197 -123t-75 -307q0 -132 38 -253t112 -200.5
t165 -79.5zM1165 674h437q0 154 -56.5 248t-150.5 94q-103 0 -166.5 -94t-63.5 -248z" />
    <glyph glyph-name="Racute" unicode="&#x154;" horiz-adv-x="1652" 
d="M1018 1993q0 -44 -97.5 -133.5t-261.5 -200.5h-26q88 179 171.5 282t145.5 103q26 0 47 -15t21 -36zM1350 113l204 -82v-31h-645v31l146 59l-391 637h-113v-614l154 -82v-31h-605v31l154 82v1347l-154 66v30h695q97 0 190 -25.5t171 -72.5t125.5 -124.5t47.5 -172.5
q0 -146 -105 -250t-274 -151zM551 1358v-529h131q168 0 264 82.5t96 241.5q0 71 -21 125t-54.5 86.5t-82 53.5t-97 28.5t-105.5 7.5h-68q-38 0 -50.5 -20.5t-12.5 -75.5z" />
    <glyph glyph-name="racute" unicode="&#x155;" horiz-adv-x="946" 
d="M410 1178q88 179 171.5 282t145.5 103q26 0 47 -15.5t21 -36.5q0 -43 -97 -132.5t-262 -200.5h-26zM76 0v31l133 61v846l-133 66v30l360 41h21v-223h2q16 37 27.5 61t36.5 65t49.5 66t62 44.5t78.5 19.5q27 0 51.5 -8.5t40 -20t30.5 -29t22 -29t15 -27t9 -17.5l-119 -354
h-41q12 136 12 172q0 66 -17.5 97.5t-58.5 31.5q-106 0 -200 -207v-623l133 -63v-31h-514z" />
    <glyph glyph-name="Rcommaaccent" unicode="&#x156;" horiz-adv-x="1652" 
d="M1350 113l204 -82v-31h-645v31l146 59l-391 637h-113v-614l154 -82v-31h-605v31l154 82v1347l-154 66v30h695q97 0 190 -25.5t171 -72.5t125.5 -124.5t47.5 -172.5q0 -146 -105 -250t-274 -151zM551 1358v-529h131q168 0 264 82.5t96 241.5q0 71 -21 125t-54.5 86.5
t-82 53.5t-97 28.5t-105.5 7.5h-68q-38 0 -50.5 -20.5t-12.5 -75.5zM788 -102q56 0 89.5 -32.5t33.5 -86.5q0 -66 -42 -142.5t-111 -136.5h-33q33 41 53.5 90t20.5 88q0 23 -15 42t-33.5 30t-33.5 31t-15 45q0 33 23.5 52.5t62.5 19.5z" />
    <glyph glyph-name="rcommaaccent" unicode="&#x157;" horiz-adv-x="946" 
d="M76 0v31l133 61v846l-133 66v30l360 41h21v-223h2q16 37 27.5 61t36.5 65t49.5 66t62 44.5t78.5 19.5q27 0 51.5 -8.5t40 -20t30.5 -29t22 -29t15 -27t9 -17.5l-119 -354h-41q12 136 12 172q0 66 -17.5 97.5t-58.5 31.5q-106 0 -200 -207v-623l133 -63v-31h-514z
M434 -102q56 0 89.5 -32.5t33.5 -86.5q0 -66 -42.5 -142.5t-111.5 -136.5h-32q33 41 53 90t20 88q0 23 -15 42t-33 30t-33 31t-15 45q0 33 23.5 52.5t62.5 19.5z" />
    <glyph glyph-name="Rcaron" unicode="&#x158;" horiz-adv-x="1652" 
d="M725 1659q-46 0 -83.5 55t-136.5 254q-24 49 -38 76h37l221 -240l219 240h37q-127 -257 -154 -302q-43 -70 -81 -80q-10 -3 -21 -3zM1350 113l204 -82v-31h-645v31l146 59l-391 637h-113v-614l154 -82v-31h-605v31l154 82v1347l-154 66v30h695q97 0 190 -25.5t171 -72.5
t125.5 -124.5t47.5 -172.5q0 -146 -105 -250t-274 -151zM551 1358v-529h131q168 0 264 82.5t96 241.5q0 71 -21 125t-54.5 86.5t-82 53.5t-97 28.5t-105.5 7.5h-68q-38 0 -50.5 -20.5t-12.5 -75.5z" />
    <glyph glyph-name="rcaron" unicode="&#x159;" horiz-adv-x="946" 
d="M236 1563h36l222 -240l219 240h37q-127 -257 -154 -302q-43 -70 -81 -80q-10 -3 -21 -3q-46 0 -83.5 55t-136.5 254q-24 49 -38 76zM76 0v31l133 61v846l-133 66v30l360 41h21v-223h2q16 37 27.5 61t36.5 65t49.5 66t62 44.5t78.5 19.5q27 0 51.5 -8.5t40 -20t30.5 -29
t22 -29t15 -27t9 -17.5l-119 -354h-41q12 136 12 172q0 66 -17.5 97.5t-58.5 31.5q-106 0 -200 -207v-623l133 -63v-31h-514z" />
    <glyph glyph-name="Sacute" unicode="&#x15a;" horiz-adv-x="1333" 
d="M557 1659q88 179 171.5 282t145.5 103q26 0 47 -15t21 -36q0 -44 -97 -134t-261 -200h-27zM674 -23q-322 0 -574 240l154 399h61l-12 -135q-4 -50 -4 -73q0 -94 27.5 -163t78 -108.5t113 -58.5t139.5 -19q392 0 392 244q0 43 -10 75.5t-40.5 59.5t-57 44.5t-89.5 39
t-107 34.5t-139 38q-218 59 -328 193.5t-110 322.5q0 115 41 205.5t111.5 145.5t159.5 83.5t190 28.5q84 0 169 -18.5t149 -46.5t108.5 -54t68.5 -47l-118 -383h-62l6 98q10 182 -80.5 281.5t-259.5 99.5q-135 0 -222 -62t-87 -171q0 -52 23 -95t57.5 -71t87 -52t100 -39.5
t108.5 -32.5q13 -3 19 -5q48 -14 76 -22.5t72 -23t70.5 -27t63.5 -31.5t60 -39t50 -46.5t43.5 -57t31 -67t21 -81t6.5 -95.5q0 -125 -42 -223t-117 -159.5t-176 -93.5t-222 -32z" />
    <glyph glyph-name="sacute" unicode="&#x15b;" horiz-adv-x="946" 
d="M350 1178q88 178 172 281.5t146 103.5q26 0 46.5 -15.5t20.5 -36.5q0 -44 -97 -133t-261 -200h-27zM469 -23q-131 0 -236 47t-155 140l78 233h69q-6 -47 -6 -86q0 -72 20.5 -122t58.5 -75.5t80 -35.5t97 -10q125 0 178.5 45.5t53.5 117.5q0 62 -62.5 100t-202.5 72
q-38 9 -75.5 23t-87.5 44.5t-87 69t-63.5 100.5t-26.5 136q0 152 99.5 242t265.5 90q108 0 198.5 -39t145.5 -106l-66 -246h-51q0 150 -70 228.5t-180 78.5q-78 0 -136 -37.5t-58 -112.5q0 -29 9 -53t31 -43.5t42 -33.5t60 -29.5t66 -24t77 -24.5q43 -14 67 -22t58.5 -21
t54 -23t45 -25.5t39 -31t29 -37t23 -45.5t12.5 -54.5t5 -66.5q0 -95 -31 -166t-86.5 -113.5t-126 -63t-155.5 -20.5z" />
    <glyph glyph-name="Scedilla" unicode="&#x15e;" horiz-adv-x="1333" 
d="M1231 485q0 -121 -39 -216.5t-109.5 -157.5t-165.5 -95.5t-210 -38.5l-54 -94q79 0 127.5 -38.5t48.5 -94.5q0 -63 -48.5 -115.5t-135.5 -52.5q-58 0 -119 35v31q52 -21 97 -21q112 0 112 88q0 44 -38.5 75.5t-110.5 31.5v39l65 116q-307 8 -551 240l154 399h61l-12 -135
q-4 -50 -4 -73q0 -94 27.5 -163t78 -108.5t113 -58.5t139.5 -19q392 0 392 244q0 43 -10 75.5t-40.5 59.5t-57 44.5t-89.5 39t-107 34.5t-139 38q-218 59 -328 193.5t-110 322.5q0 115 41 205.5t111.5 145.5t159.5 83.5t190 28.5q84 0 169 -18.5t149 -46.5t108.5 -54
t68.5 -47l-118 -383h-62l6 98q10 182 -80.5 281.5t-259.5 99.5q-135 0 -222 -62t-87 -171q0 -52 23 -95t57.5 -71t87 -52t100 -39.5t108.5 -32.5q13 -3 19 -5q48 -14 76 -22.5t72 -23t70.5 -27t63.5 -31.5t60 -39t50 -46.5t43.5 -57t31 -67t21 -81t6.5 -95.5z" />
    <glyph glyph-name="scedilla" unicode="&#x15f;" horiz-adv-x="946" 
d="M868 340q0 -175 -100 -264t-262 -99l-55 -94q79 0 127.5 -38.5t48.5 -94.5q0 -63 -49 -115.5t-136 -52.5q-57 0 -118 35v31q52 -21 96 -21q112 0 112 88q0 44 -38.5 75.5t-110.5 31.5v39l66 116q-125 3 -223.5 50t-147.5 137l78 233h69q-6 -47 -6 -86q0 -72 20.5 -122
t58.5 -75.5t80 -35.5t97 -10q125 0 178.5 45.5t53.5 117.5q0 62 -62.5 100t-202.5 72q-38 9 -75.5 23t-87.5 44.5t-87 69t-63.5 100.5t-26.5 136q0 152 99.5 242t265.5 90q108 0 198.5 -39t145.5 -106l-66 -246h-51q0 150 -70 228.5t-180 78.5q-78 0 -136 -37.5t-58 -112.5
q0 -29 9 -53t31 -43.5t42 -33.5t60 -29.5t66 -24t77 -24.5q43 -14 67 -22t58.5 -21t54 -23t45 -25.5t39 -31t29 -37t23 -45.5t12.5 -54.5t5 -66.5z" />
    <glyph glyph-name="Scaron" unicode="&#x160;" horiz-adv-x="1333" 
d="M399 2044h37l221 -240l220 240h36q-127 -257 -154 -302q-43 -70 -81 -80q-10 -3 -21 -3q-46 0 -83.5 55t-136.5 254q-24 49 -38 76zM674 -23q-322 0 -574 240l154 399h61l-12 -135q-4 -50 -4 -73q0 -94 27.5 -163t78 -108.5t113 -58.5t139.5 -19q392 0 392 244
q0 43 -10 75.5t-40.5 59.5t-57 44.5t-89.5 39t-107 34.5t-139 38q-218 59 -328 193.5t-110 322.5q0 115 41 205.5t111.5 145.5t159.5 83.5t190 28.5q84 0 169 -18.5t149 -46.5t108.5 -54t68.5 -47l-118 -383h-62l6 98q10 182 -80.5 281.5t-259.5 99.5q-135 0 -222 -62
t-87 -171q0 -52 23 -95t57.5 -71t87 -52t100 -39.5t108.5 -32.5q13 -3 19 -5q48 -14 76 -22.5t72 -23t70.5 -27t63.5 -31.5t60 -39t50 -46.5t43.5 -57t31 -67t21 -81t6.5 -95.5q0 -125 -42 -223t-117 -159.5t-176 -93.5t-222 -32z" />
    <glyph glyph-name="scaron" unicode="&#x161;" horiz-adv-x="946" 
d="M207 1563h37l221 -240l219 240h37q-127 -257 -154 -302q-43 -70 -81 -80q-10 -3 -21 -3q-46 0 -83.5 55t-136.5 254q-24 49 -38 76zM469 -23q-131 0 -236 47t-155 140l78 233h69q-6 -47 -6 -86q0 -72 20.5 -122t58.5 -75.5t80 -35.5t97 -10q125 0 178.5 45.5t53.5 117.5
q0 62 -62.5 100t-202.5 72q-38 9 -75.5 23t-87.5 44.5t-87 69t-63.5 100.5t-26.5 136q0 152 99.5 242t265.5 90q108 0 198.5 -39t145.5 -106l-66 -246h-51q0 150 -70 228.5t-180 78.5q-78 0 -136 -37.5t-58 -112.5q0 -29 9 -53t31 -43.5t42 -33.5t60 -29.5t66 -24t77 -24.5
q43 -14 67 -22t58.5 -21t54 -23t45 -25.5t39 -31t29 -37t23 -45.5t12.5 -54.5t5 -66.5q0 -95 -31 -166t-86.5 -113.5t-126 -63t-155.5 -20.5z" />
    <glyph glyph-name="uni0162" unicode="&#x162;" horiz-adv-x="1521" 
d="M1350 1556q4 -50 14.5 -95t27.5 -107t29 -115h-51l-153 221h-246q-35 0 -48.5 -15t-13.5 -56v-1276l154 -82v-31h-279l-67 -117q79 0 127.5 -38.5t48.5 -94.5q0 -63 -48.5 -115.5t-135.5 -52.5q-58 0 -119 35v31q52 -21 96 -21q113 0 113 88q0 43 -39 75t-111 32v39
l80 139h-270v31l153 82v1276q0 41 -13 56t-48 15h-246l-153 -221h-52q12 54 29 115t28 106.5t15 95.5h1178z" />
    <glyph glyph-name="uni0163" unicode="&#x163;" horiz-adv-x="772" 
d="M739 156q-43 -78 -123.5 -127t-171.5 -52l-53 -94q79 0 127.5 -38.5t48.5 -94.5q0 -63 -48.5 -115.5t-135.5 -52.5q-58 0 -119 35v31q52 -21 96 -21q113 0 113 88q0 44 -38.5 75.5t-110.5 31.5v39l67 121q-93 15 -148 94t-55 200v707h-155v61q120 18 216 125t103 254h82
v-348h271v-92h-271v-737q0 -78 33.5 -126t87.5 -48q31 0 63.5 23t55.5 61h65z" />
    <glyph glyph-name="Tcaron" unicode="&#x164;" horiz-adv-x="1521" 
d="M504 2044h37l221 -240l219 240h37q-127 -257 -154 -302q-43 -70 -81 -80q-10 -3 -21 -3q-46 0 -83.5 55t-136.5 254q-24 49 -38 76zM459 0v31l153 82v1276q0 41 -13 56t-48 15h-246l-153 -221h-52q12 54 29 115t28 106.5t15 95.5h1178q4 -50 14.5 -95t27.5 -107t29 -115
h-51l-153 221h-246q-35 0 -48.5 -15t-13.5 -56v-1276l154 -82v-31h-604z" />
    <glyph glyph-name="tcaron" unicode="&#x165;" horiz-adv-x="811" 
d="M545 1135q42 42 67 100t25 111q0 49 -22 98.5t-56 79.5q0 54 31 85t82 31q48 0 77 -30.5t29 -89.5q0 -82 -51 -193.5t-141 -191.5h-41zM436 -23q-112 0 -180 82t-68 217v707h-155v61q120 18 216 125t103 254h82v-348h271v-92h-271v-737q0 -78 33.5 -126t87.5 -48
q31 0 63.5 23t55.5 61h65q-44 -80 -127.5 -129.5t-175.5 -49.5z" />
    <glyph glyph-name="Tbar" unicode="&#x166;" horiz-adv-x="1521" 
d="M1350 1556q4 -50 14.5 -95t27.5 -107t29 -115h-51l-153 221h-246q-35 0 -48.5 -15t-13.5 -56v-551h172v-119h-172v-606l154 -82v-31h-604v31l153 82v606h-172v119h172v551q0 41 -13 56t-48 15h-246l-153 -221h-52q12 54 29 115t28 106.5t15 95.5h1178z" />
    <glyph glyph-name="tbar" unicode="&#x167;" horiz-adv-x="772" 
d="M674 156h65q-44 -80 -127.5 -129.5t-175.5 -49.5q-112 0 -180 82t-68 217v203h-104v119h104v385h-155v61q120 18 216 125t103 254h82v-348h271v-92h-271v-385h291v-119h-291v-233q0 -78 33.5 -126t87.5 -48q31 0 63.5 23t55.5 61z" />
    <glyph glyph-name="Umacron" unicode="&#x16a;" horiz-adv-x="1630" 
d="M575 1817v118h580v-118h-580zM827 -23q-134 0 -235 30t-165 82t-104 131t-55.5 167.5t-15.5 200.5v872l-154 66v30h604v-30l-153 -66v-729q0 -93 2.5 -163t10 -143t21 -125t35.5 -99.5t52.5 -76.5t73.5 -46t98 -17q157 0 252 49t143.5 165.5t48.5 312.5v872l-153 66v30
h399v-30l-154 -66v-872q0 -146 -27 -254t-89 -190.5t-170.5 -124.5t-264.5 -42z" />
    <glyph glyph-name="umacron" unicode="&#x16b;" horiz-adv-x="1251" 
d="M336 1335v119h579v-119h-579zM500 -33q-62 0 -113 17t-92.5 52t-64.5 95.5t-23 142.5v664l-133 66v30l340 41h41v-760q0 -81 9.5 -133t27.5 -74.5t34.5 -29t40.5 -6.5q77 0 127.5 50t102.5 179v637l-133 66v30l340 41h40v-938l134 -65v-31l-340 -41h-41v174
q-87 -207 -297 -207z" />
    <glyph glyph-name="Uring" unicode="&#x16e;" horiz-adv-x="1630" 
d="M846 1665q-78 0 -134.5 56.5t-56.5 133.5t56.5 133t134.5 56q75 0 131.5 -56.5t56.5 -132.5t-56.5 -133t-131.5 -57zM846 1745q43 0 75.5 33t32.5 77q0 45 -32.5 77t-75.5 32q-46 0 -78.5 -32.5t-32.5 -76.5q0 -45 32.5 -77.5t78.5 -32.5zM827 -23q-134 0 -235 30
t-165 82t-104 131t-55.5 167.5t-15.5 200.5v872l-154 66v30h604v-30l-153 -66v-729q0 -93 2.5 -163t10 -143t21 -125t35.5 -99.5t52.5 -76.5t73.5 -46t98 -17q157 0 252 49t143.5 165.5t48.5 312.5v872l-153 66v30h399v-30l-154 -66v-872q0 -146 -27 -254t-89 -190.5
t-170.5 -124.5t-264.5 -42z" />
    <glyph glyph-name="uring" unicode="&#x16f;" horiz-adv-x="1251" 
d="M606 1184q-78 0 -134 56.5t-56 133.5t56 133t134 56q75 0 132 -56.5t57 -132.5t-57 -133t-132 -57zM606 1264q43 0 76 33t33 77q0 45 -33 77t-76 32q-46 0 -78 -32.5t-32 -76.5q0 -45 32.5 -77.5t77.5 -32.5zM500 -33q-62 0 -113 17t-92.5 52t-64.5 95.5t-23 142.5v664
l-133 66v30l340 41h41v-760q0 -81 9.5 -133t27.5 -74.5t34.5 -29t40.5 -6.5q77 0 127.5 50t102.5 179v637l-133 66v30l340 41h40v-938l134 -65v-31l-340 -41h-41v174q-87 -207 -297 -207z" />
    <glyph glyph-name="Uhungarumlaut" unicode="&#x170;" horiz-adv-x="1630" 
d="M612 1659q88 178 172 281.5t146 103.5q26 0 46.5 -15t20.5 -36q0 -44 -97 -134t-261 -200h-27zM920 1659q88 179 171.5 282t145.5 103q26 0 47 -15t21 -36q0 -44 -97.5 -133.5t-261.5 -200.5h-26zM827 -23q-134 0 -235 30t-165 82t-104 131t-55.5 167.5t-15.5 200.5v872
l-154 66v30h604v-30l-153 -66v-729q0 -93 2.5 -163t10 -143t21 -125t35.5 -99.5t52.5 -76.5t73.5 -46t98 -17q157 0 252 49t143.5 165.5t48.5 312.5v872l-153 66v30h399v-30l-154 -66v-872q0 -146 -27 -254t-89 -190.5t-170.5 -124.5t-264.5 -42z" />
    <glyph glyph-name="uhungarumlaut" unicode="&#x171;" horiz-adv-x="1251" 
d="M270 1229q88 178 172 281.5t146 103.5q26 0 46.5 -15t20.5 -36q0 -44 -97 -134t-261 -200h-27zM578 1229q88 179 171.5 282t145.5 103q26 0 47 -15t21 -36q0 -44 -97.5 -133.5t-261.5 -200.5h-26zM500 -33q-62 0 -113 17t-92.5 52t-64.5 95.5t-23 142.5v664l-133 66v30
l340 41h41v-760q0 -81 9.5 -133t27.5 -74.5t34.5 -29t40.5 -6.5q77 0 127.5 50t102.5 179v637l-133 66v30l340 41h40v-938l134 -65v-31l-340 -41h-41v174q-87 -207 -297 -207z" />
    <glyph glyph-name="Uogonek" unicode="&#x172;" horiz-adv-x="1630" 
d="M1133 1556h399v-30l-154 -66v-872q0 -130 -21 -229t-69 -179t-131 -128.5t-201 -65.5q-127 -122 -127 -232q0 -54 25 -79t59 -25q51 0 93 57h51q-80 -131 -201 -131q-66 0 -112 38t-46 103q0 122 183 263q-27 -3 -54 -3q-134 0 -235 30t-165 82t-104 131t-55.5 167.5
t-15.5 200.5v872l-154 66v30h604v-30l-153 -66v-729q0 -93 2.5 -163t10 -143t21 -125t35.5 -99.5t52.5 -76.5t73.5 -46t98 -17q157 0 252 49t143.5 165.5t48.5 312.5v872l-153 66v30z" />
    <glyph glyph-name="uogonek" unicode="&#x173;" horiz-adv-x="1251" 
d="M862 2q-143 -136 -143 -248q0 -54 25 -79t59 -25q50 0 92 57h51q-80 -131 -201 -131q-66 0 -111.5 38t-45.5 103q0 36 18.5 75.5t39 67t57 61.5t51.5 46t43 33v174q-87 -207 -297 -207q-62 0 -113 17t-92.5 52t-64.5 95.5t-23 142.5v664l-133 66v30l340 41h41v-760
q0 -81 9.5 -133t27.5 -74.5t34.5 -29t40.5 -6.5q77 0 127.5 50t102.5 179v637l-133 66v30l340 41h40v-938l134 -65v-31z" />
    <glyph glyph-name="Wcircumflex" unicode="&#x174;" horiz-adv-x="2326" 
d="M983 1659q14 27 38 76q100 199 137 254t83 55q47 0 84 -56t137 -258q22 -46 35 -71h-37l-219 239l-221 -239h-37zM758 0l-490 1432l-170 94v30h625v-30l-127 -66l319 -930l293 1026h195l352 -1026l270 951l-196 65v31h399v-31l-125 -67l-436 -1479h-70l-413 1208
l-357 -1208h-69z" />
    <glyph glyph-name="wcircumflex" unicode="&#x175;" horiz-adv-x="1908" 
d="M760 1178q14 27 38 76q100 199 137 254t83 55q47 0 84 -56t137 -258q22 -46 35 -71h-37l-219 239l-221 -239h-37zM549 0l-316 983l-159 61v31h542v-31l-116 -45l233 -680l195 756h227l252 -756l176 687l-147 38v31h399v-31l-176 -43l-273 -1001h-163l-277 860l-233 -860
h-164z" />
    <glyph glyph-name="Ycircumflex" unicode="&#x176;" horiz-adv-x="1644" 
d="M616 1659q14 27 38 76q100 199 137 254t83 55q47 0 84 -56t137 -258q22 -46 35 -71h-36l-220 239l-221 -239h-37zM539 0v31l153 82v462l-424 885l-170 66v30h625v-30l-143 -47l370 -817l359 806l-183 58v30h420v-30l-160 -72l-397 -866v-475l154 -82v-31h-604z" />
    <glyph glyph-name="ycircumflex" unicode="&#x177;" horiz-adv-x="1355" 
d="M461 1178q14 27 38 76q100 199 137 254t83 55q47 0 84 -56t137 -258q22 -46 35 -71h-37l-219 239l-221 -239h-37zM330 -422l-256 252l41 37q53 -38 85.5 -59.5t76.5 -40.5t79 -19q89 0 171.5 90t82.5 182l-387 979l-149 45v31h542v-31l-139 -45l289 -729l266 736l-145 38
v31h399v-31l-176 -45l-309 -858q-34 -92 -83 -186t-110.5 -181t-135 -141.5t-142.5 -54.5z" />
    <glyph glyph-name="Ydieresis" unicode="&#x178;" horiz-adv-x="1644" 
d="M680 1700q-61 0 -99 37.5t-38 95.5q0 59 38 99t99 40q59 0 97 -40t38 -99q0 -57 -37.5 -95t-97.5 -38zM1071 1700q-61 0 -99 37.5t-38 95.5q0 59 38 99t99 40q59 0 97 -40t38 -99q0 -57 -38 -95t-97 -38zM539 0v31l153 82v462l-424 885l-170 66v30h625v-30l-143 -47
l370 -817l359 806l-183 58v30h420v-30l-160 -72l-397 -866v-475l154 -82v-31h-604z" />
    <glyph glyph-name="Zacute" unicode="&#x179;" horiz-adv-x="1245" 
d="M532 1659q88 178 172 281.5t146 103.5q26 0 47 -15t21 -36q0 -44 -97.5 -133.5t-261.5 -200.5h-27zM111 0l-11 72l639 1388h-403l-174 -231h-41q12 58 39 160.5t33 166.5h860l10 -55l-631 -1388h498l174 204h41q-12 -54 -29 -115t-28 -106.5t-15 -95.5h-962z" />
    <glyph glyph-name="zacute" unicode="&#x17a;" horiz-adv-x="999" 
d="M770 1511q0 -44 -97 -133t-261 -200h-27q88 179 171.5 282t145.5 103q26 0 47 -15.5t21 -36.5zM862 317h62q-12 -54 -29 -115t-28 -106.5t-15 -95.5h-768l-10 41l491 952h-241l-154 -245h-61q11 55 38 159t33 168h686l11 -41l-492 -952h324z" />
    <glyph glyph-name="Zdotaccent" unicode="&#x17b;" horiz-adv-x="1245" 
d="M623 1696q-66 0 -108 42t-42 105t42.5 106.5t107.5 43.5t106 -43.5t41 -106.5q0 -64 -41 -105.5t-106 -41.5zM111 0l-11 72l639 1388h-403l-174 -231h-41q12 58 39 160.5t33 166.5h860l10 -55l-631 -1388h498l174 204h41q-12 -54 -29 -115t-28 -106.5t-15 -95.5h-962z
" />
    <glyph glyph-name="zdotaccent" unicode="&#x17c;" horiz-adv-x="999" 
d="M520 1214q-65 0 -107 42t-42 106q0 63 42 106t107 43t106.5 -43t41.5 -106q0 -64 -41.5 -106t-106.5 -42zM862 317h62q-12 -54 -29 -115t-28 -106.5t-15 -95.5h-768l-10 41l491 952h-241l-154 -245h-61q11 55 38 159t33 168h686l11 -41l-492 -952h324z" />
    <glyph glyph-name="Zcaron" unicode="&#x17d;" horiz-adv-x="1245" 
d="M365 2044h36l222 -240l219 240h37q-127 -257 -154 -302q-43 -70 -81 -80q-10 -3 -21 -3q-46 0 -83.5 55t-136.5 254q-24 49 -38 76zM111 0l-11 72l639 1388h-403l-174 -231h-41q12 58 39 160.5t33 166.5h860l10 -55l-631 -1388h498l174 204h41q-12 -54 -29 -115
t-28 -106.5t-15 -95.5h-962z" />
    <glyph glyph-name="zcaron" unicode="&#x17e;" horiz-adv-x="999" 
d="M520 1178q-46 0 -83.5 55t-136.5 254q-24 49 -38 76h37l221 -240l219 240h37q-127 -257 -154 -302q-43 -70 -81 -80q-10 -3 -21 -3zM862 317h62q-12 -54 -29 -115t-28 -106.5t-15 -95.5h-768l-10 41l491 952h-241l-154 -245h-61q11 55 38 159t33 168h686l11 -41
l-492 -952h324z" />
    <glyph glyph-name="florin" unicode="&#x192;" horiz-adv-x="1140" 
d="M307 -25q-66 0 -110 25t-60 66l27 274h57q0 -150 22 -221.5t83 -71.5q30 0 51.5 14t36 47t23.5 71.5t13 105.5t5.5 130.5t1.5 162.5v190h-199v127h199v121q0 270 85 413.5t234 143.5q57 0 99 -13.5t67 -38.5t38 -47t24 -51l-27 -276h-57q0 175 -29.5 262.5t-104.5 87.5
q-54 0 -73 -86t-19 -276v-222v-18h205v-127h-205v-123q0 -321 -99 -495.5t-288 -174.5z" />
    <glyph glyph-name="Scommaaccent" unicode="&#x218;" horiz-adv-x="1333" 
d="M674 -23q-322 0 -574 240l154 399h61l-12 -135q-4 -50 -4 -73q0 -94 27.5 -163t78 -108.5t113 -58.5t139.5 -19q392 0 392 244q0 43 -10 75.5t-40.5 59.5t-57 44.5t-89.5 39t-107 34.5t-139 38q-218 59 -328 193.5t-110 322.5q0 115 41 205.5t111.5 145.5t159.5 83.5
t190 28.5q84 0 169 -18.5t149 -46.5t108.5 -54t68.5 -47l-118 -383h-62l6 98q10 182 -80.5 281.5t-259.5 99.5q-135 0 -222 -62t-87 -171q0 -52 23 -95t57.5 -71t87 -52t100 -39.5t108.5 -32.5q13 -3 19 -5q48 -14 76 -22.5t72 -23t70.5 -27t63.5 -31.5t60 -39t50 -46.5
t43.5 -57t31 -67t21 -81t6.5 -95.5q0 -125 -42 -223t-117 -159.5t-176 -93.5t-222 -32zM670 -102q56 0 89.5 -32.5t33.5 -86.5q0 -66 -42.5 -142.5t-111.5 -136.5h-33q33 41 53.5 90t20.5 88q0 23 -15 42t-33 30t-33 31t-15 45q0 33 23.5 52.5t62.5 19.5z" />
    <glyph glyph-name="scommaaccent" unicode="&#x219;" horiz-adv-x="946" 
d="M469 -23q-131 0 -236 47t-155 140l78 233h69q-6 -47 -6 -86q0 -72 20.5 -122t58.5 -75.5t80 -35.5t97 -10q125 0 178.5 45.5t53.5 117.5q0 62 -62.5 100t-202.5 72q-38 9 -75.5 23t-87.5 44.5t-87 69t-63.5 100.5t-26.5 136q0 152 99.5 242t265.5 90q108 0 198.5 -39
t145.5 -106l-66 -246h-51q0 150 -70 228.5t-180 78.5q-78 0 -136 -37.5t-58 -112.5q0 -29 9 -53t31 -43.5t42 -33.5t60 -29.5t66 -24t77 -24.5q43 -14 67 -22t58.5 -21t54 -23t45 -25.5t39 -31t29 -37t23 -45.5t12.5 -54.5t5 -66.5q0 -95 -31 -166t-86.5 -113.5t-126 -63
t-155.5 -20.5zM426 -102q56 0 89.5 -32.5t33.5 -86.5q0 -66 -42.5 -142.5t-111.5 -136.5h-33q33 41 53.5 90t20.5 88q0 23 -15 42t-33 30t-33 31t-15 45q0 33 23.5 52.5t62.5 19.5z" />
    <glyph glyph-name="uni021A" unicode="&#x21a;" horiz-adv-x="1521" 
d="M459 0v31l153 82v1276q0 41 -13 56t-48 15h-246l-153 -221h-52q12 54 29 115t28 106.5t15 95.5h1178q4 -50 14.5 -95t27.5 -107t29 -115h-51l-153 221h-246q-35 0 -48.5 -15t-13.5 -56v-1276l154 -82v-31h-604zM723 -102q56 0 89.5 -32.5t33.5 -86.5q0 -66 -42.5 -142.5
t-111.5 -136.5h-33q33 41 53.5 90t20.5 88q0 23 -15 42t-33 30t-33 31t-15 45q0 33 23.5 52.5t62.5 19.5z" />
    <glyph glyph-name="uni021B" unicode="&#x21b;" horiz-adv-x="772" 
d="M436 -23q-112 0 -180 82t-68 217v707h-155v61q120 18 216 125t103 254h82v-348h271v-92h-271v-737q0 -78 33.5 -126t87.5 -48q31 0 63.5 23t55.5 61h65q-44 -80 -127.5 -129.5t-175.5 -49.5zM367 -102q55 0 88.5 -32.5t33.5 -86.5q0 -66 -42 -142.5t-111 -136.5h-33
q33 41 53.5 90t20.5 88q0 23 -15 42t-33 30t-33 31t-15 45q0 33 23.5 52.5t62.5 19.5z" />
    <glyph glyph-name="circumflex" unicode="&#x2c6;" horiz-adv-x="1228" 
d="M94 1178q14 27 38 76q100 199 137 254t83 55q47 0 84 -56t137 -258q22 -46 35 -71h-37l-219 239l-221 -239h-37z" />
    <glyph glyph-name="caron" unicode="&#x2c7;" horiz-adv-x="1228" 
d="M94 1563h37l221 -240l219 240h37q-127 -257 -154 -302q-43 -70 -81 -80q-10 -3 -21 -3q-46 0 -83.5 55t-136.5 254q-24 49 -38 76z" />
    <glyph glyph-name="breve" unicode="&#x2d8;" horiz-adv-x="1228" 
d="M352 1178q-52 0 -99.5 23.5t-88 68.5t-64.5 121t-24 172h30q5 -109 72 -183.5t174 -74.5t174 74.5t72 183.5h31q0 -96 -24.5 -172t-64.5 -121t-88 -68.5t-100 -23.5z" />
    <glyph glyph-name="dotaccent" unicode="&#x2d9;" horiz-adv-x="1228" 
d="M238 1214q-66 0 -108 42t-42 106q0 62 42.5 105.5t107.5 43.5t106 -43t41 -106q0 -64 -41 -106t-106 -42z" />
    <glyph glyph-name="ring" unicode="&#x2da;" horiz-adv-x="1228" 
d="M250 1184q-78 0 -134.5 56.5t-56.5 133.5t56.5 133t134.5 56q75 0 131.5 -56.5t56.5 -132.5t-56.5 -133t-131.5 -57zM250 1264q43 0 75.5 33t32.5 77q0 45 -32.5 77t-75.5 32q-46 0 -78.5 -32.5t-32.5 -76.5t32.5 -77t78.5 -33z" />
    <glyph glyph-name="ogonek" unicode="&#x2db;" horiz-adv-x="1228" 
d="M180 -424q-66 0 -111.5 38t-45.5 103q0 40 19.5 81.5t51.5 76.5t60 60.5t57.5 49t32.5 25.5h61q-22 -21 -32 -30.5t-37 -40.5t-41.5 -55.5t-27.5 -60.5t-13 -69q0 -54 25 -79t59 -25q50 0 92 57h51q-80 -131 -201 -131z" />
    <glyph glyph-name="tilde" unicode="&#x2dc;" horiz-adv-x="1228" 
d="M78 1249q11 101 57.5 158t128.5 57q43 0 85 -25t80 -50t71 -25q41 0 66.5 21t41.5 79h47q-11 -101 -58 -158t-130 -57q-35 0 -69 16t-57 34.5t-52.5 34.5t-55.5 16q-41 0 -66.5 -21.5t-41.5 -79.5h-47z" />
    <glyph glyph-name="hungarumlaut" unicode="&#x2dd;" horiz-adv-x="1228" 
d="M55 1178q88 178 172 281.5t146 103.5q26 0 46.5 -15.5t20.5 -36.5q0 -44 -97 -133t-261 -200h-27zM362 1178q88 178 172 281.5t146 103.5q26 0 47 -15.5t21 -36.5q0 -43 -97 -132.5t-262 -200.5h-27z" />
    <glyph glyph-name="gravecomb" unicode="&#x300;" horiz-adv-x="0" 
d="M-80 1178q-162 109 -260 199t-98 130q0 25 20 40.5t53 15.5q56 0 141.5 -106t170.5 -279h-27z" />
    <glyph glyph-name="acutecomb" unicode="&#x301;" horiz-adv-x="0" 
d="M-438 1178q88 179 171.5 282t145.5 103q26 0 47 -15.5t21 -36.5q0 -43 -97 -132.5t-262 -200.5h-26z" />
    <glyph glyph-name="uni0302" unicode="&#x302;" horiz-adv-x="0" 
d="M-610 1178q14 27 38 76q100 199 137 254t83 55q47 0 84 -56t137 -258q22 -46 35 -71h-37l-219 239l-221 -239h-37z" />
    <glyph glyph-name="tildecomb" unicode="&#x303;" horiz-adv-x="0" 
d="M-655 1249q11 101 57.5 158t128.5 57q43 0 85 -25t80 -50t71 -25q41 0 66.5 21t41.5 79h47q-11 -101 -58 -158t-130 -57q-35 0 -69 16t-57 34.5t-52.5 34.5t-55.5 16q-41 0 -66.5 -21.5t-41.5 -79.5h-47z" />
    <glyph glyph-name="uni0304" unicode="&#x304;" horiz-adv-x="0" 
d="M-682 1335v119h580v-119h-580z" />
    <glyph glyph-name="uni0306" unicode="&#x306;" horiz-adv-x="0" 
d="M-352 1178q-52 0 -100 23.5t-88 68.5t-64.5 121t-24.5 172h31q5 -109 72 -183.5t174 -74.5t174 74.5t72 183.5h30q0 -96 -24 -172t-64.5 -121t-88 -68.5t-99.5 -23.5z" />
    <glyph glyph-name="uni0307" unicode="&#x307;" horiz-adv-x="0" 
d="M-236 1214q-65 0 -107 42t-42 106q0 63 42 106t107 43t106.5 -43t41.5 -106q0 -64 -41.5 -106t-106.5 -42z" />
    <glyph glyph-name="uni0308" unicode="&#x308;" horiz-adv-x="0" 
d="M-600 1219q-61 0 -99 37.5t-38 95.5q0 59 38 99t99 40q59 0 97 -40t38 -99q0 -58 -37.5 -95.5t-97.5 -37.5zM-209 1219q-61 0 -99 37.5t-38 95.5q0 59 38 99t99 40q59 0 97 -40t38 -99q0 -58 -38 -95.5t-97 -37.5z" />
    <glyph glyph-name="uni030A" unicode="&#x30a;" horiz-adv-x="0" 
d="M-248 1184q-78 0 -134 56.5t-56 133.5t56 133t134 56q75 0 132 -56.5t57 -132.5t-57 -133t-132 -57zM-248 1264q43 0 76 33t33 77q0 45 -33 77t-76 32q-46 0 -78 -32.5t-32 -76.5q0 -45 32.5 -77.5t77.5 -32.5z" />
    <glyph glyph-name="uni030B" unicode="&#x30b;" horiz-adv-x="0" 
d="M-770 1178q88 179 171.5 282t145.5 103q26 0 47 -15.5t21 -36.5q0 -44 -97 -133t-261 -200h-27zM-463 1178q88 178 172 281.5t146 103.5q26 0 46.5 -15.5t20.5 -36.5q0 -44 -97 -133t-261 -200h-27z" />
    <glyph glyph-name="uni030C" unicode="&#x30c;" horiz-adv-x="0" 
d="M-610 1563h37l221 -240l219 240h37q-127 -257 -154 -302q-43 -70 -81 -80q-10 -3 -21 -3q-46 0 -83.5 55t-136.5 254q-24 49 -38 76z" />
    <glyph glyph-name="uni0312" unicode="&#x312;" horiz-adv-x="0" 
d="M-170 1200q-56 0 -89.5 32.5t-33.5 86.5q0 66 42.5 142t111.5 136h33q-33 -41 -53.5 -90t-20.5 -88q0 -23 15 -41.5t33 -29.5t33 -31t15 -45q0 -33 -23.5 -52.5t-62.5 -19.5z" />
    <glyph glyph-name="uni0326" unicode="&#x326;" horiz-adv-x="0" 
d="M-201 -102q56 0 89.5 -32.5t33.5 -86.5q0 -66 -42 -142.5t-111 -136.5h-33q33 41 53.5 90t20.5 88q0 23 -15 42t-33.5 30t-33.5 31t-15 45q0 33 23.5 52.5t62.5 19.5z" />
    <glyph glyph-name="uni0327" unicode="&#x327;" horiz-adv-x="0" 
d="M-246 -418q-58 0 -119 35v31q53 -21 97 -21q112 0 112 88q0 44 -38.5 75.5t-110.5 31.5v39l94 166h55l-82 -144q79 0 128 -38.5t49 -94.5q0 -63 -49 -115.5t-136 -52.5z" />
    <glyph glyph-name="uni0328" unicode="&#x328;" horiz-adv-x="0" 
d="M-276 -424q-66 0 -112 38t-46 103q0 40 19.5 81.5t51.5 76.5t60 60.5t57.5 49t32.5 25.5h61q-22 -21 -32 -30.5t-37 -40.5t-41.5 -55.5t-27.5 -60.5t-13 -69q0 -54 25 -79t59 -25q50 0 92 57h51q-80 -131 -200 -131z" />
    <glyph glyph-name="uni0335" unicode="&#x335;" horiz-adv-x="0" 
d="M-743 516v119h641v-119h-641z" />
    <glyph glyph-name="uni0336" unicode="&#x336;" horiz-adv-x="0" 
d="M-1542 516v119h1501v-119h-1501z" />
    <glyph glyph-name="uni0337" unicode="&#x337;" horiz-adv-x="0" 
d="M-762 463v160l680 295v-162z" />
    <glyph glyph-name="uni0338" unicode="&#x338;" horiz-adv-x="0" 
d="M-1307 -94l1112 1579h158l-1114 -1579h-156z" />
    <glyph glyph-name="uni0394" unicode="&#x394;" horiz-adv-x="1208" 
d="M10 0l508 1317h144l536 -1317h-1188zM248 154h717l-373 884z" />
    <glyph glyph-name="uni03A9" unicode="&#x3a9;" horiz-adv-x="1466" 
d="M150 0v51l307 53q-173 93 -275 261t-102 331q0 132 46 248.5t129 204t206.5 138t271.5 50.5t271.5 -50.5t206.5 -138t129 -204t46 -248.5q0 -163 -101 -330.5t-275 -261.5l307 -53v-51h-498v119q143 36 252 198.5t109 378.5q0 213 -123 343t-324 130t-323.5 -129.5
t-122.5 -343.5q0 -216 108.5 -378.5t251.5 -198.5v-119h-497z" />
    <glyph glyph-name="uni03BC" unicode="&#x3bc;" horiz-adv-x="1251" 
d="M74 -389v31l133 63v1233l-133 66v30l340 41h41v-760q0 -81 9.5 -133t27.5 -74.5t34.5 -29t40.5 -6.5q77 0 127.5 50t102.5 179v637l-133 66v30l340 41h40v-938l134 -65v-31l-340 -41h-41v174q-87 -207 -297 -207q-31 0 -45 2v-264l133 -63v-31h-514z" />
    <glyph glyph-name="pi" unicode="&#x3c0;" horiz-adv-x="1304" 
d="M76 0v31l133 63v981h889v-981l133 -63v-31h-514v31l133 63v787h-393v-787l133 -63v-31h-514z" />
    <glyph glyph-name="Wgrave" unicode="&#x1e80;" horiz-adv-x="2326" 
d="M1407 1659q-161 109 -259.5 199.5t-98.5 130.5q0 25 19.5 40t53.5 15q56 0 141.5 -106t170.5 -279h-27zM758 0l-490 1432l-170 94v30h625v-30l-127 -66l319 -930l293 1026h195l352 -1026l270 951l-196 65v31h399v-31l-125 -67l-436 -1479h-70l-413 1208l-357 -1208h-69z
" />
    <glyph glyph-name="wgrave" unicode="&#x1e81;" horiz-adv-x="1908" 
d="M1059 1178q-162 109 -260.5 199t-98.5 130q0 25 20 40.5t54 15.5q55 0 140.5 -106t170.5 -279h-26zM549 0l-316 983l-159 61v31h542v-31l-116 -45l233 -680l195 756h227l252 -756l176 687l-147 38v31h399v-31l-176 -43l-273 -1001h-163l-277 860l-233 -860h-164z" />
    <glyph glyph-name="Wacute" unicode="&#x1e82;" horiz-adv-x="2326" 
d="M1100 1659q88 179 171.5 282t145.5 103q26 0 47 -15t21 -36q0 -44 -97.5 -133.5t-261.5 -200.5h-26zM758 0l-490 1432l-170 94v30h625v-30l-127 -66l319 -930l293 1026h195l352 -1026l270 951l-196 65v31h399v-31l-125 -67l-436 -1479h-70l-413 1208l-357 -1208h-69z" />
    <glyph glyph-name="wacute" unicode="&#x1e83;" horiz-adv-x="1908" 
d="M946 1178q88 178 172 281.5t146 103.5q26 0 46.5 -15.5t20.5 -36.5q0 -44 -97 -133t-261 -200h-27zM549 0l-316 983l-159 61v31h542v-31l-116 -45l233 -680l195 756h227l252 -756l176 687l-147 38v31h399v-31l-176 -43l-273 -1001h-163l-277 860l-233 -860h-164z" />
    <glyph glyph-name="Wdieresis" unicode="&#x1e84;" horiz-adv-x="2326" 
d="M1047 1700q-61 0 -99.5 37.5t-38.5 95.5q0 59 38.5 99t99.5 40q59 0 97 -40t38 -99q0 -57 -38 -95t-97 -38zM1438 1700q-61 0 -99.5 37.5t-38.5 95.5q0 59 38.5 99t99.5 40q59 0 97 -40t38 -99q0 -57 -37.5 -95t-97.5 -38zM758 0l-490 1432l-170 94v30h625v-30l-127 -66
l319 -930l293 1026h195l352 -1026l270 951l-196 65v31h399v-31l-125 -67l-436 -1479h-70l-413 1208l-357 -1208h-69z" />
    <glyph glyph-name="wdieresis" unicode="&#x1e85;" horiz-adv-x="1908" 
d="M821 1219q-61 0 -99 37.5t-38 95.5q0 59 38 99t99 40q59 0 97 -40t38 -99q0 -58 -38 -95.5t-97 -37.5zM1212 1219q-61 0 -99 37.5t-38 95.5q0 59 38 99t99 40q59 0 97.5 -40t38.5 -99q0 -57 -38 -95t-98 -38zM549 0l-316 983l-159 61v31h542v-31l-116 -45l233 -680
l195 756h227l252 -756l176 687l-147 38v31h399v-31l-176 -43l-273 -1001h-163l-277 860l-233 -860h-164z" />
    <glyph glyph-name="Ygrave" unicode="&#x1ef2;" horiz-adv-x="1644" 
d="M944 1659q-161 109 -259.5 199.5t-98.5 130.5q0 25 19.5 40t53.5 15q56 0 141.5 -106t170.5 -279h-27zM539 0v31l153 82v462l-424 885l-170 66v30h625v-30l-143 -47l370 -817l359 806l-183 58v30h420v-30l-160 -72l-397 -866v-475l154 -82v-31h-604z" />
    <glyph glyph-name="ygrave" unicode="&#x1ef3;" horiz-adv-x="1355" 
d="M760 1178q-162 109 -260.5 199t-98.5 130q0 25 20 40.5t54 15.5q55 0 140.5 -106t170.5 -279h-26zM330 -422l-256 252l41 37q53 -38 85.5 -59.5t76.5 -40.5t79 -19q89 0 171.5 90t82.5 182l-387 979l-149 45v31h542v-31l-139 -45l289 -729l266 736l-145 38v31h399v-31
l-176 -45l-309 -858q-34 -92 -83 -186t-110.5 -181t-135 -141.5t-142.5 -54.5z" />
    <glyph glyph-name="uni2009" unicode="&#x2009;" horiz-adv-x="307" 
 />
    <glyph glyph-name="endash" unicode="&#x2013;" horiz-adv-x="927" 
d="M102 506v139h723v-139h-723z" />
    <glyph glyph-name="emdash" unicode="&#x2014;" horiz-adv-x="1337" 
d="M102 506v139h1133v-139h-1133z" />
    <glyph glyph-name="quoteleft" unicode="&#x2018;" horiz-adv-x="311" 
d="M274 1571q-42 -42 -67 -100t-25 -111q0 -49 22 -98.5t56 -79.5q0 -54 -31 -85.5t-82 -31.5q-48 0 -77 31t-29 90q0 82 51 193.5t141 191.5h41z" />
    <glyph glyph-name="quoteright" unicode="&#x2019;" horiz-adv-x="311" 
d="M37 1065q42 42 67 100t25 111q0 49 -22 98.5t-56 79.5q0 54 31 85.5t82 31.5q48 0 77 -31t29 -90q0 -82 -51 -193.5t-141 -191.5h-41z" />
    <glyph glyph-name="quotesinglbase" unicode="&#x201a;" horiz-adv-x="346" 
d="M37 -336q64 82 91.5 144.5t27.5 121.5q0 35 -14 69.5t-30 57.5t-49 64q0 56 34.5 91.5t84.5 35.5q56 0 89.5 -35.5t33.5 -93.5q0 -89 -64 -211t-178 -244h-26z" />
    <glyph glyph-name="quotedblleft" unicode="&#x201c;" horiz-adv-x="602" 
d="M274 1571q-42 -42 -67 -100t-25 -111q0 -49 22 -98.5t56 -79.5q0 -54 -31 -85.5t-82 -31.5q-48 0 -77 31t-29 90q0 82 51 193.5t141 191.5h41zM565 1571q-42 -42 -67 -100t-25 -111q0 -49 22 -98.5t56 -79.5q0 -54 -31 -85.5t-82 -31.5q-48 0 -77 31t-29 90
q0 82 51 193.5t141 191.5h41z" />
    <glyph glyph-name="quotedblright" unicode="&#x201d;" horiz-adv-x="602" 
d="M37 1065q42 42 67 100t25 111q0 49 -22 98.5t-56 79.5q0 54 31 85.5t82 31.5q48 0 77 -31t29 -90q0 -82 -51 -193.5t-141 -191.5h-41zM328 1065q42 42 67 100t25 111q0 49 -22 98.5t-56 79.5q0 54 31 85.5t82 31.5q48 0 77 -31t29 -90q0 -82 -51 -193.5t-141 -191.5h-41z
" />
    <glyph glyph-name="quotedblbase" unicode="&#x201e;" horiz-adv-x="602" 
d="M37 -309q42 42 67 100t25 111q0 49 -22 98.5t-56 79.5q0 54 31 85.5t82 31.5q48 0 77 -31t29 -90q0 -82 -51 -193.5t-141 -191.5h-41zM328 -309q42 42 67 100t25 111q0 49 -22 98.5t-56 79.5q0 54 31 85.5t82 31.5q48 0 77 -31t29 -90q0 -82 -51 -193.5t-141 -191.5h-41z
" />
    <glyph glyph-name="dagger" unicode="&#x2020;" horiz-adv-x="1232" 
d="M1047 1346h61v-605h-61l-72 154h-209v-762l154 -72v-61h-605v61l154 72v762h-190l-93 -154h-61v605h61l93 -154h190v293l-154 92v61h605v-61l-154 -92v-293h209z" />
    <glyph glyph-name="daggerdbl" unicode="&#x2021;" horiz-adv-x="1114" 
d="M926 1563h61v-605h-61l-72 195h-188v-139l194 -72v-61h-604v61l195 72v139h-170l-93 -195h-61v605h61l93 -195h170v117l-195 92v61h604v-61l-194 -92v-117h188zM854 487l72 195h61v-604h-61l-72 194h-188v-139l194 -72v-61h-604v61l195 72v139h-170l-93 -194h-61v604h61
l93 -195h170v117l-195 92v62h604v-62l-194 -92v-117h188z" />
    <glyph glyph-name="bullet" unicode="&#x2022;" horiz-adv-x="552" 
d="M336 375q-92 0 -150.5 58.5t-58.5 148.5q0 89 59 151t150 62q92 0 151.5 -62t59.5 -151q0 -90 -59 -148.5t-152 -58.5z" />
    <glyph glyph-name="ellipsis" unicode="&#x2026;" horiz-adv-x="1142" 
d="M172 -23q-59 0 -97 38t-38 96t38 97.5t97 39.5t97 -39.5t38 -97.5t-38 -96t-97 -38zM571 -23q-59 0 -97 38t-38 96t38 97.5t97 39.5t97.5 -39.5t38.5 -97.5q0 -57 -38.5 -95.5t-97.5 -38.5zM971 -23q-59 0 -97 38t-38 96t38 97.5t97 39.5t97 -39.5t38 -97.5t-38 -96
t-97 -38z" />
    <glyph glyph-name="perthousand" unicode="&#x2030;" horiz-adv-x="2721" 
d="M399 815q-86 0 -155 37.5t-109.5 98t-62 130t-21.5 140.5q0 74 23.5 148t67 136t114.5 101t156 39t155 -38.5t112 -100t64.5 -133t22.5 -142.5q0 -58 -15 -116.5t-45.5 -112.5t-73 -95.5t-103 -66.5t-130.5 -25zM418 883q129 0 129 319q0 377 -154 377q-131 0 -131 -332
q0 -364 156 -364zM305 0l1081 1556h127l-1085 -1556h-123zM1442 -12q-69 0 -128 24.5t-98.5 65.5t-67.5 94t-41 109t-13 112q0 74 23.5 148t66.5 136t114 101t156 39t155 -38.5t112 -100t64.5 -133t22.5 -142.5q0 -73 -24 -145.5t-68.5 -133t-116 -98.5t-157.5 -38z
M2304 -12q-69 0 -128 24.5t-98.5 65.5t-67.5 94t-41 109t-13 112q0 74 23.5 148t66.5 136t114 101t156 39t155 -38.5t112.5 -100t65 -133t22.5 -142.5q0 -73 -24 -145.5t-68.5 -133t-116.5 -98.5t-158 -38zM1460 55q129 0 129 320q0 377 -153 377q-131 0 -131 -332
q0 -365 155 -365zM2322 55q129 0 129 320q0 377 -153 377q-131 0 -131 -332q0 -365 155 -365z" />
    <glyph glyph-name="guilsinglleft" unicode="&#x2039;" horiz-adv-x="612" 
d="M455 145l-402 361v53l402 359h61q-33 -47 -133.5 -180t-146.5 -206q46 -73 147 -207t133 -180h-61z" />
    <glyph glyph-name="guilsinglright" unicode="&#x203a;" horiz-adv-x="653" 
d="M96 145q33 47 134 180.5t147 206.5q-46 73 -146.5 205.5t-134.5 180.5h62l401 -359v-53l-401 -361h-62z" />
    <glyph glyph-name="fraction" unicode="&#x2044;" horiz-adv-x="512" 
d="M-348 0l1081 1556h127l-1085 -1556h-123z" />
    <glyph glyph-name="Euro" unicode="&#x20ac;" horiz-adv-x="1337" 
d="M848 1487q-136 0 -220.5 -147t-103.5 -402h297v-127h-303v-25q0 -42 4 -120h299v-127h-286q30 -222 112.5 -349t204.5 -127q119 0 197.5 111t78.5 287h62v-307q-57 -79 -147 -128t-205 -49q-203 0 -351.5 151.5t-201.5 410.5h-187v127h170q-6 59 -6 118v27h-164v127h172
q35 291 188.5 463t375.5 172q117 0 207.5 -48t148.5 -128v-307h-62q0 176 -80 286.5t-200 110.5z" />
    <glyph glyph-name="trademark" unicode="&#x2122;" horiz-adv-x="1460" 
d="M287 948v25l51 31v477q0 15 -5.5 20.5t-19.5 5.5h-86l-63 -73h-35q4 22 15 60t12 62h454q3 -24 13.5 -62.5t15.5 -59.5h-35l-63 73h-82q-19 0 -25 -5.5t-6 -20.5v-477l55 -31v-25h-196zM696 948v15q35 6 43.5 14t8.5 37v481q0 12 -3 18q-12 14 -28 21q-3 1 -10 2t-11 2
v18h201l162 -442l155 442h140v-18q-3 -1 -11 -2.5t-10 -1.5t-7.5 -1.5t-6.5 -2.5t-4.5 -2.5t-4 -3.5t-2.5 -5t-2 -6.5t-0.5 -7.5t-0.5 -10v-481q0 -28 8.5 -36.5t40.5 -14.5v-15h-197v15q39 6 48 14t9 37v401l-167 -467h-39l-170 467v-401q0 -29 8.5 -37t44.5 -14v-15h-195z
" />
    <glyph glyph-name="oneeighth" unicode="&#x215b;" horiz-adv-x="1703" 
d="M96 827v21l109 41v649l-158 -164v41l150 221h262v-30l-88 -19v-698l108 -41v-21h-383zM178 0l1082 1556h126l-1085 -1556h-123zM1323 -12q-143 0 -230 60.5t-87 162.5q0 77 50.5 139.5t137.5 83.5q-71 17 -114.5 66.5t-43.5 115.5q0 89 80.5 145t210.5 56q127 0 206 -53
t79 -135q0 -59 -43.5 -111t-116.5 -82h-43q111 -17 178.5 -77t67.5 -144q0 -100 -92 -163.5t-240 -63.5zM1325 461q50 0 80.5 39.5t30.5 105.5q0 70 -34.5 114t-88.5 44q-51 0 -80 -39t-29 -104q0 -70 33.5 -115t87.5 -45zM1333 43q66 0 106 46t40 124q0 84 -44 137t-114 53
q-66 0 -106.5 -49t-40.5 -127q0 -83 44 -133.5t115 -50.5z" />
    <glyph glyph-name="threeeighths" unicode="&#x215c;" horiz-adv-x="1812" 
d="M649 1073q0 -117 -93 -187.5t-247 -70.5q-98 0 -170 35.5t-92 93.5l43 168h33v-92q0 -64 54.5 -110t139.5 -46q78 0 126.5 57t48.5 150q0 68 -31.5 109t-83.5 41q-35 0 -144 -37v41l37 16q74 33 119 94.5t45 132.5q0 56 -32.5 89.5t-86.5 33.5q-69 0 -113 -52.5
t-44 -125.5v-84h-23l-65 170q43 66 113.5 106t142.5 40q120 0 193 -45t73 -119q0 -58 -64.5 -121.5t-167.5 -106.5q40 7 66 7q103 0 163 -50t60 -137zM1368 1556h127l-1085 -1556h-123zM1518 436q111 -17 178 -77t67 -144q0 -100 -91.5 -163.5t-239.5 -63.5
q-143 0 -230.5 60.5t-87.5 162.5q0 77 51 139.5t138 83.5q-71 17 -114.5 66.5t-43.5 115.5q0 89 80.5 145t210.5 56q127 0 205.5 -53t78.5 -135q0 -60 -43 -112t-116 -81h-43zM1421 764q-50 0 -79 -39t-29 -104q0 -70 33.5 -115t87.5 -45q50 0 80 39.5t30 105.5
q0 70 -34.5 114t-88.5 44zM1442 43q66 0 105.5 46t39.5 124q0 84 -43.5 137t-113.5 53q-66 0 -107 -49t-41 -127q0 -83 44.5 -133.5t115.5 -50.5z" />
    <glyph glyph-name="fiveeighths" unicode="&#x215d;" horiz-adv-x="1947" 
d="M426 817q-254 0 -379 275h39q52 -103 128.5 -160.5t166.5 -57.5q101 0 160 70t59 176q0 81 -35.5 137t-107.5 56q-59 0 -106 -44.5t-70 -113.5h-136l82 426l-82 25v30h529q5 -26 41 -170h-23l-108 119h-219l-72 -328q78 119 217 119q113 0 192.5 -73t79.5 -189
q0 -132 -105 -214.5t-251 -82.5zM422 0l1081 1556h127l-1085 -1556h-123zM1567 -12q-143 0 -230.5 60.5t-87.5 162.5q0 77 51 139.5t138 83.5q-71 17 -114.5 66.5t-43.5 115.5q0 89 80.5 145t210.5 56q127 0 205.5 -53t78.5 -135q0 -60 -43 -112t-116 -81h-43
q111 -17 178 -77t67 -144q0 -100 -91.5 -163.5t-239.5 -63.5zM1569 461q50 0 80 39.5t30 105.5q0 70 -34.5 114t-88.5 44q-50 0 -79 -39t-29 -104q0 -70 33.5 -115t87.5 -45zM1577 43q66 0 105.5 46t39.5 124q0 84 -43.5 137t-113.5 53q-66 0 -107 -49t-41 -127
q0 -83 44.5 -133.5t115.5 -50.5z" />
    <glyph glyph-name="seveneighths" unicode="&#x215e;" horiz-adv-x="1622" 
d="M100 827l140 394h-152v51h164l129 313h-223l-86 -119h-25q7 29 16.5 62.5t15.5 57.5t9 50h535v-30l-74 -17l-109 -274q-6 -15 -6 -25q0 -15 18 -20.5t62 -5.5h6v-43h-117l-141 -394h-162zM96 0l1082 1556h127l-1086 -1556h-123zM1241 -12q-143 0 -230 60.5t-87 162.5
q0 77 50.5 139.5t137.5 83.5q-71 17 -114.5 66.5t-43.5 115.5q0 89 80.5 145t210.5 56q127 0 206 -53t79 -135q0 -59 -43.5 -111t-116.5 -82h-43q111 -17 178.5 -77t67.5 -144q0 -100 -92 -163.5t-240 -63.5zM1243 461q50 0 80.5 39.5t30.5 105.5q0 70 -34.5 114t-88.5 44
q-51 0 -80 -39t-29 -104q0 -70 33.5 -115t87.5 -45zM1251 43q66 0 106 46t40 124q0 84 -44 137t-114 53q-66 0 -106.5 -49t-40.5 -127q0 -83 44 -133.5t115 -50.5z" />
    <glyph glyph-name="arrowleft" unicode="&#x2190;" horiz-adv-x="2494" 
d="M602 309q-57 102 -196 215t-252 148l-27 8v33l27 6q114 27 249.5 138.5t198.5 223.5h51l-170 -329h1897v-111h-1897l170 -332h-51z" />
    <glyph glyph-name="arrowup" unicode="&#x2191;" horiz-adv-x="1021" 
d="M455 -410v1692l-330 -170v51q112 63 223.5 199t138.5 250l7 26h32l9 -26q35 -113 147.5 -252.5t214.5 -196.5v-51l-332 170v-1692h-110z" />
    <glyph glyph-name="arrowright" unicode="&#x2192;" horiz-adv-x="2494" 
d="M1843 309l170 332h-1896v111h1896l-170 329h51q63 -112 199 -223.5t250 -138.5l27 -6v-33l-27 -8q-113 -35 -252.5 -148t-196.5 -215h-51z" />
    <glyph glyph-name="arrowdown" unicode="&#x2193;" horiz-adv-x="1021" 
d="M494 -410l-7 27q-27 114 -138.5 250t-223.5 199v51l330 -170v1691h110v-1691l332 170v-51q-102 -57 -214.5 -196.5t-147.5 -252.5l-9 -27h-32z" />
    <glyph glyph-name="arrowboth" unicode="&#x2194;" horiz-adv-x="2502" 
d="M2351 719l27 -6v-33l-27 -8q-113 -35 -252 -148t-196 -215h-52l170 332h-1540l170 -332h-51q-57 102 -196 215t-252 148l-27 8v33l27 6q114 27 249.5 138.5t198.5 223.5h51l-170 -329h1540l-170 329h52q63 -112 198.5 -223.5t249.5 -138.5z" />
    <glyph glyph-name="arrowupdn" unicode="&#x2195;" horiz-adv-x="1024" 
d="M565 -53l332 170v-51q-102 -57 -214.5 -196.5t-147.5 -252.5l-9 -27h-32l-7 27q-27 114 -138.5 250t-223.5 199v51l330 -170v1335l-330 -170v51q112 63 223.5 199t138.5 250l7 26h32l9 -26q35 -113 147.5 -252.5t214.5 -196.5v-51l-332 170v-1335z" />
    <glyph glyph-name="uni2196" unicode="&#x2196;" horiz-adv-x="1533" 
d="M1325 -420l-991 1714l-203 -313l-25 45q59 100 87 277t2 292l-7 27l29 16l19 -18q85 -85 248 -147t290 -62l27 -43l-371 -18l991 -1715z" />
    <glyph glyph-name="uni2197" unicode="&#x2197;" horiz-adv-x="1533" 
d="M209 -420l-96 55l991 1715l-371 18l27 43q127 0 290 62t248 147l19 18l29 -16l-7 -27q-26 -115 1.5 -292t86.5 -277l-24 -45l-203 313z" />
    <glyph glyph-name="uni2198" unicode="&#x2198;" horiz-adv-x="1533" 
d="M1317 -410l-19 19q-85 85 -248 147t-290 62l-27 43l371 18l-991 1714l96 56l991 -1715l203 314l24 -45q-59 -100 -86.5 -277.5t-1.5 -292.5l7 -26z" />
    <glyph glyph-name="uni2199" unicode="&#x2199;" horiz-adv-x="1533" 
d="M217 -410l-29 17l7 26q26 115 -2 292.5t-87 277.5l25 45l203 -314l991 1715l96 -56l-991 -1714l371 -18l-27 -43q-127 0 -290 -62t-248 -147z" />
    <glyph glyph-name="partialdiff" unicode="&#x2202;" horiz-adv-x="1323" 
d="M621 -23q-135 0 -246 57t-178.5 168t-67.5 255q0 111 41.5 211t110 170t159 110.5t187.5 40.5q115 0 225.5 -52.5t155.5 -133.5l10 -2q0 235 -130.5 431t-344.5 284l6 57q142 -50 259 -133t203.5 -193.5t134.5 -253.5t48 -305q0 -202 -70.5 -363.5t-201.5 -254.5
t-301 -93zM627 109q109 0 196 82.5t134.5 219.5t48.5 300q-146 155 -320 155q-69 0 -132.5 -23.5t-115 -68t-82 -117.5t-30.5 -165q0 -161 86 -272t215 -111z" />
    <glyph glyph-name="emptyset" unicode="&#x2205;" horiz-adv-x="1697" 
d="M1374 1176q193 -190 193 -502q0 -313 -204.5 -505t-539.5 -192q-226 0 -393 101l-102 -121l-86 78l96 110q-207 188 -207 500q0 325 200 524t527 199q248 0 422 -117l84 97l94 -74zM395 702q0 -226 86 -389l682 799q-128 170 -334 170q-195 0 -314.5 -159.5
t-119.5 -420.5zM874 63q194 0 312.5 151t118.5 398q0 232 -78 394l-678 -793q128 -150 325 -150z" />
    <glyph glyph-name="product" unicode="&#x220f;" horiz-adv-x="1298" 
d="M23 -205v31l153 82v1552l-153 66v30h1253v-30l-154 -66v-1552l154 -82v-31h-451v1665h-352v-1665h-450z" />
    <glyph glyph-name="summation" unicode="&#x2211;" horiz-adv-x="1392" 
d="M125 -205v62l141 55l402 743l-361 805l-127 35v61h977q6 -66 15.5 -106t25.5 -93t29 -118h-41l-215 221h-363l357 -805l-422 -747h510l174 205h41q-13 -61 -29.5 -116t-25.5 -96t-15 -106h-1073z" />
    <glyph glyph-name="minus" unicode="&#x2212;" horiz-adv-x="980" 
d="M129 512v127h723v-127h-723z" />
    <glyph glyph-name="radical" unicode="&#x221a;" horiz-adv-x="1822" 
d="M657 -205l-376 793l-156 59v31h543v-31l-136 -51l256 -576l424 1536h486v-30l-426 -45l-492 -1686h-123z" />
    <glyph glyph-name="infinity" unicode="&#x221e;" horiz-adv-x="1703" 
d="M463 248q-144 0 -237 90t-93 235q0 144 92 235t228 91q211 0 399 -219q188 219 399 219q136 0 228 -91t92 -235q0 -145 -93 -235t-237 -90q-114 0 -208 58t-181 161q-87 -103 -181 -161t-208 -58zM477 383q79 0 165.5 53t131.5 137q-49 82 -138.5 138.5t-168.5 56.5
q-77 0 -130.5 -53t-53.5 -137q0 -86 57 -140.5t137 -54.5zM1229 383q80 0 136 54.5t56 140.5q0 84 -54.5 137t-131.5 53q-79 0 -167 -55.5t-138 -139.5q46 -85 132.5 -137.5t166.5 -52.5z" />
    <glyph glyph-name="integral" unicode="&#x222b;" horiz-adv-x="1202" 
d="M301 -270q-70 0 -114 24.5t-60 65.5l27 274h57q0 -156 22.5 -224.5t88.5 -68.5q92 0 128.5 143t36.5 488q0 58 -1 174t-1 174q0 100 3 177t12 163.5t24.5 149.5t43 123.5t65.5 98t93 60.5t124 23q56 0 97.5 -13.5t66.5 -38.5t37.5 -47t23.5 -51l-26 -276h-58
q0 172 -28.5 261t-100.5 89q-88 0 -113.5 -139.5t-25.5 -497.5q0 -60 1 -214.5t1 -248.5q0 -312 -117 -490.5t-307 -178.5z" />
    <glyph glyph-name="approxequal" unicode="&#x2248;" horiz-adv-x="1011" 
d="M664 598q-55 0 -105.5 22.5t-82.5 50t-72 50t-76 22.5q-20 0 -41.5 -7t-43 -21.5t-36.5 -43t-17 -67.5h-61q2 128 58.5 212.5t158.5 84.5q48 0 96.5 -22.5t82 -50t78.5 -50t89 -22.5q53 0 89.5 31.5t39.5 107.5h62q-5 -138 -57.5 -217.5t-161.5 -79.5zM664 240
q-55 0 -105.5 22.5t-82.5 50t-72 50t-76 22.5q-20 0 -41.5 -7t-43 -21.5t-36.5 -43t-17 -67.5h-61q2 128 58.5 212.5t158.5 84.5q48 0 96.5 -23t82 -50t78.5 -50t89 -23q52 0 89 32t40 108h62q-5 -138 -57.5 -217.5t-161.5 -79.5z" />
    <glyph glyph-name="notequal" unicode="&#x2260;" horiz-adv-x="980" 
d="M852 696h-260l-92 -241h352v-127h-401l-101 -267h-123l101 267h-199v127h248l90 241h-338v127h387l100 267h125l-100 -267h211v-127z" />
    <glyph glyph-name="lessequal" unicode="&#x2264;" horiz-adv-x="1107" 
d="M979 1063v-148l-637 -340l637 -342v-233h-850v127h774l-768 418v61z" />
    <glyph glyph-name="greaterequal" unicode="&#x2265;" horiz-adv-x="1107" 
d="M205 127h774v-127h-850v233l637 342l-637 340v148l844 -457v-61z" />
    <glyph glyph-name="lozenge" unicode="&#x25ca;" horiz-adv-x="1126" 
d="M623 1257l378 -643l-378 -643h-123l-375 643l375 643h123zM610 154l269 460l-269 461l-282 -461z" />
    <glyph glyph-name="B.ss01" horiz-adv-x="1505" 
d="M973 786q61 -11 116.5 -28.5t114.5 -50t101.5 -74t70 -104t27.5 -136.5q0 -171 -156 -282t-407 -111h-740v31l154 82v1347l-154 66v30h625q158 0 293.5 -46t222 -139.5t86.5 -215.5q0 -117 -105 -225t-249 -144zM614 1454q-38 0 -50.5 -20.5t-12.5 -75.5v-365l367 322h30
q-10 -11 -29 -32q-70 -77 -104.5 -116.5t-79.5 -96.5t-64.5 -95.5t-19.5 -67.5q0 -71 146 -71q54 0 96 14t68 40.5t43 57t25 71.5t10.5 74.5t2.5 75.5q0 72 -18.5 124.5t-47.5 83t-74.5 48.5t-89.5 23.5t-103 5.5h-95zM705 104q204 0 305.5 70.5t101.5 222.5
q0 60 -11.5 108.5t-33.5 82t-47.5 58t-60.5 41.5t-65 26.5t-69 17.5q-103 21 -162.5 42t-111.5 56v-604q0 -74 29 -97.5t125 -23.5z" />
    <glyph glyph-name="C.ss01" horiz-adv-x="1671" 
d="M834 -23q-145 0 -276.5 54t-232.5 151.5t-161 245t-60 322.5q0 176 59.5 329t164 261.5t251 170.5t314.5 62q177 0 311 -60.5t185 -128.5l-379 -966h-45q140 346 178 462q69 205 69 320q0 59 -17 110t-51 94t-94 68t-139 25q-118 0 -210 -56.5t-147.5 -154.5t-83.5 -221
t-28 -264q0 -115 18 -221.5t57.5 -203t97 -168t141.5 -113.5t186 -42q195 0 353 146.5t245 416.5h31q-81 -291 -276 -465t-461 -174z" />
    <glyph glyph-name="Cacute.ss01" horiz-adv-x="1671" 
d="M729 1659q88 178 172 281.5t146 103.5q26 0 46.5 -15t20.5 -36q0 -44 -97 -134t-261 -200h-27zM834 -23q-145 0 -276.5 54t-232.5 151.5t-161 245t-60 322.5q0 176 59.5 329t164 261.5t251 170.5t314.5 62q177 0 311 -60.5t185 -128.5l-379 -966h-45q140 346 178 462
q69 205 69 320q0 59 -17 110t-51 94t-94 68t-139 25q-118 0 -210 -56.5t-147.5 -154.5t-83.5 -221t-28 -264q0 -115 18 -221.5t57.5 -203t97 -168t141.5 -113.5t186 -42q195 0 353 146.5t245 416.5h31q-81 -291 -276 -465t-461 -174z" />
    <glyph glyph-name="Ccaron.ss01" horiz-adv-x="1671" 
d="M578 2044h36l222 -240l219 240h37q-127 -257 -154 -302q-43 -70 -81 -80q-10 -3 -21 -3q-46 0 -83.5 55t-136.5 254q-24 49 -38 76zM834 -23q-145 0 -276.5 54t-232.5 151.5t-161 245t-60 322.5q0 176 59.5 329t164 261.5t251 170.5t314.5 62q177 0 311 -60.5t185 -128.5
l-379 -966h-45q140 346 178 462q69 205 69 320q0 59 -17 110t-51 94t-94 68t-139 25q-118 0 -210 -56.5t-147.5 -154.5t-83.5 -221t-28 -264q0 -115 18 -221.5t57.5 -203t97 -168t141.5 -113.5t186 -42q195 0 353 146.5t245 416.5h31q-81 -291 -276 -465t-461 -174z" />
    <glyph glyph-name="Ccedilla.ss01" horiz-adv-x="1671" 
d="M1571 616q-78 -279 -261 -451t-433 -185l-56 -97q79 0 127.5 -38.5t48.5 -94.5q0 -63 -48.5 -115.5t-135.5 -52.5q-58 0 -119 35v31q52 -21 97 -21q112 0 112 88q0 44 -38.5 75.5t-110.5 31.5v39l65 116q-143 2 -272 57t-227.5 152.5t-157 244t-58.5 319.5
q0 176 59.5 329t164 261.5t251 170.5t314.5 62q177 0 311 -60.5t185 -128.5l-379 -966h-45q140 346 178 462q69 205 69 320q0 59 -17 110t-51 94t-94 68t-139 25q-118 0 -210 -56.5t-147.5 -154.5t-83.5 -221t-28 -264q0 -115 18 -221.5t57.5 -203t97 -168t141.5 -113.5
t186 -42q195 0 353 146.5t245 416.5h31z" />
    <glyph glyph-name="Cdotaccent.ss01" horiz-adv-x="1671" 
d="M838 1700q-66 0 -108 42t-42 105t42.5 106.5t107.5 43.5t106 -43.5t41 -106.5q0 -64 -41 -105.5t-106 -41.5zM834 -23q-145 0 -276.5 54t-232.5 151.5t-161 245t-60 322.5q0 176 59.5 329t164 261.5t251 170.5t314.5 62q177 0 311 -60.5t185 -128.5l-379 -966h-45
q140 346 178 462q69 205 69 320q0 59 -17 110t-51 94t-94 68t-139 25q-118 0 -210 -56.5t-147.5 -154.5t-83.5 -221t-28 -264q0 -115 18 -221.5t57.5 -203t97 -168t141.5 -113.5t186 -42q195 0 353 146.5t245 416.5h31q-81 -291 -276 -465t-461 -174z" />
    <glyph glyph-name="D.ss01" horiz-adv-x="1740" 
d="M1042 -23q-93 0 -169.5 19.5t-130 55t-84.5 64.5t-64 70l379 967h47q-250 -646 -250 -834q0 -61 22 -122.5t73 -108.5t120 -47q103 0 182 103.5t117.5 263t38.5 344.5q0 191 -45 335.5t-128 232.5t-193.5 131.5t-247.5 43.5h-95q-37 0 -50 -24t-13 -85v-1232
q0 -73 26 -96t128 -38v-20h-605v20q104 15 129 37.5t25 96.5v1253q0 63 -28 89.5t-126 39.5v20h809q341 0 544.5 -201.5t203.5 -553.5q0 -222 -81 -411t-222.5 -301t-311.5 -112z" />
    <glyph glyph-name="Eth.ss01" horiz-adv-x="1740" 
d="M909 1556q341 0 544.5 -201.5t203.5 -553.5q0 -222 -81 -411t-222.5 -301t-311.5 -112q-93 0 -169.5 19.5t-130 55t-84.5 64.5t-64 70l379 967h47q-250 -646 -250 -834q0 -61 22 -122.5t73 -108.5t120 -47q103 0 182 103.5t117.5 263t38.5 344.5q0 191 -45 335.5
t-128 232.5t-193.5 131.5t-247.5 43.5h-95q-37 0 -50 -24t-13 -85v-548h145v-119h-145v-565q0 -73 26 -96t128 -38v-20h-605v20q104 15 129 37.5t25 96.5v565h-199v119h199v569q0 63 -28 89.5t-126 39.5v20h809z" />
    <glyph glyph-name="Dcaron.ss01" horiz-adv-x="1740" 
d="M551 2095h37l221 -240l219 240h37q-127 -257 -154 -302q-43 -70 -81 -80q-10 -3 -21 -3q-46 0 -83.5 55t-136.5 254q-24 49 -38 76zM1042 -23q-93 0 -169.5 19.5t-130 55t-84.5 64.5t-64 70l379 967h47q-250 -646 -250 -834q0 -61 22 -122.5t73 -108.5t120 -47
q103 0 182 103.5t117.5 263t38.5 344.5q0 191 -45 335.5t-128 232.5t-193.5 131.5t-247.5 43.5h-95q-37 0 -50 -24t-13 -85v-1232q0 -73 26 -96t128 -38v-20h-605v20q104 15 129 37.5t25 96.5v1253q0 63 -28 89.5t-126 39.5v20h809q341 0 544.5 -201.5t203.5 -553.5
q0 -222 -81 -411t-222.5 -301t-311.5 -112z" />
    <glyph glyph-name="Dcroat.ss01" horiz-adv-x="1740" 
d="M909 1556q341 0 544.5 -201.5t203.5 -553.5q0 -222 -81 -411t-222.5 -301t-311.5 -112q-93 0 -169.5 19.5t-130 55t-84.5 64.5t-64 70l379 967h47q-250 -646 -250 -834q0 -61 22 -122.5t73 -108.5t120 -47q103 0 182 103.5t117.5 263t38.5 344.5q0 191 -45 335.5
t-128 232.5t-193.5 131.5t-247.5 43.5h-95q-37 0 -50 -24t-13 -85v-548h145v-119h-145v-565q0 -73 26 -96t128 -38v-20h-605v20q104 15 129 37.5t25 96.5v565h-199v119h199v569q0 63 -28 89.5t-126 39.5v20h809z" />
    <glyph glyph-name="G.ss01" horiz-adv-x="1681" 
d="M893 -23q-159 0 -305.5 56t-258 155.5t-178.5 247.5t-67 320q0 175 69.5 329t185.5 260t271 167t324 61q96 0 183 -15.5t144 -37t103 -48t67.5 -45t30.5 -30.5v-455h-41q-6 269 -129.5 412t-371.5 143q-77 0 -144 -17.5t-134 -64.5t-114 -121t-76.5 -196t-29.5 -281
q0 -226 56 -396t173.5 -269t284.5 -99q185 0 312.5 109.5t127.5 245.5q0 126 -123.5 201t-334.5 93v41h651v-161q0 -135 -43.5 -242.5t-112.5 -173.5t-160.5 -110t-180 -61.5t-179.5 -17.5z" />
    <glyph glyph-name="Gbreve.ss01" horiz-adv-x="1681" 
d="M883 1659q-52 0 -100 23.5t-88 68.5t-64.5 121t-24.5 172h31q5 -109 72 -183.5t174 -74.5t173.5 74t71.5 184h31q0 -96 -24 -172t-64.5 -121t-88 -68.5t-99.5 -23.5zM893 -23q-159 0 -305.5 56t-258 155.5t-178.5 247.5t-67 320q0 175 69.5 329t185.5 260t271 167t324 61
q96 0 183 -15.5t144 -37t103 -48t67.5 -45t30.5 -30.5v-455h-41q-6 269 -129.5 412t-371.5 143q-77 0 -144 -17.5t-134 -64.5t-114 -121t-76.5 -196t-29.5 -281q0 -226 56 -396t173.5 -269t284.5 -99q185 0 312.5 109.5t127.5 245.5q0 126 -123.5 201t-334.5 93v41h651v-161
q0 -135 -43.5 -242.5t-112.5 -173.5t-160.5 -110t-180 -61.5t-179.5 -17.5z" />
    <glyph glyph-name="Gcommaaccent.ss01" horiz-adv-x="1681" 
d="M893 -23q-159 0 -305.5 56t-258 155.5t-178.5 247.5t-67 320q0 175 69.5 329t185.5 260t271 167t324 61q96 0 183 -15.5t144 -37t103 -48t67.5 -45t30.5 -30.5v-455h-41q-6 269 -129.5 412t-371.5 143q-77 0 -144 -17.5t-134 -64.5t-114 -121t-76.5 -196t-29.5 -281
q0 -226 56 -396t173.5 -269t284.5 -99q185 0 312.5 109.5t127.5 245.5q0 126 -123.5 201t-334.5 93v41h651v-161q0 -135 -43.5 -242.5t-112.5 -173.5t-160.5 -110t-180 -61.5t-179.5 -17.5zM872 -102q56 0 89.5 -32.5t33.5 -86.5q0 -66 -42 -142.5t-111 -136.5h-33
q33 41 53.5 90t20.5 88q0 23 -15 42t-33.5 30t-33.5 31t-15 45q0 33 23.5 52.5t62.5 19.5z" />
    <glyph glyph-name="Gdotaccent.ss01" horiz-adv-x="1681" 
d="M844 1696q-66 0 -108 42t-42 105t42.5 106.5t107.5 43.5t106 -43.5t41 -106.5q0 -64 -41 -105.5t-106 -41.5zM893 -23q-159 0 -305.5 56t-258 155.5t-178.5 247.5t-67 320q0 175 69.5 329t185.5 260t271 167t324 61q96 0 183 -15.5t144 -37t103 -48t67.5 -45t30.5 -30.5
v-455h-41q-6 269 -129.5 412t-371.5 143q-77 0 -144 -17.5t-134 -64.5t-114 -121t-76.5 -196t-29.5 -281q0 -226 56 -396t173.5 -269t284.5 -99q185 0 312.5 109.5t127.5 245.5q0 126 -123.5 201t-334.5 93v41h651v-161q0 -135 -43.5 -242.5t-112.5 -173.5t-160.5 -110
t-180 -61.5t-179.5 -17.5z" />
    <glyph glyph-name="J.ss01" horiz-adv-x="1191" 
d="M516 -23q-137 0 -231.5 45t-184.5 144l346 967h37q-135 -449 -164.5 -573.5t-29.5 -262.5q0 -122 50.5 -181t133.5 -59q40 0 68.5 15.5t53 56t36.5 120.5t12 200v1011l-154 66v30h605v-30l-154 -66v-1046q0 -74 -11 -134.5t-40 -118.5t-75.5 -97.5t-122 -63t-175.5 -23.5
z" />
    <glyph glyph-name="K.ss01" horiz-adv-x="1550" 
d="M100 0v31l154 82v1347l-154 66v30h605v-30l-154 -66v-608l496 633l-152 41v30h399v-30l-170 -45l-403 -529l606 -874l146 -47v-31h-605v31l156 43l-473 657v-618l154 -82v-31h-605z" />
    <glyph glyph-name="Kcommaaccent.ss01" horiz-adv-x="1550" 
d="M100 0v31l154 82v1347l-154 66v30h605v-30l-154 -66v-608l496 633l-152 41v30h399v-30l-170 -45l-403 -529l606 -874l146 -47v-31h-605v31l156 43l-473 657v-618l154 -82v-31h-605zM606 -102q56 0 89.5 -32.5t33.5 -86.5q0 -66 -42.5 -142.5t-111.5 -136.5h-32
q33 41 53 90t20 88q0 23 -15 42t-33 30t-33 31t-15 45q0 33 23.5 52.5t62.5 19.5z" />
    <glyph glyph-name="P.ss01" horiz-adv-x="1431" 
d="M795 1556q79 0 153 -14.5t144.5 -47.5t122 -82.5t83 -125t31.5 -168.5q0 -103 -37.5 -196.5t-98.5 -159.5t-141.5 -105t-164.5 -39q-112 0 -196.5 47.5t-139.5 118.5v-671l154 -82v-31h-605v31l154 82v1347l-154 66v30h695zM848 723q102 0 148 73t46 238q0 123 -24 206
t-72.5 129.5t-111.5 65.5t-152 19h-68q-38 0 -50.5 -20.5t-12.5 -75.5v-557l223 559h51q-143 -343 -143 -477q0 -74 41 -117t125 -43z" />
    <glyph glyph-name="Q.ss01" horiz-adv-x="1699" 
d="M1233 -356q72 0 152.5 53.5t121.5 130.5h54q-53 -114 -152 -182t-244 -68q-218 0 -351.5 100.5t-133.5 268.5q0 27 2 41q-167 29 -302.5 133.5t-215.5 273.5t-80 371q0 177 62.5 330t166.5 256t239 162t279 59q146 0 279.5 -59.5t233 -162t158.5 -249t59 -311.5
q0 -275 -152 -485.5t-383 -289.5q5 -172 58.5 -272t148.5 -100zM422 840q0 -152 24 -281t66.5 -221t100 -157t124.5 -96.5t140 -31.5q176 0 253.5 161t77.5 474q0 397 -111.5 603t-312.5 206q-57 0 -108.5 -22t-98.5 -72.5t-81 -125.5t-54 -187t-20 -250z" />
    <glyph glyph-name="R.ss01" horiz-adv-x="1652" 
d="M100 0v31l154 82v1347l-154 66v30h666q157 0 283 -46.5t202 -139t76 -215.5q0 -92 -43.5 -167.5t-112.5 -121.5t-148 -71t-155 -25l482 -657l204 -82v-31h-645v31l146 59l-504 692v-669l154 -82v-31h-605zM817 836q59 0 102 21.5t66 53t36.5 79.5t17 88t3.5 91
q0 72 -18.5 124.5t-47.5 83t-74.5 48.5t-89.5 23.5t-103 5.5h-95q-38 0 -50.5 -20.5t-12.5 -75.5v-365l336 281h31q-130 -144 -188 -225.5t-58 -141.5q0 -71 145 -71z" />
    <glyph glyph-name="S.ss01" horiz-adv-x="1333" 
d="M995 883q113 -58 174.5 -151t61.5 -247q0 -125 -42 -223t-117 -159.5t-176 -93.5t-222 -32q-322 0 -574 240l228 528q-140 137 -140 355q0 120 43.5 213.5t116 148.5t159 83t181.5 28q146 0 282 -57t195 -109zM362 1264q0 -114 109 -185l119 277h41l-121 -299
q57 -30 227 -82q135 -38 209 -70q41 152 41 266q0 163 -77.5 247.5t-227.5 84.5q-86 0 -157 -25.5t-117 -81t-46 -132.5zM657 59q392 0 392 244q0 79 -41 126.5t-131 82.5l-80 -244h-41l78 260q-53 17 -228 66q-137 37 -227 106q-78 -239 -78 -370q0 -139 83.5 -205
t272.5 -66z" />
    <glyph glyph-name="Sacute.ss01" horiz-adv-x="1333" 
d="M922 1993q0 -44 -97.5 -133.5t-261.5 -200.5h-26q88 179 171.5 282t145.5 103q26 0 47 -15t21 -36zM995 883q113 -58 174.5 -151t61.5 -247q0 -125 -42 -223t-117 -159.5t-176 -93.5t-222 -32q-322 0 -574 240l228 528q-140 137 -140 355q0 120 43.5 213.5t116 148.5
t159 83t181.5 28q146 0 282 -57t195 -109zM362 1264q0 -114 109 -185l119 277h41l-121 -299q57 -30 227 -82q135 -38 209 -70q41 152 41 266q0 163 -77.5 247.5t-227.5 84.5q-86 0 -157 -25.5t-117 -81t-46 -132.5zM657 59q392 0 392 244q0 79 -41 126.5t-131 82.5l-80 -244
h-41l78 260q-53 17 -228 66q-137 37 -227 106q-78 -239 -78 -370q0 -139 83.5 -205t272.5 -66z" />
    <glyph glyph-name="Scaron.ss01" horiz-adv-x="1333" 
d="M686 1659q-46 0 -83.5 55t-136.5 254q-24 49 -38 76h37l221 -240l219 240h37q-127 -257 -154 -302q-43 -70 -81 -80q-10 -3 -21 -3zM995 883q113 -58 174.5 -151t61.5 -247q0 -125 -42 -223t-117 -159.5t-176 -93.5t-222 -32q-322 0 -574 240l228 528q-140 137 -140 355
q0 120 43.5 213.5t116 148.5t159 83t181.5 28q146 0 282 -57t195 -109zM362 1264q0 -114 109 -185l119 277h41l-121 -299q57 -30 227 -82q135 -38 209 -70q41 152 41 266q0 163 -77.5 247.5t-227.5 84.5q-86 0 -157 -25.5t-117 -81t-46 -132.5zM657 59q392 0 392 244
q0 79 -41 126.5t-131 82.5l-80 -244h-41l78 260q-53 17 -228 66q-137 37 -227 106q-78 -239 -78 -370q0 -139 83.5 -205t272.5 -66z" />
    <glyph glyph-name="Scedilla.ss01" horiz-adv-x="1333" 
d="M674 -23h-29l-53 -94q79 0 127.5 -38.5t48.5 -94.5q0 -63 -48.5 -115.5t-135.5 -52.5q-58 0 -119 35v31q53 -21 96 -21q113 0 113 88q0 43 -39 75t-111 32v39l68 121q-270 25 -492 235l228 528q-140 137 -140 355q0 120 43.5 213.5t116 148.5t159 83t181.5 28
q146 0 282 -57t195 -109l-170 -524q113 -58 174.5 -151t61.5 -247q0 -125 -42 -223t-117 -159.5t-176 -93.5t-222 -32zM362 1264q0 -114 109 -185l119 277h41l-121 -299q57 -30 227 -82q135 -38 209 -70q41 152 41 266q0 163 -77.5 247.5t-227.5 84.5q-86 0 -157 -25.5
t-117 -81t-46 -132.5zM301 330q0 -139 83.5 -205t272.5 -66q392 0 392 244q0 79 -41 126.5t-131 82.5l-80 -244h-41l78 260q-53 17 -228 66q-137 37 -227 106q-78 -239 -78 -370z" />
    <glyph glyph-name="Scommaaccent.ss01" horiz-adv-x="1333" 
d="M995 883q113 -58 174.5 -151t61.5 -247q0 -125 -42 -223t-117 -159.5t-176 -93.5t-222 -32q-322 0 -574 240l228 528q-140 137 -140 355q0 120 43.5 213.5t116 148.5t159 83t181.5 28q146 0 282 -57t195 -109zM362 1264q0 -114 109 -185l119 277h41l-121 -299
q57 -30 227 -82q135 -38 209 -70q41 152 41 266q0 163 -77.5 247.5t-227.5 84.5q-86 0 -157 -25.5t-117 -81t-46 -132.5zM657 59q392 0 392 244q0 79 -41 126.5t-131 82.5l-80 -244h-41l78 260q-53 17 -228 66q-137 37 -227 106q-78 -239 -78 -370q0 -139 83.5 -205
t272.5 -66zM567 -102q56 0 89.5 -32.5t33.5 -86.5q0 -66 -42 -142.5t-111 -136.5h-33q33 41 53.5 90t20.5 88q0 23 -15 42t-33.5 30t-33.5 31t-15 45q0 33 23.5 52.5t62.5 19.5z" />
    <glyph glyph-name="Y.ss01" horiz-adv-x="1665" 
d="M535 0v31l188 51l231 539q-71 -76 -131 -106t-143 -30q-52 0 -94.5 10.5t-74.5 28t-57.5 47.5t-42.5 61.5t-29.5 78t-19 88.5t-10.5 102t-5 109.5t-1 119.5q0 31 -1 58.5t-6 67t-13 71.5t-22.5 66t-34.5 57t-50.5 38t-68.5 15h-52v53h187q83 0 146 -23t102.5 -62.5
t64.5 -99t35 -125t10 -146.5v-74.5t1 -73.5t3 -74t5 -67.5t7.5 -64t11 -55t16 -47.5t21 -34.5t27 -24t33.5 -7.5q52 0 127.5 52t134.5 165l291 675l-162 56v30h408v-30l-154 -64l-602 -1380l164 -51v-31h-440z" />
    <glyph glyph-name="Yacute.ss01" horiz-adv-x="1665" 
d="M682 1659q88 179 171.5 282t145.5 103q26 0 47 -15t21 -36q0 -44 -97 -134t-261 -200h-27zM535 0v31l188 51l231 539q-71 -76 -131 -106t-143 -30q-52 0 -94.5 10.5t-74.5 28t-57.5 47.5t-42.5 61.5t-29.5 78t-19 88.5t-10.5 102t-5 109.5t-1 119.5q0 31 -1 58.5t-6 67
t-13 71.5t-22.5 66t-34.5 57t-50.5 38t-68.5 15h-52v53h187q83 0 146 -23t102.5 -62.5t64.5 -99t35 -125t10 -146.5v-74.5t1 -73.5t3 -74t5 -67.5t7.5 -64t11 -55t16 -47.5t21 -34.5t27 -24t33.5 -7.5q52 0 127.5 52t134.5 165l291 675l-162 56v30h408v-30l-154 -64
l-602 -1380l164 -51v-31h-440z" />
    <glyph glyph-name="Ycircumflex.ss01" horiz-adv-x="1665" 
d="M575 1657q12 24 33 67q109 216 142 263q42 54 84 55q47 0 84 -56t137 -258q22 -46 35 -71h-37l-219 239l-222 -239h-37zM535 0v31l188 51l231 539q-71 -76 -131 -106t-143 -30q-52 0 -94.5 10.5t-74.5 28t-57.5 47.5t-42.5 61.5t-29.5 78t-19 88.5t-10.5 102t-5 109.5
t-1 119.5q0 31 -1 58.5t-6 67t-13 71.5t-22.5 66t-34.5 57t-50.5 38t-68.5 15h-52v53h187q83 0 146 -23t102.5 -62.5t64.5 -99t35 -125t10 -146.5v-74.5t1 -73.5t3 -74t5 -67.5t7.5 -64t11 -55t16 -47.5t21 -34.5t27 -24t33.5 -7.5q52 0 127.5 52t134.5 165l291 675l-162 56
v30h408v-30l-154 -64l-602 -1380l164 -51v-31h-440z" />
    <glyph glyph-name="Ydieresis.ss01" horiz-adv-x="1665" 
d="M633 1700q-61 0 -99 37.5t-38 95.5q0 59 38 99t99 40q59 0 97 -40t38 -99q0 -57 -38 -95t-97 -38zM1024 1700q-61 0 -99 37.5t-38 95.5q0 59 38 99t99 40q59 0 97 -40t38 -99q0 -57 -37.5 -95t-97.5 -38zM535 0v31l188 51l231 539q-71 -76 -131 -106t-143 -30
q-52 0 -94.5 10.5t-74.5 28t-57.5 47.5t-42.5 61.5t-29.5 78t-19 88.5t-10.5 102t-5 109.5t-1 119.5q0 31 -1 58.5t-6 67t-13 71.5t-22.5 66t-34.5 57t-50.5 38t-68.5 15h-52v53h187q83 0 146 -23t102.5 -62.5t64.5 -99t35 -125t10 -146.5v-74.5t1 -73.5t3 -74t5 -67.5
t7.5 -64t11 -55t16 -47.5t21 -34.5t27 -24t33.5 -7.5q52 0 127.5 52t134.5 165l291 675l-162 56v30h408v-30l-154 -64l-602 -1380l164 -51v-31h-440z" />
    <glyph glyph-name="Ygrave.ss01" horiz-adv-x="1665" 
d="M918 1659q-162 109 -260.5 199.5t-98.5 130.5q0 25 20 40t54 15q55 0 140.5 -106t170.5 -279h-26zM535 0v31l188 51l231 539q-71 -76 -131 -106t-143 -30q-52 0 -94.5 10.5t-74.5 28t-57.5 47.5t-42.5 61.5t-29.5 78t-19 88.5t-10.5 102t-5 109.5t-1 119.5q0 31 -1 58.5
t-6 67t-13 71.5t-22.5 66t-34.5 57t-50.5 38t-68.5 15h-52v53h187q83 0 146 -23t102.5 -62.5t64.5 -99t35 -125t10 -146.5v-74.5t1 -73.5t3 -74t5 -67.5t7.5 -64t11 -55t16 -47.5t21 -34.5t27 -24t33.5 -7.5q52 0 127.5 52t134.5 165l291 675l-162 56v30h408v-30l-154 -64
l-602 -1380l164 -51v-31h-440z" />
    <glyph glyph-name="Z.ss01" horiz-adv-x="1224" 
d="M825 981l299 -948v-33h-1013l-11 72l310 673l-293 779v32h936l10 -55zM248 1378q0 -38 192 -567l299 649h-235q-112 0 -165 -7t-72 -23.5t-19 -51.5zM432 113h264q69 0 111.5 2t76 9.5t49.5 17t27 31t13 44.5t2 64q0 26 -8.5 67t-27.5 106.5t-37 122.5t-51.5 160
t-55.5 174z" />
    <glyph glyph-name="Zacute.ss01" horiz-adv-x="1224" 
d="M836 1993q0 -44 -97.5 -133.5t-261.5 -200.5h-26q88 179 171.5 282t145.5 103q26 0 47 -15t21 -36zM825 981l299 -948v-33h-1013l-11 72l310 673l-293 779v32h936l10 -55zM248 1378q0 -38 192 -567l299 649h-235q-112 0 -165 -7t-72 -23.5t-19 -51.5zM432 113h264
q69 0 111.5 2t76 9.5t49.5 17t27 31t13 44.5t2 64q0 26 -8.5 67t-27.5 106.5t-37 122.5t-51.5 160t-55.5 174z" />
    <glyph glyph-name="Zcaron.ss01" horiz-adv-x="1224" 
d="M582 1659q-46 0 -83.5 55t-136.5 254q-24 49 -38 76h36l222 -240l219 240h37q-127 -257 -154 -302q-43 -70 -81 -80q-10 -3 -21 -3zM825 981l299 -948v-33h-1013l-11 72l310 673l-293 779v32h936l10 -55zM248 1378q0 -38 192 -567l299 649h-235q-112 0 -165 -7t-72 -23.5
t-19 -51.5zM432 113h264q69 0 111.5 2t76 9.5t49.5 17t27 31t13 44.5t2 64q0 26 -8.5 67t-27.5 106.5t-37 122.5t-51.5 160t-55.5 174z" />
    <glyph glyph-name="Zdotaccent.ss01" horiz-adv-x="1224" 
d="M625 1700q-66 0 -108 42t-42 105t42.5 106.5t107.5 43.5t106 -43.5t41 -106.5q0 -64 -41 -105.5t-106 -41.5zM825 981l299 -948v-33h-1013l-11 72l310 673l-293 779v32h936l10 -55zM248 1378q0 -38 192 -567l299 649h-235q-112 0 -165 -7t-72 -23.5t-19 -51.5zM432 113
h264q69 0 111.5 2t76 9.5t49.5 17t27 31t13 44.5t2 64q0 26 -8.5 67t-27.5 106.5t-37 122.5t-51.5 160t-55.5 174z" />
    <glyph glyph-name="B.ss02" horiz-adv-x="1507" 
d="M100 0v31l154 82v1347l-154 66v30h641q271 0 428.5 -108.5t157.5 -300.5q0 -118 -62.5 -211t-181.5 -150q322 -63 322 -358q0 -200 -150 -314t-456 -114h-699zM803 795q116 0 185 87t69 234q0 338 -398 338h-45q-38 0 -50.5 -20.5t-12.5 -75.5v-377q64 -93 123.5 -139.5
t128.5 -46.5zM705 104h22q112 0 189 21.5t119 64t59.5 94.5t17.5 122q0 143 -65 234.5t-181 100.5q-61 4 -92.5 10t-71.5 24t-74 54t-77 97v-701q0 -73 29.5 -97t124.5 -24z" />
    <glyph glyph-name="P.ss02" horiz-adv-x="1429" 
d="M741 1556q276 0 431 -108.5t155 -323.5q0 -94 -31 -177.5t-88 -148t-145.5 -102t-196.5 -37.5q-103 0 -175 41.5t-140 143.5v-731l154 -82v-31h-605v31l154 82v1347l-154 66v30h641zM803 713q87 0 146 53.5t83.5 135.5t24.5 188q0 87 -19 151t-63 113.5t-123 74.5
t-193 25h-45q-38 0 -50.5 -20.5t-12.5 -75.5v-459q62 -95 122 -140.5t130 -45.5z" />
    <glyph glyph-name="R.ss02" horiz-adv-x="1591" 
d="M1288 113l205 -82v-31h-645v31l145 59l-442 719v-696l154 -82v-31h-605v31l154 82v1347l-154 66v30h641q276 0 431 -108.5t155 -323.5q0 -114 -43 -210.5t-131 -163.5t-207 -84zM614 1454q-38 0 -50.5 -20.5t-12.5 -75.5v-459q62 -95 122 -140.5t130 -45.5q87 0 146 53.5
t83.5 135.5t24.5 188q0 87 -19 151t-63 113.5t-123 74.5t-193 25h-45z" />
    <glyph glyph-name="Racute.ss02" horiz-adv-x="1591" 
d="M956 1993q0 -44 -97 -134t-261 -200h-27q88 178 172 281.5t146 103.5q26 0 46.5 -15t20.5 -36zM1288 113l205 -82v-31h-645v31l145 59l-442 719v-696l154 -82v-31h-605v31l154 82v1347l-154 66v30h641q276 0 431 -108.5t155 -323.5q0 -114 -43 -210.5t-131 -163.5
t-207 -84zM614 1454q-38 0 -50.5 -20.5t-12.5 -75.5v-459q62 -95 122 -140.5t130 -45.5q87 0 146 53.5t83.5 135.5t24.5 188q0 87 -19 151t-63 113.5t-123 74.5t-193 25h-45z" />
    <glyph glyph-name="Rcaron.ss02" horiz-adv-x="1591" 
d="M623 1659q-46 0 -83.5 55t-136.5 254q-24 49 -38 76h36l222 -240l219 240h37q-127 -257 -154 -302q-43 -70 -81 -80q-10 -3 -21 -3zM1288 113l205 -82v-31h-645v31l145 59l-442 719v-696l154 -82v-31h-605v31l154 82v1347l-154 66v30h641q276 0 431 -108.5t155 -323.5
q0 -114 -43 -210.5t-131 -163.5t-207 -84zM614 1454q-38 0 -50.5 -20.5t-12.5 -75.5v-459q62 -95 122 -140.5t130 -45.5q87 0 146 53.5t83.5 135.5t24.5 188q0 87 -19 151t-63 113.5t-123 74.5t-193 25h-45z" />
    <glyph glyph-name="Rcommaaccent.ss02" horiz-adv-x="1591" 
d="M1288 113l205 -82v-31h-645v31l145 59l-442 719v-696l154 -82v-31h-605v31l154 82v1347l-154 66v30h641q276 0 431 -108.5t155 -323.5q0 -114 -43 -210.5t-131 -163.5t-207 -84zM614 1454q-38 0 -50.5 -20.5t-12.5 -75.5v-459q62 -95 122 -140.5t130 -45.5q87 0 146 53.5
t83.5 135.5t24.5 188q0 87 -19 151t-63 113.5t-123 74.5t-193 25h-45zM584 -102q56 0 89.5 -32.5t33.5 -86.5q0 -66 -42.5 -142.5t-111.5 -136.5h-33q33 41 53.5 90t20.5 88q0 23 -15 42t-33 30t-33 31t-15 45q0 33 23.5 52.5t62.5 19.5z" />
    <glyph glyph-name="i.loclTRK" horiz-adv-x="663" 
d="M324 1214q-66 0 -108 42t-42 106q0 62 42.5 105.5t107.5 43.5t106 -43t41 -106q0 -64 -41 -106t-106 -42zM76 0v31l133 63v844l-133 66v30l340 41h41v-981l133 -63v-31h-514z" />
    <glyph glyph-name="a.ss01" horiz-adv-x="1226" 
d="M1020 137l133 -65v-31l-340 -41h-41v141q-131 -166 -301 -166q-75 0 -145.5 33.5t-125.5 94.5t-88.5 155t-33.5 205q0 275 191 443.5t503 168.5h248v-938zM547 80q65 0 124.5 48.5t100.5 123.5v760q-196 -2 -316 -152t-120 -397q0 -172 58 -277.5t153 -105.5z" />
    <glyph glyph-name="aacute.ss01" horiz-adv-x="1226" 
d="M903 1511q0 -44 -97 -133t-261 -200h-27q88 178 172 281.5t146 103.5q26 0 46.5 -15.5t20.5 -36.5zM1020 137l133 -65v-31l-340 -41h-41v141q-131 -166 -301 -166q-75 0 -145.5 33.5t-125.5 94.5t-88.5 155t-33.5 205q0 275 191 443.5t503 168.5h248v-938zM547 80
q65 0 124.5 48.5t100.5 123.5v760q-196 -2 -316 -152t-120 -397q0 -172 58 -277.5t153 -105.5z" />
    <glyph glyph-name="abreve.ss01" horiz-adv-x="1226" 
d="M647 1178q-52 0 -99.5 23.5t-88 68.5t-64.5 121t-24 172h30q5 -109 72 -183.5t174 -74.5t174 74.5t72 183.5h31q0 -96 -24.5 -172t-64.5 -121t-88 -68.5t-100 -23.5zM1020 137l133 -65v-31l-340 -41h-41v141q-131 -166 -301 -166q-75 0 -145.5 33.5t-125.5 94.5
t-88.5 155t-33.5 205q0 275 191 443.5t503 168.5h248v-938zM547 80q65 0 124.5 48.5t100.5 123.5v760q-196 -2 -316 -152t-120 -397q0 -172 58 -277.5t153 -105.5z" />
    <glyph glyph-name="acircumflex.ss01" horiz-adv-x="1226" 
d="M614 1417l-221 -239h-37q14 27 38 76q100 199 137 254t83 55q47 0 84 -56t137 -258q22 -46 35 -71h-36zM1020 137l133 -65v-31l-340 -41h-41v141q-131 -166 -301 -166q-75 0 -145.5 33.5t-125.5 94.5t-88.5 155t-33.5 205q0 275 191 443.5t503 168.5h248v-938zM547 80
q65 0 124.5 48.5t100.5 123.5v760q-196 -2 -316 -152t-120 -397q0 -172 58 -277.5t153 -105.5z" />
    <glyph glyph-name="adieresis.ss01" horiz-adv-x="1226" 
d="M438 1219q-61 0 -99 37.5t-38 95.5q0 59 38 99t99 40q59 0 97 -40t38 -99q0 -58 -37.5 -95.5t-97.5 -37.5zM829 1219q-61 0 -99 37.5t-38 95.5q0 59 38 99t99 40q59 0 97.5 -40t38.5 -99q0 -57 -38 -95t-98 -38zM1020 137l133 -65v-31l-340 -41h-41v141
q-131 -166 -301 -166q-75 0 -145.5 33.5t-125.5 94.5t-88.5 155t-33.5 205q0 275 191 443.5t503 168.5h248v-938zM547 80q65 0 124.5 48.5t100.5 123.5v760q-196 -2 -316 -152t-120 -397q0 -172 58 -277.5t153 -105.5z" />
    <glyph glyph-name="agrave.ss01" horiz-adv-x="1226" 
d="M727 1178q-162 109 -260 199t-98 130q0 25 20 40.5t53 15.5q56 0 141.5 -106t170.5 -279h-27zM1020 137l133 -65v-31l-340 -41h-41v141q-131 -166 -301 -166q-75 0 -145.5 33.5t-125.5 94.5t-88.5 155t-33.5 205q0 275 191 443.5t503 168.5h248v-938zM547 80
q65 0 124.5 48.5t100.5 123.5v760q-196 -2 -316 -152t-120 -397q0 -172 58 -277.5t153 -105.5z" />
    <glyph glyph-name="amacron.ss01" horiz-adv-x="1226" 
d="M930 1454v-119h-580v119h580zM1020 137l133 -65v-31l-340 -41h-41v141q-131 -166 -301 -166q-75 0 -145.5 33.5t-125.5 94.5t-88.5 155t-33.5 205q0 275 191 443.5t503 168.5h248v-938zM547 80q65 0 124.5 48.5t100.5 123.5v760q-196 -2 -316 -152t-120 -397
q0 -172 58 -277.5t153 -105.5z" />
    <glyph glyph-name="aogonek.ss01" horiz-adv-x="1226" 
d="M838 2q-144 -137 -144 -248q0 -54 25 -79t59 -25q50 0 92 57h52q-80 -131 -201 -131q-66 0 -112 38t-46 103q0 36 18.5 75.5t39 67t57 61.5t51.5 46t43 33v141q-131 -166 -301 -166q-75 0 -145.5 33.5t-125.5 94.5t-88.5 155t-33.5 205q0 275 191 443.5t503 168.5h248
v-938l133 -65v-31zM547 80q65 0 124.5 48.5t100.5 123.5v760q-196 -2 -316 -152t-120 -397q0 -172 58 -277.5t153 -105.5z" />
    <glyph glyph-name="aring.ss01" horiz-adv-x="1226" 
d="M633 1184q-78 0 -134.5 56.5t-56.5 133.5t56.5 133t134.5 56q75 0 131.5 -56.5t56.5 -132.5t-56.5 -133t-131.5 -57zM633 1483q-46 0 -78.5 -32.5t-32.5 -76.5t33 -77t78 -33q43 0 75.5 33t32.5 77q0 45 -32.5 77t-75.5 32zM1020 137l133 -65v-31l-340 -41h-41v141
q-131 -166 -301 -166q-75 0 -145.5 33.5t-125.5 94.5t-88.5 155t-33.5 205q0 275 191 443.5t503 168.5h248v-938zM547 80q65 0 124.5 48.5t100.5 123.5v760q-196 -2 -316 -152t-120 -397q0 -172 58 -277.5t153 -105.5z" />
    <glyph glyph-name="atilde.ss01" horiz-adv-x="1226" 
d="M496 1350q-41 0 -67 -21.5t-42 -79.5h-47q11 101 57.5 158t128.5 57q43 0 85 -25t80 -50t71 -25q41 0 66.5 21t41.5 79h48q-11 -101 -58.5 -158t-130.5 -57q-44 0 -85.5 25.5t-78 50.5t-69.5 25zM1020 137l133 -65v-31l-340 -41h-41v141q-131 -166 -301 -166
q-75 0 -145.5 33.5t-125.5 94.5t-88.5 155t-33.5 205q0 275 191 443.5t503 168.5h248v-938zM547 80q65 0 124.5 48.5t100.5 123.5v760q-196 -2 -316 -152t-120 -397q0 -172 58 -277.5t153 -105.5z" />
    <glyph glyph-name="c.ss01" horiz-adv-x="1150" 
d="M610 -23q-231 0 -380.5 160t-149.5 414q0 251 150 404t395 153q120 0 215 -43.5t153 -116.5l-266 -659h-51q131 345 131 526q0 209 -172 209q-140 0 -220.5 -128t-80.5 -341q0 -224 87 -359t232 -135q111 0 213.5 82t159.5 217h51q-58 -176 -177 -279.5t-290 -103.5z" />
    <glyph glyph-name="cacute.ss01" horiz-adv-x="1150" 
d="M471 1178q88 179 171.5 282t145.5 103q26 0 47 -15.5t21 -36.5q0 -44 -97 -133t-261 -200h-27zM610 -23q-231 0 -380.5 160t-149.5 414q0 251 150 404t395 153q120 0 215 -43.5t153 -116.5l-141 -350h-51q39 107 39 197q0 107 -55 168t-150 61q-140 0 -220.5 -128
t-80.5 -341q0 -224 87 -359t232 -135q111 0 213.5 82t159.5 217h51q-58 -176 -177 -279.5t-290 -103.5z" />
    <glyph glyph-name="ccaron.ss01" horiz-adv-x="1150" 
d="M348 1563h37l221 -240l219 240h37q-127 -257 -154 -302q-43 -70 -81 -80q-10 -3 -21 -3q-46 0 -83.5 55t-136.5 254q-24 49 -38 76zM610 -23q-231 0 -380.5 160t-149.5 414q0 251 150 404t395 153q120 0 215 -43.5t153 -116.5l-141 -350h-51q39 107 39 197q0 107 -55 168
t-150 61q-140 0 -220.5 -128t-80.5 -341q0 -224 87 -359t232 -135q111 0 213.5 82t159.5 217h51q-58 -176 -177 -279.5t-290 -103.5z" />
    <glyph glyph-name="ccedilla.ss01" horiz-adv-x="1150" 
d="M610 -23h-6l-53 -94q79 0 127.5 -38.5t48.5 -94.5q0 -63 -48.5 -115.5t-135.5 -52.5q-58 0 -119 35v31q52 -21 96 -21q113 0 113 88q0 43 -39 75t-111 32v39l68 119q-208 22 -339.5 178.5t-131.5 392.5q0 251 150 404t395 153q120 0 215 -43.5t153 -116.5l-266 -659h-51
q131 345 131 526q0 209 -172 209q-140 0 -220.5 -128t-80.5 -341q0 -224 87 -359t232 -135q111 0 213.5 82t159.5 217h51q-58 -176 -177 -279.5t-290 -103.5z" />
    <glyph glyph-name="cdotaccent.ss01" horiz-adv-x="1150" 
d="M588 1214q-66 0 -108 42t-42 106q0 62 42.5 105.5t107.5 43.5t106 -43t41 -106q0 -64 -41 -106t-106 -42zM610 -23q-231 0 -380.5 160t-149.5 414q0 251 150 404t395 153q120 0 215 -43.5t153 -116.5l-266 -659h-51q131 345 131 526q0 209 -172 209q-140 0 -220.5 -128
t-80.5 -341q0 -224 87 -359t232 -135q111 0 213.5 82t159.5 217h51q-58 -176 -177 -279.5t-290 -103.5z" />
    <glyph glyph-name="e.ss01" 
d="M1057 360h51q-57 -170 -196.5 -276.5t-323.5 -106.5q-224 0 -366 156.5t-142 407.5q0 253 145.5 410t368.5 157q175 0 294.5 -96t119.5 -242q0 -113 -48.5 -213t-130.5 -166l-497 197v-23q0 -227 98.5 -365.5t261.5 -138.5q107 0 207.5 82t157.5 217zM641 1016
q-121 0 -207 -99.5t-100 -285.5q239 -70 342 -70q92 0 148.5 59t56.5 154q0 104 -67.5 173t-172.5 69z" />
    <glyph glyph-name="eacute.ss01" 
d="M834 1511q0 -43 -97 -132.5t-262 -200.5h-26q88 179 171.5 282t145.5 103q26 0 47 -15.5t21 -36.5zM1057 360h51q-57 -170 -196.5 -276.5t-323.5 -106.5q-224 0 -366 156.5t-142 407.5q0 253 145.5 410t368.5 157q175 0 294.5 -96t119.5 -242q0 -113 -48.5 -213
t-130.5 -166l-497 197v-23q0 -227 98.5 -365.5t261.5 -138.5q107 0 207.5 82t157.5 217zM641 1016q-121 0 -207 -99.5t-100 -285.5q239 -70 342 -70q92 0 148.5 59t56.5 154q0 104 -67.5 173t-172.5 69z" />
    <glyph glyph-name="ecaron.ss01" 
d="M621 1178q-47 0 -86 58t-140 260l-11 22t-10 21t-12 24h37l222 -240l219 240h37q-127 -257 -154 -302q-43 -70 -81 -80q-10 -3 -21 -3zM1057 360h51q-57 -170 -196.5 -276.5t-323.5 -106.5q-224 0 -366 156.5t-142 407.5q0 253 145.5 410t368.5 157q175 0 294.5 -96
t119.5 -242q0 -113 -48.5 -213t-130.5 -166l-497 197v-23q0 -227 98.5 -365.5t261.5 -138.5q107 0 207.5 82t157.5 217zM641 1016q-121 0 -207 -99.5t-100 -285.5q239 -70 342 -70q92 0 148.5 59t56.5 154q0 104 -67.5 173t-172.5 69z" />
    <glyph glyph-name="ecircumflex.ss01" 
d="M594 1417l-221 -239h-37q14 27 38 76q100 199 137 254t83 55q47 0 84 -56t137 -258q22 -46 35 -71h-37zM1057 360h51q-57 -170 -196.5 -276.5t-323.5 -106.5q-224 0 -366 156.5t-142 407.5q0 253 145.5 410t368.5 157q175 0 294.5 -96t119.5 -242q0 -113 -48.5 -213
t-130.5 -166l-497 197v-23q0 -227 98.5 -365.5t261.5 -138.5q107 0 207.5 82t157.5 217zM641 1016q-121 0 -207 -99.5t-100 -285.5q239 -70 342 -70q92 0 148.5 59t56.5 154q0 104 -67.5 173t-172.5 69z" />
    <glyph glyph-name="edieresis.ss01" 
d="M418 1219q-61 0 -99 37.5t-38 95.5q0 59 38 99t99 40q59 0 97 -40t38 -99q0 -58 -37.5 -95.5t-97.5 -37.5zM809 1219q-61 0 -99 37.5t-38 95.5q0 59 38 99t99 40q59 0 97 -40t38 -99q0 -58 -38 -95.5t-97 -37.5zM1057 360h51q-57 -170 -196.5 -276.5t-323.5 -106.5
q-224 0 -366 156.5t-142 407.5q0 253 145.5 410t368.5 157q175 0 294.5 -96t119.5 -242q0 -113 -48.5 -213t-130.5 -166l-497 197v-23q0 -227 98.5 -365.5t261.5 -138.5q107 0 207.5 82t157.5 217zM641 1016q-121 0 -207 -99.5t-100 -285.5q239 -70 342 -70q92 0 148.5 59
t56.5 154q0 104 -67.5 173t-172.5 69z" />
    <glyph glyph-name="edotaccent.ss01" 
d="M561 1214q-65 0 -107 42t-42 106q0 63 42 106t107 43t106.5 -43t41.5 -106q0 -64 -41.5 -106t-106.5 -42zM1057 360h51q-57 -170 -196.5 -276.5t-323.5 -106.5q-224 0 -366 156.5t-142 407.5q0 253 145.5 410t368.5 157q175 0 294.5 -96t119.5 -242q0 -113 -48.5 -213
t-130.5 -166l-497 197v-23q0 -227 98.5 -365.5t261.5 -138.5q107 0 207.5 82t157.5 217zM641 1016q-121 0 -207 -99.5t-100 -285.5q239 -70 342 -70q92 0 148.5 59t56.5 154q0 104 -67.5 173t-172.5 69z" />
    <glyph glyph-name="egrave.ss01" 
d="M643 1178q-162 109 -260 199t-98 130q0 25 20 40.5t53 15.5q56 0 141.5 -106t170.5 -279h-27zM1057 360h51q-57 -170 -196.5 -276.5t-323.5 -106.5q-224 0 -366 156.5t-142 407.5q0 253 145.5 410t368.5 157q175 0 294.5 -96t119.5 -242q0 -113 -48.5 -213t-130.5 -166
l-497 197v-23q0 -227 98.5 -365.5t261.5 -138.5q107 0 207.5 82t157.5 217zM641 1016q-121 0 -207 -99.5t-100 -285.5q239 -70 342 -70q92 0 148.5 59t56.5 154q0 104 -67.5 173t-172.5 69z" />
    <glyph glyph-name="emacron.ss01" 
d="M879 1454v-119h-580v119h580zM1057 360h51q-57 -170 -196.5 -276.5t-323.5 -106.5q-224 0 -366 156.5t-142 407.5q0 253 145.5 410t368.5 157q175 0 294.5 -96t119.5 -242q0 -113 -48.5 -213t-130.5 -166l-497 197v-23q0 -227 98.5 -365.5t261.5 -138.5q107 0 207.5 82
t157.5 217zM641 1016q-121 0 -207 -99.5t-100 -285.5q239 -70 342 -70q92 0 148.5 59t56.5 154q0 104 -67.5 173t-172.5 69z" />
    <glyph glyph-name="eogonek.ss01" 
d="M662 -18q-123 -118 -123 -228q0 -54 25 -79t59 -25q50 0 92 57h51q-80 -131 -201 -131q-66 0 -111.5 38t-45.5 103q0 121 180 260q-224 0 -366 156.5t-142 407.5q0 253 145.5 410t368.5 157q175 0 294.5 -96t119.5 -242q0 -113 -48.5 -213t-130.5 -166l-497 197v-23
q0 -227 98.5 -365.5t261.5 -138.5q107 0 207.5 82t157.5 217h51q-50 -152 -168.5 -254.5t-277.5 -123.5zM641 1016q-121 0 -207 -99.5t-100 -285.5q239 -70 342 -70q92 0 148.5 59t56.5 154q0 104 -67.5 173t-172.5 69z" />
    <glyph glyph-name="f.ss01" horiz-adv-x="798" 
d="M594 1673q48 0 90.5 -11t70.5 -25.5t56.5 -39.5t43 -41.5t34.5 -42.5l-217 -530h-215v-889l133 -63v-31h-514v31l133 63v889h-131v92h131v92q0 228 100.5 367t284.5 139zM655 1075q68 210 68 295q0 77 -28 124.5t-85 47.5q-43 0 -74 -27.5t-47.5 -76t-24 -103.5
t-7.5 -121v-139h198z" />
    <glyph glyph-name="g.ss01" horiz-adv-x="1230" 
d="M817 1075l340 -41v-30l-133 -66v-836q0 -237 -133 -380.5t-367 -143.5q-133 0 -232 45.5t-142 112.5l126 370q-91 81 -142.5 201.5t-51.5 265.5q0 228 120 381.5t283 153.5q152 0 291 -160v127h41zM551 1004q-91 0 -146 -120.5t-55 -326.5q0 -105 15.5 -193.5t48.5 -163
t92 -117t139 -42.5q63 0 131 25v778q-121 160 -225 160zM524 -315q48 0 91.5 17.5t80 53t58 97t22.5 141.5q-81 -19 -149 -19q-167 0 -299 93q-37 -169 16.5 -276t179.5 -107z" />
    <glyph glyph-name="gbreve.ss01" horiz-adv-x="1230" 
d="M616 1178q-52 0 -99.5 23.5t-88 68.5t-64.5 121t-24 172h31q5 -110 71.5 -184t173.5 -74t174 74.5t72 183.5h31q0 -96 -24.5 -172t-64.5 -121t-88 -68.5t-100 -23.5zM817 1075l340 -41v-30l-133 -66v-836q0 -237 -133 -380.5t-367 -143.5q-133 0 -232 45.5t-142 112.5
l126 370q-91 81 -142.5 201.5t-51.5 265.5q0 228 120 381.5t283 153.5q152 0 291 -160v127h41zM551 1004q-91 0 -146 -120.5t-55 -326.5q0 -105 15.5 -193.5t48.5 -163t92 -117t139 -42.5q63 0 131 25v778q-121 160 -225 160zM524 -315q48 0 91.5 17.5t80 53t58 97
t22.5 141.5q-81 -19 -149 -19q-167 0 -299 93q-37 -169 16.5 -276t179.5 -107z" />
    <glyph glyph-name="gcommaaccent.ss01" horiz-adv-x="1230" 
d="M561 1200q-56 0 -89.5 32.5t-33.5 86.5q0 66 42.5 142t111.5 136h33q-33 -41 -53.5 -90t-20.5 -88q0 -23 15 -41.5t33 -29.5t33 -31t15 -45q0 -33 -23.5 -52.5t-62.5 -19.5zM817 1075l340 -41v-30l-133 -66v-836q0 -237 -133 -380.5t-367 -143.5q-133 0 -232 45.5
t-142 112.5l126 370q-91 81 -142.5 201.5t-51.5 265.5q0 228 120 381.5t283 153.5q152 0 291 -160v127h41zM551 1004q-91 0 -146 -120.5t-55 -326.5q0 -105 15.5 -193.5t48.5 -163t92 -117t139 -42.5q63 0 131 25v778q-121 160 -225 160zM524 -315q48 0 91.5 17.5t80 53
t58 97t22.5 141.5q-81 -19 -149 -19q-167 0 -299 93q-37 -169 16.5 -276t179.5 -107z" />
    <glyph glyph-name="gdotaccent.ss01" horiz-adv-x="1230" 
d="M567 1214q-65 0 -107 42t-42 106q0 63 42 106t107 43t106.5 -43t41.5 -106q0 -64 -41.5 -106t-106.5 -42zM817 1075l340 -41v-30l-133 -66v-836q0 -237 -133 -380.5t-367 -143.5q-133 0 -232 45.5t-142 112.5l126 370q-91 81 -142.5 201.5t-51.5 265.5q0 228 120 381.5
t283 153.5q152 0 291 -160v127h41zM551 1004q-91 0 -146 -120.5t-55 -326.5q0 -105 15.5 -193.5t48.5 -163t92 -117t139 -42.5q63 0 131 25v778q-121 160 -225 160zM524 -315q48 0 91.5 17.5t80 53t58 97t22.5 141.5q-81 -19 -149 -19q-167 0 -299 93q-37 -169 16.5 -276
t179.5 -107z" />
    <glyph glyph-name="j.ss01" horiz-adv-x="561" 
d="M334 1251q-69 0 -111.5 43.5t-42.5 114.5q0 72 42.5 116t111.5 44t111 -44t42 -116q0 -71 -42 -114.5t-111 -43.5zM74 -424q-73 0 -149.5 55t-80.5 127l172 336h41q-65 -147 -65 -246q0 -83 39.5 -123t83.5 -40q31 0 54 23.5t34.5 62.5t16.5 78.5t5 82.5v1006l-133 66v30
l340 41h41v-788q0 -223 -57 -396q-104 -315 -342 -315z" />
    <glyph glyph-name="r.ss01" horiz-adv-x="946" 
d="M76 0v31l133 61v846l-133 66v30l360 41h21v-223h2q16 37 27.5 61t36.5 65t49.5 66t62 44.5t78.5 19.5q27 0 51.5 -8.5t40 -20t30.5 -29t22 -29t15 -27t9 -17.5l-193 -571h-41q55 195 70.5 270.5t15.5 118.5q0 66 -17.5 97.5t-58.5 31.5q-106 0 -200 -207v-623l133 -63
v-31h-514z" />
    <glyph glyph-name="racute.ss01" horiz-adv-x="946" 
d="M301 1178q88 179 171.5 282t145.5 103q26 0 47 -15.5t21 -36.5q0 -44 -97 -133t-261 -200h-27zM76 0v31l133 61v846l-133 66v30l360 41h21v-223h2q16 37 27.5 61t36.5 65t49.5 66t62 44.5t78.5 19.5q27 0 51.5 -8.5t40 -20t30.5 -29t22 -29t15 -27t9 -17.5l-193 -571h-41
q55 195 70.5 270.5t15.5 118.5q0 66 -17.5 97.5t-58.5 31.5q-106 0 -200 -207v-623l133 -63v-31h-514z" />
    <glyph glyph-name="rcaron.ss01" horiz-adv-x="946" 
d="M215 1563h37l221 -240l219 240h37q-127 -257 -154 -302q-43 -70 -81 -80q-10 -3 -21 -3q-46 0 -83.5 55t-136.5 254q-24 49 -38 76zM76 0v31l133 61v846l-133 66v30l360 41h21v-223h2q16 37 27.5 61t36.5 65t49.5 66t62 44.5t78.5 19.5q27 0 51.5 -8.5t40 -20t30.5 -29
t22 -29t15 -27t9 -17.5l-193 -571h-41q55 195 70.5 270.5t15.5 118.5q0 66 -17.5 97.5t-58.5 31.5q-106 0 -200 -207v-623l133 -63v-31h-514z" />
    <glyph glyph-name="rcommaaccent.ss01" horiz-adv-x="946" 
d="M76 0v31l133 61v846l-133 66v30l360 41h21v-223h2q16 37 27.5 61t36.5 65t49.5 66t62 44.5t78.5 19.5q27 0 51.5 -8.5t40 -20t30.5 -29t22 -29t15 -27t9 -17.5l-193 -571h-41q55 195 70.5 270.5t15.5 118.5q0 66 -17.5 97.5t-58.5 31.5q-106 0 -200 -207v-623l133 -63
v-31h-514zM373 -102q56 0 89.5 -32.5t33.5 -86.5q0 -66 -42.5 -142.5t-111.5 -136.5h-33q33 41 53.5 90t20.5 88q0 23 -15 42t-33 30t-33 31t-15 45q0 33 23.5 52.5t62.5 19.5z" />
    <glyph glyph-name="s.ss01" horiz-adv-x="946" 
d="M709 602q81 -37 120 -97t39 -165q0 -95 -31 -166t-86.5 -113.5t-126 -63t-155.5 -20.5q-131 0 -236 47t-155 140l100 391q-76 93 -76 221q0 152 99.5 242t265.5 90q108 0 198.5 -39t145.5 -106zM436 1024q-70 0 -128 -38t-58 -112q0 -25 8 -46t19.5 -37t34 -32t42 -26.5
t54 -23.5t59 -21t68.5 -22q73 -23 124 -41q15 181 -46 290t-177 109zM489 68q112 0 165 47t53 118q0 60 -61 97.5t-204 72.5q-110 27 -200 93q-12 -125 1 -211.5t50 -132.5t84 -65t112 -19z" />
    <glyph glyph-name="sacute.ss01" horiz-adv-x="946" 
d="M735 1511q0 -44 -97 -133t-261 -200h-27q88 178 172 281.5t146 103.5q26 0 46.5 -15.5t20.5 -36.5zM709 602q81 -37 120 -97t39 -165q0 -95 -31 -166t-86.5 -113.5t-126 -63t-155.5 -20.5q-131 0 -236 47t-155 140l100 391q-76 93 -76 221q0 152 99.5 242t265.5 90
q108 0 198.5 -39t145.5 -106zM436 1024q-70 0 -128 -38t-58 -112q0 -25 8 -46t19.5 -37t34 -32t42 -26.5t54 -23.5t59 -21t68.5 -22q73 -23 124 -41q15 181 -46 290t-177 109zM489 68q112 0 165 47t53 118q0 60 -61 97.5t-204 72.5q-110 27 -200 93q-12 -125 1 -211.5
t50 -132.5t84 -65t112 -19z" />
    <glyph glyph-name="scaron.ss01" horiz-adv-x="946" 
d="M461 1178q-46 0 -83.5 55t-136.5 254q-24 49 -38 76h37l221 -240l219 240h37q-127 -257 -154 -302q-43 -70 -81 -80q-10 -3 -21 -3zM709 602q81 -37 120 -97t39 -165q0 -95 -31 -166t-86.5 -113.5t-126 -63t-155.5 -20.5q-131 0 -236 47t-155 140l100 391q-76 93 -76 221
q0 152 99.5 242t265.5 90q108 0 198.5 -39t145.5 -106zM436 1024q-70 0 -128 -38t-58 -112q0 -25 8 -46t19.5 -37t34 -32t42 -26.5t54 -23.5t59 -21t68.5 -22q73 -23 124 -41q15 181 -46 290t-177 109zM489 68q112 0 165 47t53 118q0 60 -61 97.5t-204 72.5q-110 27 -200 93
q-12 -125 1 -211.5t50 -132.5t84 -65t112 -19z" />
    <glyph glyph-name="scedilla.ss01" horiz-adv-x="946" 
d="M469 -23h-10l-53 -94q79 0 127.5 -38.5t48.5 -94.5q0 -63 -49 -115.5t-136 -52.5q-57 0 -118 35v31q53 -21 96 -21q112 0 112 88q0 44 -38.5 75.5t-110.5 31.5v39l68 119q-111 11 -197.5 57t-130.5 127l100 391q-76 93 -76 221q0 152 99.5 242t265.5 90q108 0 198.5 -39
t145.5 -106l-102 -361q81 -37 120 -97t39 -165q0 -95 -31 -166t-86.5 -113.5t-126 -63t-155.5 -20.5zM436 1024q-70 0 -128 -38t-58 -112q0 -25 8 -46t19.5 -37t34 -32t42 -26.5t54 -23.5t59 -21t68.5 -22q73 -23 124 -41q15 181 -46 290t-177 109zM242 496
q-12 -125 1 -211.5t50 -132.5t84 -65t112 -19q112 0 165 47t53 118q0 60 -61 97.5t-204 72.5q-110 27 -200 93z" />
    <glyph glyph-name="scommaaccent.ss01" horiz-adv-x="946" 
d="M469 -23q-131 0 -236 47t-155 140l78 233h69q-6 -47 -6 -86q0 -72 20.5 -122t58.5 -75.5t80 -35.5t97 -10q125 0 178.5 45.5t53.5 117.5q0 62 -62.5 100t-202.5 72q-38 9 -75.5 23t-87.5 44.5t-87 69t-63.5 100.5t-26.5 136q0 152 99.5 242t265.5 90q108 0 198.5 -39
t145.5 -106l-66 -246h-51q0 150 -70 228.5t-180 78.5q-78 0 -136 -37.5t-58 -112.5q0 -29 9 -53t31 -43.5t42 -33.5t60 -29.5t66 -24t77 -24.5q43 -14 67 -22t58.5 -21t54 -23t45 -25.5t39 -31t29 -37t23 -45.5t12.5 -54.5t5 -66.5q0 -95 -31 -166t-86.5 -113.5t-126 -63
t-155.5 -20.5zM426 -102q56 0 89.5 -32.5t33.5 -86.5q0 -66 -42.5 -142.5t-111.5 -136.5h-33q33 41 53.5 90t20.5 88q0 23 -15 42t-33 30t-33 31t-15 45q0 33 23.5 52.5t62.5 19.5z" />
    <glyph glyph-name="y.ss01" horiz-adv-x="1355" 
d="M336 -422q-75 0 -162 47.5t-127 110.5l131 379h51q-42 -195 -4 -310.5t144 -115.5q52 0 109.5 57.5t94.5 135.5t37 138l-387 979l-149 45v31h542v-31l-139 -45l289 -729l266 736l-145 38v31h399v-31l-176 -45l-309 -858q-22 -60 -39.5 -104.5t-46 -107t-55 -108
t-63.5 -94t-75 -79t-86.5 -50.5t-99.5 -20z" />
    <glyph glyph-name="yacute.ss01" horiz-adv-x="1355" 
d="M602 1178q88 178 172 281.5t146 103.5q26 0 46.5 -15.5t20.5 -36.5q0 -44 -97 -133t-261 -200h-27zM336 -422q-75 0 -162 47.5t-127 110.5l131 379h51q-42 -195 -4 -310.5t144 -115.5q52 0 109.5 57.5t94.5 135.5t37 138l-387 979l-149 45v31h542v-31l-139 -45l289 -729
l266 736l-145 38v31h399v-31l-176 -45l-309 -858q-22 -60 -39.5 -104.5t-46 -107t-55 -108t-63.5 -94t-75 -79t-86.5 -50.5t-99.5 -20z" />
    <glyph glyph-name="ycircumflex.ss01" horiz-adv-x="1355" 
d="M424 1178q14 27 38 76q100 199 137 254t83 55q47 0 84 -56t137 -258q22 -46 35 -71h-37l-219 239l-221 -239h-37zM336 -422q-75 0 -162 47.5t-127 110.5l131 379h51q-42 -195 -4 -310.5t144 -115.5q52 0 109.5 57.5t94.5 135.5t37 138l-387 979l-149 45v31h542v-31
l-139 -45l289 -729l266 736l-145 38v31h399v-31l-176 -45l-309 -858q-22 -60 -39.5 -104.5t-46 -107t-55 -108t-63.5 -94t-75 -79t-86.5 -50.5t-99.5 -20z" />
    <glyph glyph-name="ydieresis.ss01" horiz-adv-x="1355" 
d="M582 1219q-61 0 -99.5 37.5t-38.5 95.5q0 59 38.5 99t99.5 40q59 0 97 -40t38 -99q0 -58 -37.5 -95.5t-97.5 -37.5zM973 1219q-61 0 -99 37.5t-38 95.5q0 59 38 99t99 40q59 0 97 -40t38 -99q0 -58 -38 -95.5t-97 -37.5zM336 -422q-75 0 -162 47.5t-127 110.5l131 379h51
q-42 -195 -4 -310.5t144 -115.5q52 0 109.5 57.5t94.5 135.5t37 138l-387 979l-149 45v31h542v-31l-139 -45l289 -729l266 736l-145 38v31h399v-31l-176 -45l-309 -858q-22 -60 -39.5 -104.5t-46 -107t-55 -108t-63.5 -94t-75 -79t-86.5 -50.5t-99.5 -20z" />
    <glyph glyph-name="ygrave.ss01" horiz-adv-x="1355" 
d="M776 1178q-162 109 -260 199t-98 130q0 25 20 40.5t54 15.5q55 0 140.5 -106t170.5 -279h-27zM336 -422q-75 0 -162 47.5t-127 110.5l131 379h51q-42 -195 -4 -310.5t144 -115.5q52 0 109.5 57.5t94.5 135.5t37 138l-387 979l-149 45v31h542v-31l-139 -45l289 -729
l266 736l-145 38v31h399v-31l-176 -45l-309 -858q-22 -60 -39.5 -104.5t-46 -107t-55 -108t-63.5 -94t-75 -79t-86.5 -50.5t-99.5 -20z" />
    <glyph glyph-name="e.ss02" 
d="M1057 360h51q-57 -170 -196.5 -276.5t-323.5 -106.5q-224 0 -366 156.5t-142 407.5q0 73 12 137l-176 67l2 31q67 -25 182 -63q44 183 178.5 289t319.5 106q172 0 291 -96t119 -242q0 -113 -48.5 -213t-130.5 -166l-497 193v-19q0 -227 98.5 -365.5t261.5 -138.5
q107 0 207.5 82t157.5 217zM641 1016q-120 0 -206.5 -98.5t-100.5 -282.5q245 -74 342 -74q92 0 148.5 59t56.5 154q0 104 -67.5 173t-172.5 69z" />
    <glyph glyph-name="eacute.ss02" 
d="M834 1511q0 -43 -97 -132.5t-262 -200.5h-26q88 179 171.5 282t145.5 103q26 0 47 -15.5t21 -36.5zM1057 360h51q-57 -170 -196.5 -276.5t-323.5 -106.5q-224 0 -366 156.5t-142 407.5q0 73 12 137l-176 67l2 31q67 -25 182 -63q44 183 178.5 289t319.5 106
q172 0 291 -96t119 -242q0 -113 -48.5 -213t-130.5 -166l-497 193v-19q0 -227 98.5 -365.5t261.5 -138.5q107 0 207.5 82t157.5 217zM641 1016q-120 0 -206.5 -98.5t-100.5 -282.5q245 -74 342 -74q92 0 148.5 59t56.5 154q0 104 -67.5 173t-172.5 69z" />
    <glyph glyph-name="ecaron.ss02" 
d="M621 1178q-47 0 -86 58t-140 260l-11 22t-10 21t-12 24h37l222 -240l219 240h37q-127 -257 -154 -302q-43 -70 -81 -80q-10 -3 -21 -3zM1057 360h51q-57 -170 -196.5 -276.5t-323.5 -106.5q-224 0 -366 156.5t-142 407.5q0 73 12 137l-176 67l2 31q67 -25 182 -63
q44 183 178.5 289t319.5 106q172 0 291 -96t119 -242q0 -113 -48.5 -213t-130.5 -166l-497 193v-19q0 -227 98.5 -365.5t261.5 -138.5q107 0 207.5 82t157.5 217zM641 1016q-120 0 -206.5 -98.5t-100.5 -282.5q245 -74 342 -74q92 0 148.5 59t56.5 154q0 104 -67.5 173
t-172.5 69z" />
    <glyph glyph-name="ecircumflex.ss02" 
d="M594 1417l-221 -239h-37q14 27 38 76q100 199 137 254t83 55q47 0 84 -56t137 -258q22 -46 35 -71h-37zM1057 360h51q-57 -170 -196.5 -276.5t-323.5 -106.5q-224 0 -366 156.5t-142 407.5q0 73 12 137l-176 67l2 31q67 -25 182 -63q44 183 178.5 289t319.5 106
q172 0 291 -96t119 -242q0 -113 -48.5 -213t-130.5 -166l-497 193v-19q0 -227 98.5 -365.5t261.5 -138.5q107 0 207.5 82t157.5 217zM641 1016q-120 0 -206.5 -98.5t-100.5 -282.5q245 -74 342 -74q92 0 148.5 59t56.5 154q0 104 -67.5 173t-172.5 69z" />
    <glyph glyph-name="edieresis.ss02" 
d="M418 1219q-61 0 -99 37.5t-38 95.5q0 59 38 99t99 40q59 0 97 -40t38 -99q0 -58 -37.5 -95.5t-97.5 -37.5zM809 1219q-61 0 -99 37.5t-38 95.5q0 59 38 99t99 40q59 0 97 -40t38 -99q0 -58 -38 -95.5t-97 -37.5zM1057 360h51q-57 -170 -196.5 -276.5t-323.5 -106.5
q-224 0 -366 156.5t-142 407.5q0 73 12 137l-176 67l2 31q67 -25 182 -63q44 183 178.5 289t319.5 106q172 0 291 -96t119 -242q0 -113 -48.5 -213t-130.5 -166l-497 193v-19q0 -227 98.5 -365.5t261.5 -138.5q107 0 207.5 82t157.5 217zM641 1016q-120 0 -206.5 -98.5
t-100.5 -282.5q245 -74 342 -74q92 0 148.5 59t56.5 154q0 104 -67.5 173t-172.5 69z" />
    <glyph glyph-name="edotaccent.ss02" 
d="M561 1214q-65 0 -107 42t-42 106q0 63 42 106t107 43t106.5 -43t41.5 -106q0 -64 -41.5 -106t-106.5 -42zM1057 360h51q-57 -170 -196.5 -276.5t-323.5 -106.5q-224 0 -366 156.5t-142 407.5q0 73 12 137l-176 67l2 31q67 -25 182 -63q44 183 178.5 289t319.5 106
q172 0 291 -96t119 -242q0 -113 -48.5 -213t-130.5 -166l-497 193v-19q0 -227 98.5 -365.5t261.5 -138.5q107 0 207.5 82t157.5 217zM641 1016q-120 0 -206.5 -98.5t-100.5 -282.5q245 -74 342 -74q92 0 148.5 59t56.5 154q0 104 -67.5 173t-172.5 69z" />
    <glyph glyph-name="egrave.ss02" 
d="M643 1178q-162 109 -260 199t-98 130q0 25 20 40.5t53 15.5q56 0 141.5 -106t170.5 -279h-27zM1057 360h51q-57 -170 -196.5 -276.5t-323.5 -106.5q-224 0 -366 156.5t-142 407.5q0 73 12 137l-176 67l2 31q67 -25 182 -63q44 183 178.5 289t319.5 106q172 0 291 -96
t119 -242q0 -113 -48.5 -213t-130.5 -166l-497 193v-19q0 -227 98.5 -365.5t261.5 -138.5q107 0 207.5 82t157.5 217zM641 1016q-120 0 -206.5 -98.5t-100.5 -282.5q245 -74 342 -74q92 0 148.5 59t56.5 154q0 104 -67.5 173t-172.5 69z" />
    <glyph glyph-name="emacron.ss02" 
d="M879 1454v-119h-580v119h580zM1057 360h51q-57 -170 -196.5 -276.5t-323.5 -106.5q-224 0 -366 156.5t-142 407.5q0 73 12 137l-176 67l2 31q67 -25 182 -63q44 183 178.5 289t319.5 106q172 0 291 -96t119 -242q0 -113 -48.5 -213t-130.5 -166l-497 193v-19
q0 -227 98.5 -365.5t261.5 -138.5q107 0 207.5 82t157.5 217zM641 1016q-120 0 -206.5 -98.5t-100.5 -282.5q245 -74 342 -74q92 0 148.5 59t56.5 154q0 104 -67.5 173t-172.5 69z" />
    <glyph glyph-name="eogonek.ss02" 
d="M662 -18q-123 -118 -123 -228q0 -54 25 -79t59 -25q50 0 92 57h51q-80 -131 -201 -131q-66 0 -111.5 38t-45.5 103q0 121 180 260q-224 0 -366 156.5t-142 407.5q0 73 12 137l-176 67l2 31q67 -25 182 -63q44 183 178.5 289t319.5 106q172 0 291 -96t119 -242
q0 -113 -48.5 -213t-130.5 -166l-497 193v-19q0 -227 98.5 -365.5t261.5 -138.5q107 0 207.5 82t157.5 217h51q-50 -152 -168.5 -254.5t-277.5 -123.5zM641 1016q-120 0 -206.5 -98.5t-100.5 -282.5q245 -74 342 -74q92 0 148.5 59t56.5 154q0 104 -67.5 173t-172.5 69z" />
    <glyph glyph-name="g.ss02" horiz-adv-x="1230" 
d="M817 1075l340 -41v-30l-133 -66v-836q0 -237 -133 -380.5t-367 -143.5q-133 0 -232 45.5t-142 112.5l143 356q-99 81 -155 205.5t-56 275.5q0 228 120 381.5t283 153.5q152 0 291 -160v127h41zM350 557q0 -143 29 -256l145 363h51q-100 -269 -155 -476q77 -147 225 -147
q63 0 131 25v778q-121 160 -225 160q-91 0 -146 -120.5t-55 -326.5zM524 -315q48 0 91.5 17.5t80 53t58 97t22.5 141.5q-81 -19 -149 -19q-125 0 -240 56q-15 -103 -14.5 -170t23 -106t53 -54.5t75.5 -15.5z" />
    <glyph glyph-name="gbreve.ss02" horiz-adv-x="1230" 
d="M616 1178q-52 0 -99.5 23.5t-88 68.5t-64.5 121t-24 172h31q5 -110 71.5 -184t173.5 -74t174 74.5t72 183.5h31q0 -96 -24.5 -172t-64.5 -121t-88 -68.5t-100 -23.5zM817 1075l340 -41v-30l-133 -66v-836q0 -237 -133 -380.5t-367 -143.5q-133 0 -232 45.5t-142 112.5
l143 356q-99 81 -155 205.5t-56 275.5q0 228 120 381.5t283 153.5q152 0 291 -160v127h41zM350 557q0 -143 29 -256l145 363h51q-100 -269 -155 -476q77 -147 225 -147q63 0 131 25v778q-121 160 -225 160q-91 0 -146 -120.5t-55 -326.5zM524 -315q48 0 91.5 17.5t80 53
t58 97t22.5 141.5q-81 -19 -149 -19q-125 0 -240 56q-15 -103 -14.5 -170t23 -106t53 -54.5t75.5 -15.5z" />
    <glyph glyph-name="gcommaaccent.ss02" horiz-adv-x="1230" 
d="M612 1200q-56 0 -89.5 32.5t-33.5 86.5q0 66 42.5 142t111.5 136h33q-33 -41 -53.5 -90t-20.5 -88q0 -23 15 -41.5t33 -29.5t33 -31t15 -45q0 -33 -23.5 -52.5t-62.5 -19.5zM817 1075l340 -41v-30l-133 -66v-836q0 -237 -133 -380.5t-367 -143.5q-133 0 -232 45.5
t-142 112.5l143 356q-99 81 -155 205.5t-56 275.5q0 228 120 381.5t283 153.5q152 0 291 -160v127h41zM350 557q0 -143 29 -256l145 363h51q-100 -269 -155 -476q77 -147 225 -147q63 0 131 25v778q-121 160 -225 160q-91 0 -146 -120.5t-55 -326.5zM524 -315
q48 0 91.5 17.5t80 53t58 97t22.5 141.5q-81 -19 -149 -19q-125 0 -240 56q-15 -103 -14.5 -170t23 -106t53 -54.5t75.5 -15.5z" />
    <glyph glyph-name="gdotaccent.ss02" horiz-adv-x="1230" 
d="M616 1214q-65 0 -107 42t-42 106q0 63 42 106t107 43t106.5 -43t41.5 -106q0 -64 -41.5 -106t-106.5 -42zM817 1075l340 -41v-30l-133 -66v-836q0 -237 -133 -380.5t-367 -143.5q-133 0 -232 45.5t-142 112.5l143 356q-99 81 -155 205.5t-56 275.5q0 228 120 381.5
t283 153.5q152 0 291 -160v127h41zM350 557q0 -143 29 -256l145 363h51q-100 -269 -155 -476q77 -147 225 -147q63 0 131 25v778q-121 160 -225 160q-91 0 -146 -120.5t-55 -326.5zM524 -315q48 0 91.5 17.5t80 53t58 97t22.5 141.5q-81 -19 -149 -19q-125 0 -240 56
q-15 -103 -14.5 -170t23 -106t53 -54.5t75.5 -15.5z" />
    <glyph glyph-name="y.ss02" horiz-adv-x="1355" 
d="M887 1075h399v-31l-176 -45l-309 -858q-22 -60 -39.5 -104.5t-46 -107t-55 -108t-63.5 -94t-75 -79t-86.5 -50.5t-99.5 -20q-75 0 -162 47.5t-127 110.5l399 696l-223 567l-149 45v31h542v-31l-139 -45l289 -729l266 736l-145 38v31zM369 -311q52 0 109.5 57.5
t94.5 135.5t37 138l-141 359q-280 -512 -191 -648q28 -42 91 -42z" />
    <glyph glyph-name="yacute.ss02" horiz-adv-x="1382" 
d="M1014 1511q0 -43 -97 -132.5t-262 -200.5h-26q88 179 171.5 282t145.5 103q26 0 47 -15.5t21 -36.5zM913 1075h400v-31l-176 -45l-310 -858q-22 -60 -39.5 -104.5t-46 -107t-55 -108t-63.5 -94t-75 -79t-86.5 -50.5t-99.5 -20q-75 0 -161.5 47.5t-126.5 110.5l399 696
l-223 567l-150 45v31h543v-31l-139 -45l289 -729l266 736l-146 38v31zM395 -311q52 0 110 57.5t95 135.5t37 138l-141 359q-283 -516 -190 -650q28 -40 89 -40z" />
    <glyph glyph-name="ycircumflex.ss02" horiz-adv-x="1382" 
d="M709 1417l-222 -239h-36q14 27 38 76q100 199 137 254t83 55q47 0 84 -56t137 -258q22 -46 35 -71h-37zM913 1075h400v-31l-176 -45l-310 -858q-22 -60 -39.5 -104.5t-46 -107t-55 -108t-63.5 -94t-75 -79t-86.5 -50.5t-99.5 -20q-75 0 -161.5 47.5t-126.5 110.5l399 696
l-223 567l-150 45v31h543v-31l-139 -45l289 -729l266 736l-146 38v31zM395 -311q52 0 110 57.5t95 135.5t37 138l-141 359q-283 -516 -190 -650q28 -40 89 -40z" />
    <glyph glyph-name="ydieresis.ss02" horiz-adv-x="1382" 
d="M547 1219q-61 0 -99 37.5t-38 95.5q0 59 38 99t99 40q59 0 97 -40t38 -99q0 -58 -38 -95.5t-97 -37.5zM938 1219q-61 0 -99 37.5t-38 95.5q0 59 38 99t99 40q59 0 97 -40t38 -99q0 -58 -37.5 -95.5t-97.5 -37.5zM913 1075h400v-31l-176 -45l-310 -858
q-22 -60 -39.5 -104.5t-46 -107t-55 -108t-63.5 -94t-75 -79t-86.5 -50.5t-99.5 -20q-75 0 -161.5 47.5t-126.5 110.5l399 696l-223 567l-150 45v31h543v-31l-139 -45l289 -729l266 736l-146 38v31zM395 -311q52 0 110 57.5t95 135.5t37 138l-141 359q-283 -516 -190 -650
q28 -40 89 -40z" />
    <glyph glyph-name="ygrave.ss02" horiz-adv-x="1382" 
d="M803 1178q-162 109 -260.5 199t-98.5 130q0 25 20 40.5t54 15.5q55 0 140.5 -106t170.5 -279h-26zM913 1075h400v-31l-176 -45l-310 -858q-22 -60 -39.5 -104.5t-46 -107t-55 -108t-63.5 -94t-75 -79t-86.5 -50.5t-99.5 -20q-75 0 -161.5 47.5t-126.5 110.5l399 696
l-223 567l-150 45v31h543v-31l-139 -45l289 -729l266 736l-146 38v31zM395 -311q52 0 110 57.5t95 135.5t37 138l-141 359q-283 -516 -190 -650q28 -40 89 -40z" />
    <glyph glyph-name="zero.osf" horiz-adv-x="1288" 
d="M637 -23q-250 0 -403.5 147.5t-153.5 389.5q0 267 160.5 430.5t423.5 163.5q246 0 395 -156t149 -411q0 -253 -157 -408.5t-414 -155.5zM672 63q123 0 199.5 121t76.5 310q0 245 -87.5 386.5t-233.5 141.5q-137 0 -219 -123.5t-82 -339.5q0 -218 96 -357t250 -139z" />
    <glyph glyph-name="one.osf" horiz-adv-x="1009" 
d="M106 0v31l256 82v829l-266 -240v72l246 301h471v-31l-154 -63v-868l256 -82v-31h-809z" />
    <glyph glyph-name="two.osf" horiz-adv-x="1122" 
d="M94 0v47q136 57 234.5 120.5t171.5 144.5t109 183t36 228q0 138 -43.5 218.5t-132.5 80.5q-96 0 -159.5 -90.5t-63.5 -235.5v-278h-47l-74 413q44 125 157.5 201t254.5 76q167 0 265.5 -103t98.5 -262q0 -168 -117 -334t-344 -296h330q41 0 67.5 3.5t53.5 15t46 34
t36.5 59.5t32.5 92h20q-12 -54 -29 -115t-28 -106.5t-15 -95.5h-860z" />
    </font>
</defs>
</svg>
